<?xml version="1.0" standalone="no"?><svg xmlns="http://www.w3.org/2000/svg" viewBox="0 0 1440 320"><path fill="#0099ff" fill-opacity="1" d="M0,192L40,170.7C80,149,160,107,240,117.3C320,128,400,192,480,234.7C560,277,640,299,720,298.7C800,299,880,277,960,250.7C1040,224,1120,192,1200,160C1280,128,1360,96,1400,80L1440,64L1440,320L1400,320C1360,320,1280,320,1200,320C1120,320,1040,320,960,320C880,320,800,320,720,320C640,320,560,320,480,320C400,320,320,320,240,320C160,320,80,320,40,320L0,320Z"></path></svg>