<svg xmlns="http://www.w3.org/2000/svg" viewBox="0 0 500 500"><g id="freepik--background-complete--inject-35"><rect y="382.4" width="500" height="0.25" style="fill:#ebebeb"></rect><rect x="416.78" y="398.49" width="33.12" height="0.25" style="fill:#ebebeb"></rect><rect x="322.53" y="401.21" width="8.69" height="0.25" style="fill:#ebebeb"></rect><rect x="396.59" y="389.21" width="19.19" height="0.25" style="fill:#ebebeb"></rect><rect x="52.46" y="390.89" width="43.19" height="0.25" style="fill:#ebebeb"></rect><rect x="104.56" y="390.89" width="6.33" height="0.25" style="fill:#ebebeb"></rect><rect x="131.47" y="395.11" width="93.68" height="0.25" style="fill:#ebebeb"></rect><path d="M237,337.8H43.91a5.71,5.71,0,0,1-5.7-5.71V60.66A5.71,5.71,0,0,1,43.91,55H237a5.71,5.71,0,0,1,5.71,5.71V332.09A5.71,5.71,0,0,1,237,337.8ZM43.91,55.2a5.46,5.46,0,0,0-5.45,5.46V332.09a5.46,5.46,0,0,0,5.45,5.46H237a5.47,5.47,0,0,0,5.46-5.46V60.66A5.47,5.47,0,0,0,237,55.2Z" style="fill:#ebebeb"></path><path d="M453.31,337.8H260.21a5.72,5.72,0,0,1-5.71-5.71V60.66A5.72,5.72,0,0,1,260.21,55h193.1A5.71,5.71,0,0,1,459,60.66V332.09A5.71,5.71,0,0,1,453.31,337.8ZM260.21,55.2a5.47,5.47,0,0,0-5.46,5.46V332.09a5.47,5.47,0,0,0,5.46,5.46h193.1a5.47,5.47,0,0,0,5.46-5.46V60.66a5.47,5.47,0,0,0-5.46-5.46Z" style="fill:#ebebeb"></path><path d="M185.57,282.44H65.43a8.24,8.24,0,0,0,7.88,8.23c12.91.58,32.77,2.63,39.07,9.77,11.74,13.32,10.6,60.1-3.46,70.93-4.41,3.4-17.27,10.14-17.27,10.14h67.69s-12-6.88-16.18-10.14c-14-10.92-14.39-57.67-2.6-70.93,6.06-6.8,24.67-9,37.16-9.69A8.31,8.31,0,0,0,185.57,282.44Z" style="fill:#f5f5f5"></path><path d="M80.31,291.11c12.2,1,26.83,3.39,32.07,9.33a23.72,23.72,0,0,1,4,6.88h20.18a24.12,24.12,0,0,1,4-6.88c5.26-5.91,20-8.34,32-9.33Z" style="fill:#e6e6e6"></path><polygon points="134.39 282.5 132.76 263.83 156.44 263.83 158.07 282.5 134.39 282.5" style="fill:#ebebeb"></polygon><polygon points="134.39 282.5 132.76 263.83 131.48 263.83 133.12 282.5 134.39 282.5" style="fill:#e0e0e0"></polygon><polygon points="136.64 280.6 135.34 265.73 154.19 265.73 155.49 280.6 136.64 280.6" style="fill:#f0f0f0"></polygon><polygon points="138.09 279.37 137 266.95 152.75 266.95 153.84 279.37 138.09 279.37" style="fill:#fafafa"></polygon><polygon points="126.71 282.44 102.92 282.44 105.56 252.27 129.35 252.27 126.71 282.44" style="fill:#e6e6e6"></polygon><polygon points="126.71 282.44 127.85 282.44 130.49 252.27 129.35 252.27 126.71 282.44" style="fill:#e0e0e0"></polygon><polygon points="124.56 279.37 105.62 279.37 107.72 255.35 126.66 255.35 124.56 279.37" style="fill:#f0f0f0"></polygon><polygon points="123.17 277.39 107.35 277.39 109.1 257.32 124.92 257.32 123.17 277.39" style="fill:#fafafa"></polygon><path d="M115.18,266.35h0a2.74,2.74,0,0,0,3.89,0h0a2.76,2.76,0,0,0,0-3.89h0a2.76,2.76,0,0,0-3.89,0h0A2.74,2.74,0,0,0,115.18,266.35Z" style="fill:#ebebeb"></path><path d="M116.34,269.72h0a2,2,0,0,0-2.85,0h0a2,2,0,0,0,1.43,3.44h0A2,2,0,0,0,116.34,269.72Z" style="fill:#f0f0f0"></path><path d="M318,375.34H294.79L307,276.14a8.86,8.86,0,0,1,8.54-7.61h101.1L401.79,375.34Z" style="fill:#f5f5f5"></path><path d="M391.45,375.34h23.17l12.18-99.2a6.59,6.59,0,0,0-6.67-7.61h-8a8.86,8.86,0,0,0-8.54,7.61Z" style="fill:#f0f0f0"></path><path d="M382.91,375.22l4.2-48a4.58,4.58,0,0,1,4-4.14l1.72-.22a6.12,6.12,0,0,0,5.34-5.55l.76-8.75a6.13,6.13,0,0,0-6.11-6.67h38.73a6.14,6.14,0,0,1,6.11,6.67l-.77,8.75a6.12,6.12,0,0,1-5.33,5.55l-1.73.22a4.59,4.59,0,0,0-4,4.14l-4.19,48a6.78,6.78,0,0,1-6.75,6.19H376.16A6.77,6.77,0,0,0,382.91,375.22Z" style="fill:#e6e6e6"></path><path d="M276.35,315.23a14.59,14.59,0,0,0-14.53-13.32h33.71a14.59,14.59,0,0,1,14.53,13.32l3.33,38H279.68Z" style="fill:#e6e6e6"></path><path d="M246.84,301.91h15a14.59,14.59,0,0,1,14.53,13.32l3.33,38H360l3.33-38a14.57,14.57,0,0,1,14.53-13.32h15a6.13,6.13,0,0,1,6.11,6.67l-.76,8.75a6.12,6.12,0,0,1-5.34,5.55l-1.72.22a4.58,4.58,0,0,0-4,4.14l-4.2,48a6.77,6.77,0,0,1-6.74,6.19H263.48a6.78,6.78,0,0,1-6.75-6.19l-4.2-48a4.57,4.57,0,0,0-4-4.14l-1.73-.22a6.12,6.12,0,0,1-5.33-5.55l-.77-8.75A6.14,6.14,0,0,1,246.84,301.91Z" style="fill:#f0f0f0"></path><path d="M111.16,131.31s-1.17-7.73,4.47-12.68,5.14-7.9,3.53-8.29-3.1,4.57-5.58,5.94c0,0-.07-7.06,2.44-9.66s3.84-9.31,1.44-9.42-2.64,4-3.13,6.88-3.17,7-3.17,7-.52-6.31-2.14-8.91,2.71-8.55,1-11.15-4.64,2.35-4.39,7.93,4,11.51,3.09,17.34c0,0-1.64-4.09-3.11-4.46s-3-3.08-4-4.08-2.22,2.47,0,5.69,7.93,11.83,7.06,18.79Z" style="fill:#e6e6e6"></path><path d="M114.53,127.79l1.85,11.58a5.9,5.9,0,0,1-5.82,6.82h-2a5.89,5.89,0,0,1-5.81-6.82l1.85-11.58Z" style="fill:#e6e6e6"></path><rect x="86.62" y="141.91" width="130.44" height="6.7" transform="translate(303.68 290.53) rotate(180)" style="fill:#e0e0e0"></rect><rect x="205.31" y="117.21" width="5.75" height="24.7" transform="translate(416.37 259.13) rotate(180)" style="fill:#ebebeb"></rect><rect x="177.52" y="117.21" width="5.75" height="24.7" transform="translate(360.79 259.13) rotate(180)" style="fill:#ebebeb"></rect><rect x="143.84" y="116.9" width="5.75" height="24.7" transform="translate(269.34 281.55) rotate(-170.22)" style="fill:#ebebeb"></rect><rect x="198.19" y="120.47" width="5.75" height="21.45" transform="translate(402.13 262.38) rotate(180)" style="fill:#ebebeb"></rect><rect x="184.98" y="120.47" width="5.75" height="21.45" transform="translate(375.71 262.38) rotate(180)" style="fill:#ebebeb"></rect><rect x="151.64" y="120.47" width="5.75" height="21.45" transform="translate(309.03 262.38) rotate(180)" style="fill:#ebebeb"></rect><rect x="167.58" y="120.1" width="5.75" height="21.45" transform="translate(308.48 295.5) rotate(-167.47)" style="fill:#ebebeb"></rect><rect x="193.22" y="115.98" width="2.87" height="25.93" transform="translate(389.32 257.9) rotate(180)" style="fill:#ebebeb"></rect><rect x="159.04" y="115.98" width="2.87" height="25.93" transform="translate(320.95 257.9) rotate(180)" style="fill:#ebebeb"></rect><rect x="86.62" y="191.95" width="130.44" height="6.7" style="fill:#e0e0e0"></rect><rect x="92.63" y="167.24" width="5.75" height="24.7" style="fill:#ebebeb"></rect><rect x="120.41" y="167.24" width="5.75" height="24.7" style="fill:#ebebeb"></rect><rect x="154.1" y="166.93" width="5.75" height="24.7" transform="translate(-28.17 29.27) rotate(-9.78)" style="fill:#ebebeb"></rect><rect x="99.75" y="170.5" width="5.75" height="21.45" style="fill:#ebebeb"></rect><rect x="112.96" y="170.5" width="5.75" height="21.45" style="fill:#ebebeb"></rect><rect x="146.29" y="170.5" width="5.75" height="21.45" style="fill:#ebebeb"></rect><rect x="130.36" y="170.13" width="5.75" height="21.45" transform="translate(-36.05 33.2) rotate(-12.53)" style="fill:#ebebeb"></rect><rect x="107.59" y="166.02" width="2.87" height="25.93" style="fill:#ebebeb"></rect><rect x="141.77" y="166.02" width="2.87" height="25.93" style="fill:#ebebeb"></rect><rect x="176.54" y="172.39" width="28" height="19.33" style="fill:#ebebeb"></rect><rect x="269.43" y="101.92" width="163.56" height="6.51" rx="2.12" transform="translate(702.43 210.34) rotate(180)" style="fill:#e0e0e0"></rect><rect x="279.15" y="107.1" width="144.13" height="127.9" transform="translate(702.43 342.09) rotate(180)" style="fill:#e6e6e6"></rect><rect x="282.94" y="110.6" width="136.73" height="120.95" style="fill:#f0f0f0"></rect><polygon points="387.58 110.6 419.67 231.29 419.67 174.58 402.73 110.6 387.58 110.6" style="fill:#fff"></polygon><polygon points="376.22 110.6 408.59 231.55 413.75 231.55 381.38 110.6 376.22 110.6" style="fill:#fff"></polygon><polygon points="282.94 186.92 282.94 206.25 289.49 231.55 294.66 231.55 282.94 186.92" style="fill:#fff"></polygon><rect x="371.98" y="108.43" width="2.3" height="125.83" transform="translate(746.26 342.68) rotate(180)" style="fill:#e6e6e6"></rect><rect x="327.34" y="108.43" width="2.3" height="125.83" transform="translate(656.99 342.68) rotate(180)" style="fill:#e6e6e6"></rect><path d="M302.64,104s-3.32,43.27-22.39,65.32c0,0,13.89,55.69,13.88,75.1l-25.81-4.76,9.3-70L273.17,104Z" style="fill:#e0e0e0"></path><path d="M399.79,104s3.31,43.27,22.38,65.32c0,0-13.89,55.69-13.88,75.1l25.82-4.76-9.31-70L429.25,104Z" style="fill:#e0e0e0"></path></g><g id="freepik--Shadow--inject-35"><ellipse id="freepik--path--inject-35" cx="250" cy="416.24" rx="193.89" ry="11.32" style="fill:#f5f5f5"></ellipse></g><g id="freepik--Plant--inject-35"><polygon points="135.62 416.73 98 416.73 93 380.15 140.62 380.15 135.62 416.73" style="fill:#263238"></polygon><path d="M116.34,380.21s-5.27-24.89,4.32-38.37-8.67-.15-10.77,12.47c0,0-3.14-22.57,6.16-38.44s-8.1-2.84-9.58,13.52c0,0-2.85-20.13,1.42-31.44s-3.16-4-6,3.05.89,24.65.89,24.65-7.46-32.47-14.52-29.89,10.56,23.86,13,34.93c0,0-8.32-14.9-14.64-11.8s9.78,4.65,17.16,26.85l2.59,10.41s-7.67-14.7-12.68-10.06,14.86,12.64,19.47,34.91Z" style="fill:#407BFF"></path><path d="M115.3,381.64S114.2,350.27,98.69,337,109,334.21,115.3,348.7c0,0-3-28-18.82-44.2s8.86-5.82,15.5,13.33c0,0-2.58-25-11.07-37.23s2.58-5.78,8.12,1.86,6.27,29.79,6.27,29.79-.73-41.11,8.49-40.12-5.53,31.72-5.16,45.7c0,0,5.53-20.32,14-18.49s-10.33,8.48-12.55,37.27v13.24S124.9,330,132.28,334s-14,19.57-12.92,47.62Z" style="fill:#407BFF"></path><path d="M115.3,381.64S114.2,350.27,98.69,337,109,334.21,115.3,348.7c0,0-3-28-18.82-44.2s8.86-5.82,15.5,13.33c0,0-2.58-25-11.07-37.23s2.58-5.78,8.12,1.86,6.27,29.79,6.27,29.79-.73-41.11,8.49-40.12-5.53,31.72-5.16,45.7c0,0,5.53-20.32,14-18.49s-10.33,8.48-12.55,37.27v13.24S124.9,330,132.28,334s-14,19.57-12.92,47.62Z" style="fill:#fff;isolation:isolate;opacity:0.2"></path><path d="M88.29,377.18v3.48a4.21,4.21,0,0,0,4.21,4.21h49.1a4.21,4.21,0,0,0,4.21-4.21v-3.48Z" style="fill:#263238"></path><path d="M88.29,377.18v3.48a4.21,4.21,0,0,0,4.21,4.21h49.1a4.21,4.21,0,0,0,4.21-4.21v-3.48Z" style="fill:#fff;isolation:isolate;opacity:0.2"></path></g><g id="freepik--Device--inject-35"><path d="M393.82,115.92V412.39a4.34,4.34,0,0,1-4.4,4.34h-138a3.85,3.85,0,0,1-2.76-1.12,4,4,0,0,1-1.18-2.86V115.56a3.5,3.5,0,0,1,3.37-3.63h39.19a2.76,2.76,0,0,1,2.52,1.76l1.63,4a2.75,2.75,0,0,0,2.52,1.75h47.95a2.73,2.73,0,0,0,2.52-1.72l1.63-4a2.76,2.76,0,0,1,2.52-1.77H390A4,4,0,0,1,393.82,115.92Z" style="fill:#407BFF"></path><path d="M393.82,201.38v211a4.34,4.34,0,0,1-4.4,4.34h-138a3.85,3.85,0,0,1-2.76-1.12,4,4,0,0,1-1.18-2.86V201.38Z" style="fill:#fff;isolation:isolate;opacity:0.6000000000000001"></path><path d="M393.82,115.92v12.73H247.51V115.56a3.5,3.5,0,0,1,3.37-3.63h39.19a2.76,2.76,0,0,1,2.52,1.76l1.63,4a2.75,2.75,0,0,0,2.52,1.75h47.95a2.73,2.73,0,0,0,2.52-1.72l1.63-4a2.76,2.76,0,0,1,2.52-1.77H390A4,4,0,0,1,393.82,115.92Z" style="fill:#263238"></path><path d="M393.82,396.35v16a4.34,4.34,0,0,1-4.4,4.34h-138a3.85,3.85,0,0,1-2.76-1.12,4,4,0,0,1-1.18-2.86v-16.4Z" style="fill:#263238"></path><rect x="265.71" y="121.15" width="2.04" height="2.72" transform="translate(533.45 245.02) rotate(180)" style="fill:#fff;isolation:isolate;opacity:0.6000000000000001"></rect><rect x="262.38" y="120.24" width="2.04" height="3.62" transform="translate(526.81 244.11) rotate(180)" style="fill:#fff;isolation:isolate;opacity:0.6000000000000001"></rect><rect x="259.06" y="119.34" width="2.04" height="4.53" transform="translate(520.16 243.2) rotate(180)" style="fill:#fff;isolation:isolate;opacity:0.6000000000000001"></rect><rect x="255.74" y="118.43" width="2.04" height="5.44" transform="translate(513.52 242.3) rotate(180)" style="fill:#fff;isolation:isolate;opacity:0.6000000000000001"></rect><rect x="373.93" y="120.16" width="1.21" height="2.72" style="fill:#fff;isolation:isolate;opacity:0.6000000000000001"></rect><rect x="375.97" y="119.17" width="9.63" height="4.7" transform="translate(761.57 243.03) rotate(180)" style="fill:#fff;isolation:isolate;opacity:0.6000000000000001"></rect><path d="M385.6,134.43H376a1,1,0,0,1,0-2h9.63a1,1,0,0,1,0,2Z" style="fill:#fff"></path><path d="M385.6,138.43H376a1,1,0,0,1,0-2h9.63a1,1,0,0,1,0,2Z" style="fill:#fff"></path><path d="M385.6,142.43H376a1,1,0,0,1,0-2h9.63a1,1,0,0,1,0,2Z" style="fill:#fff"></path><polygon points="269.35 137.99 262.52 131.78 255.7 137.99 257.2 137.99 257.2 143.09 267.85 143.09 267.85 137.99 269.35 137.99" style="fill:#fff"></polygon><path d="M344.91,375.61H295.28a1,1,0,0,1,0-2h49.63a1,1,0,0,1,0,2Z" style="fill:#263238"></path><path d="M364.91,379.61H275.28a1,1,0,0,1,0-2h89.63a1,1,0,0,1,0,2Z" style="fill:#263238"></path><path d="M334.91,383.61H305.28a1,1,0,0,1,0-2h29.63a1,1,0,0,1,0,2Z" style="fill:#263238"></path><circle cx="320.09" cy="170.45" r="21.3" transform="translate(-26.77 276.26) rotate(-45)" style="fill:#fff"></circle><polygon points="320.87 181.56 320.69 180.47 320.68 180.47 320.87 181.56" style="fill:#263238"></polygon><path d="M325.54,176.09a5.42,5.42,0,0,0-3-3.17,16.15,16.15,0,0,0,.58-2.18l-2.18-.36a11.94,11.94,0,0,1-.46,1.74,12.29,12.29,0,0,0-2.52-.42,11.75,11.75,0,0,0-2.88.18,29.91,29.91,0,0,1-.47-3.42h11v-2.21H314.55a20.21,20.21,0,0,1,.16-3.09l-2.19-.34a23.2,23.2,0,0,0-.19,3.43h-4.72v2.21h4.81a33.14,33.14,0,0,0,.57,4.12,7.75,7.75,0,0,0-4.06,4.19c-.87,2.15-.76,3.72.33,4.69,1.71,1.51,4.88.53,6.75-.41.42.78.87,1.56,1.38,2.34l1.85-1.21c-.51-.77-.95-1.55-1.36-2.32a13.89,13.89,0,0,0,3.87-4.9,3.3,3.3,0,0,1,1.66,1.71,2.77,2.77,0,0,1-.19,2.28,4.27,4.27,0,0,1-2.53,1.52l.36,2.17a6.42,6.42,0,0,0,4-2.49A4.89,4.89,0,0,0,325.54,176.09Zm-14.81,3.72c-.22-.2-.29-.89.25-2.21a5.41,5.41,0,0,1,2.54-2.83,30.88,30.88,0,0,0,1.53,4.29C313.18,180,311.23,180.25,310.73,179.81Zm6.19-2a29.83,29.83,0,0,1-1.29-3.75,8.91,8.91,0,0,1,1.72-.16h.53a9.74,9.74,0,0,1,1.79.27A11.75,11.75,0,0,1,316.92,177.8Z" style="fill:#263238"></path><path d="M329,176.49l-1.63-4.58H321l-1.63,4.58h-3.61l6.76-19h3.28l6.76,19ZM324.17,163l-2,5.57h3.94Z" style="fill:#407BFF"></path><rect x="255.76" y="208.95" width="57.6" height="12.59" rx="1.81" style="fill:#fff"></rect><path d="M263.38,217.69v.6h-3.56v-4.9h3.46V214h-2.76v1.51H263v.59h-2.46v1.59Z" style="fill:#263238"></path><path d="M267.93,216.16v2.13h-.67v-2c0-.73-.36-1.09-1-1.09a1.11,1.11,0,0,0-1.18,1.23v1.91h-.67v-3.71h.65v.56a1.6,1.6,0,0,1,1.33-.59A1.44,1.44,0,0,1,267.93,216.16Z" style="fill:#263238"></path><path d="M272.75,214.58v3.21a1.69,1.69,0,0,1-1.93,1.91,2.74,2.74,0,0,1-1.77-.56l.33-.52a2.22,2.22,0,0,0,1.42.49c.88,0,1.28-.41,1.28-1.25v-.29a1.72,1.72,0,0,1-1.34.57,1.8,1.8,0,1,1,0-3.59,1.68,1.68,0,0,1,1.37.61v-.58Zm-.66,1.76a1.28,1.28,0,1,0-1.27,1.21A1.18,1.18,0,0,0,272.09,216.34Z" style="fill:#263238"></path><path d="M274,213.1h.67v5.19H274Z" style="fill:#263238"></path><path d="M275.86,213.43a.45.45,0,0,1,.46-.44.44.44,0,1,1,0,.88A.44.44,0,0,1,275.86,213.43Zm.12,1.15h.67v3.71H276Z" style="fill:#263238"></path><path d="M277.47,217.9l.28-.53a2.41,2.41,0,0,0,1.3.39c.62,0,.88-.19.88-.51,0-.83-2.34-.11-2.34-1.59,0-.66.59-1.11,1.54-1.11a2.67,2.67,0,0,1,1.35.33l-.28.54a1.93,1.93,0,0,0-1.07-.3c-.59,0-.88.22-.88.51,0,.88,2.35.16,2.35,1.61,0,.67-.61,1.1-1.6,1.1A2.6,2.6,0,0,1,277.47,217.9Z" style="fill:#263238"></path><path d="M285,216.16v2.13h-.68v-2c0-.73-.36-1.09-1-1.09a1.11,1.11,0,0,0-1.18,1.23v1.91h-.67V213.1h.67v2a1.63,1.63,0,0,1,1.31-.56A1.44,1.44,0,0,1,285,216.16Z" style="fill:#263238"></path><rect x="302.06" y="210.53" width="9.43" height="9.43" rx="1.6" style="isolation:isolate;opacity:0.4"></rect><polygon points="304.37 213.4 306.78 217.08 309.18 213.4 304.37 213.4" style="fill:#fff"></polygon><rect x="326.83" y="208.95" width="57.6" height="12.59" rx="1.81" style="fill:#fff"></rect><path d="M331,213.39h.7v4.9H331Z" style="fill:#263238"></path><path d="M336.62,216.16v2.13H336v-2c0-.73-.36-1.09-1-1.09a1.11,1.11,0,0,0-1.18,1.23v1.91h-.67v-3.71h.65v.56a1.59,1.59,0,0,1,1.33-.59A1.44,1.44,0,0,1,336.62,216.16Z" style="fill:#263238"></path><path d="M341.39,213.1v5.19h-.64v-.58a1.57,1.57,0,0,1-1.33.63,1.9,1.9,0,0,1,0-3.79,1.58,1.58,0,0,1,1.3.59v-2Zm-.66,3.34a1.25,1.25,0,1,0-1.25,1.31A1.22,1.22,0,0,0,340.73,216.44Z" style="fill:#263238"></path><path d="M342.32,216.44a1.93,1.93,0,1,1,1.93,1.9A1.84,1.84,0,0,1,342.32,216.44Zm3.18,0a1.25,1.25,0,1,0-2.5,0,1.25,1.25,0,1,0,2.5,0Z" style="fill:#263238"></path><path d="M350.63,216.16v2.13H350v-2c0-.73-.37-1.09-1-1.09a1.1,1.1,0,0,0-1.18,1.23v1.91h-.67v-3.71h.64v.56a1.61,1.61,0,0,1,1.34-.59A1.44,1.44,0,0,1,350.63,216.16Z" style="fill:#263238"></path><path d="M355.24,216.66h-3a1.27,1.27,0,0,0,1.35,1.09,1.39,1.39,0,0,0,1.07-.45l.37.43a1.84,1.84,0,0,1-1.46.61,1.86,1.86,0,0,1-2-1.9,1.82,1.82,0,0,1,1.87-1.89,1.79,1.79,0,0,1,1.83,1.91C355.25,216.52,355.24,216.6,355.24,216.66Zm-3-.48h2.39a1.2,1.2,0,0,0-2.39,0Z" style="fill:#263238"></path><path d="M355.71,217.9l.28-.53a2.43,2.43,0,0,0,1.3.39c.63,0,.89-.19.89-.51,0-.83-2.35-.11-2.35-1.59,0-.66.59-1.11,1.55-1.11a2.7,2.7,0,0,1,1.35.33l-.29.54a1.91,1.91,0,0,0-1.07-.3c-.59,0-.88.22-.88.51,0,.88,2.36.16,2.36,1.61,0,.67-.62,1.1-1.61,1.1A2.65,2.65,0,0,1,355.71,217.9Z" style="fill:#263238"></path><path d="M359.57,213.43a.46.46,0,0,1,.91,0,.44.44,0,0,1-.46.45A.43.43,0,0,1,359.57,213.43Zm.12,1.15h.67v3.71h-.67Z" style="fill:#263238"></path><path d="M364.58,216.05v2.24h-.64v-.49a1.35,1.35,0,0,1-1.21.54c-.85,0-1.38-.45-1.38-1.1s.39-1.08,1.49-1.08h1.07V216c0-.57-.33-.9-1-.9a1.82,1.82,0,0,0-1.17.4l-.28-.51a2.51,2.51,0,0,1,1.53-.47C364,214.55,364.58,215,364.58,216.05Zm-.67,1.11v-.52h-1c-.66,0-.85.26-.85.58s.31.6.82.6A1.08,1.08,0,0,0,363.91,217.16Z" style="fill:#263238"></path><path d="M369.35,216.16v2.13h-.67v-2c0-.73-.37-1.09-1-1.09a1.1,1.1,0,0,0-1.17,1.23v1.91h-.67v-3.71h.64v.56a1.61,1.61,0,0,1,1.34-.59A1.44,1.44,0,0,1,369.35,216.16Z" style="fill:#263238"></path><rect x="373.07" y="210.53" width="9.43" height="9.43" rx="1.6" style="isolation:isolate;opacity:0.4"></rect><polygon points="375.38 213.4 377.78 217.08 380.19 213.4 375.38 213.4" style="fill:#fff"></polygon><rect x="255.76" y="227.85" width="128.67" height="63.41" rx="2.25" style="fill:#fff"></rect><g style="opacity:0.4"><path d="M266.85,240.93v1h-5.61v-7.72h5.45v1h-4.34v2.37h3.87v.94h-3.87v2.49Z"></path><path d="M274,238.53v3.36H273v-3.24c0-1.15-.57-1.71-1.58-1.71a1.73,1.73,0,0,0-1.85,1.94v3h-1.06V236h1v.89a2.49,2.49,0,0,1,2.1-.94A2.27,2.27,0,0,1,274,238.53Z"></path><path d="M279.28,241.55A2,2,0,0,1,278,242a1.67,1.67,0,0,1-1.85-1.83v-3.21h-1V236h1v-1.27h1.06V236h1.68v.88h-1.68v3.16a.86.86,0,0,0,.92,1,1.3,1.3,0,0,0,.82-.27Z"></path><path d="M285.63,239.32h-4.75A2,2,0,0,0,283,241a2.19,2.19,0,0,0,1.69-.7l.59.68a3.19,3.19,0,0,1-5.45-2,2.86,2.86,0,0,1,2.93-3,2.82,2.82,0,0,1,2.89,3C285.65,239.09,285.64,239.22,285.63,239.32Zm-4.75-.76h3.76a1.89,1.89,0,0,0-3.76,0Z"></path><path d="M290.26,236v1a1,1,0,0,0-.24,0,1.75,1.75,0,0,0-1.84,2v2.91h-1.06V236h1v1A2.23,2.23,0,0,1,290.26,236Z"></path><path d="M297.9,241.55a2,2,0,0,1-1.28.41,1.67,1.67,0,0,1-1.85-1.83v-3.21h-1V236h1v-1.27h1.06V236h1.67v.88h-1.67v3.16a.86.86,0,0,0,.91,1,1.31,1.31,0,0,0,.83-.27Z"></path><path d="M304.24,239.32H299.5a2,2,0,0,0,2.12,1.71,2.2,2.2,0,0,0,1.69-.7l.58.68a3.19,3.19,0,0,1-5.45-2,2.87,2.87,0,0,1,2.94-3,2.82,2.82,0,0,1,2.89,3C304.27,239.09,304.25,239.22,304.24,239.32Zm-4.74-.76h3.75a1.89,1.89,0,0,0-3.75,0Z"></path><path d="M309.3,241.89l-1.69-2.24-1.71,2.24h-1.18l2.31-3-2.2-2.86H306l1.61,2.11,1.6-2.11h1.16l-2.21,2.86,2.33,3Z"></path><path d="M315,241.55a2,2,0,0,1-1.28.41,1.67,1.67,0,0,1-1.86-1.83v-3.21h-1V236h1v-1.27h1.06V236h1.68v.88h-1.68v3.16a.86.86,0,0,0,.92,1,1.31,1.31,0,0,0,.83-.27Z"></path></g><path d="M375.34,282.51a1.92,1.92,0,0,0,1.93-1.93v-2.79a1.93,1.93,0,0,0-3.85,0v2.79A1.92,1.92,0,0,0,375.34,282.51Z" style="fill:#263238"></path><path d="M378.21,278.31a.39.39,0,0,0-.39.38v1.94a2.48,2.48,0,0,1-5,0v-1.94a.39.39,0,0,0-.77,0v1.94a3.24,3.24,0,0,0,2.87,3.21V286a.38.38,0,0,0,.38.39.39.39,0,0,0,.39-.39v-2.2a3.23,3.23,0,0,0,2.86-3.21v-1.94A.38.38,0,0,0,378.21,278.31Z" style="fill:#263238"></path><rect x="255.76" y="297.85" width="128.67" height="63.41" rx="2.25" style="fill:#fff"></rect><g style="opacity:0.4"><path d="M262.78,305.13h-2.65v-1h6.39v1h-2.65v6.77h-1.09Z"></path><path d="M270.57,306v1h-.25a1.74,1.74,0,0,0-1.84,2v2.92h-1.06v-5.85h1v1A2.23,2.23,0,0,1,270.57,306Z"></path><path d="M276.49,308.37v3.53h-1v-.78a2.19,2.19,0,0,1-1.92.84c-1.33,0-2.16-.7-2.16-1.72s.6-1.71,2.35-1.71h1.67v-.21c0-.89-.52-1.41-1.56-1.41a3,3,0,0,0-1.86.63l-.44-.79A3.88,3.88,0,0,1,274,306,2.18,2.18,0,0,1,276.49,308.37Zm-1.06,1.74v-.82H273.8c-1.05,0-1.35.41-1.35.91s.49.95,1.3.95A1.69,1.69,0,0,0,275.43,310.11Z"></path><path d="M284,308.53v3.37H283v-3.25c0-1.14-.58-1.71-1.58-1.71a1.73,1.73,0,0,0-1.85,1.94v3h-1.06v-5.85h1v.88a2.52,2.52,0,0,1,2.11-.94A2.27,2.27,0,0,1,284,308.53Z"></path><path d="M285.23,311.28l.44-.84a3.8,3.8,0,0,0,2.06.61c1,0,1.39-.3,1.39-.8,0-1.31-3.7-.17-3.7-2.5,0-1.05.94-1.76,2.44-1.76a4.28,4.28,0,0,1,2.13.53l-.45.84a3.08,3.08,0,0,0-1.69-.46c-.93,0-1.38.34-1.38.8,0,1.38,3.7.26,3.7,2.53,0,1.06-1,1.73-2.52,1.73A4.22,4.22,0,0,1,285.23,311.28Z"></path><path d="M291.5,303.71h1.06v8.19H291.5Z"></path><path d="M299.21,308.37v3.53h-1v-.78a2.19,2.19,0,0,1-1.92.84c-1.33,0-2.16-.7-2.16-1.72s.6-1.71,2.35-1.71h1.67v-.21c0-.89-.52-1.41-1.56-1.41a3,3,0,0,0-1.86.63l-.44-.79a3.88,3.88,0,0,1,2.42-.76A2.18,2.18,0,0,1,299.21,308.37Zm-1.06,1.74v-.82h-1.63c-1,0-1.35.41-1.35.91s.49.95,1.3.95A1.69,1.69,0,0,0,298.15,310.11Z"></path><path d="M304.46,311.55a1.94,1.94,0,0,1-1.27.41,1.67,1.67,0,0,1-1.86-1.83v-3.21h-1v-.87h1v-1.28h1.06v1.28h1.68v.87h-1.68v3.17a.86.86,0,0,0,.92,1,1.29,1.29,0,0,0,.82-.28Z"></path><path d="M305.56,304.24a.69.69,0,0,1,.72-.69.69.69,0,1,1-.72.69Zm.19,1.81h1.05v5.85h-1.05Z"></path><path d="M308.28,309a3,3,0,1,1,3.05,3A2.91,2.91,0,0,1,308.28,309Zm5,0a2,2,0,1,0-3.94,0,2,2,0,1,0,3.94,0Z"></path><path d="M321.38,308.53v3.37h-1.06v-3.25c0-1.14-.57-1.71-1.58-1.71a1.74,1.74,0,0,0-1.85,1.94v3h-1.06v-5.85h1v.88A2.52,2.52,0,0,1,319,306,2.27,2.27,0,0,1,321.38,308.53Z"></path></g><path d="M375.34,352.51a1.92,1.92,0,0,0,1.93-1.92V347.8a1.93,1.93,0,1,0-3.85,0v2.79A1.92,1.92,0,0,0,375.34,352.51Z" style="fill:#263238"></path><path d="M378.21,348.31a.4.4,0,0,0-.39.39v1.93a2.48,2.48,0,1,1-5,0V348.7a.39.39,0,1,0-.77,0v1.93a3.26,3.26,0,0,0,2.87,3.22v2.2a.38.38,0,0,0,.38.38.39.39,0,0,0,.39-.38v-2.2a3.25,3.25,0,0,0,2.86-3.22V348.7A.39.39,0,0,0,378.21,348.31Z" style="fill:#263238"></path><polygon points="321.06 213.56 318 213.56 318 212.57 315.73 214.05 318 215.54 318 214.55 321.06 214.55 321.06 213.56" style="fill:#263238"></polygon><polygon points="319.13 216.92 322.18 216.92 322.18 217.91 324.45 216.43 322.18 214.94 322.18 215.93 319.13 215.93 319.13 216.92" style="fill:#263238"></polygon><g style="isolation:isolate;opacity:0.1"><path d="M313.34,119.43,271.22,277.19h0l-.47,1.77h0l-.76,2.84h0l-.48,1.78-22,82.38V266.28l41.21-154.36h1.34a2.77,2.77,0,0,1,2.52,1.77l1.62,4a2.78,2.78,0,0,0,2.53,1.75Z" style="fill:#fff"></path><polygon points="393.82 200 393.82 299.7 367.55 398.1 366.91 400.49 362.58 416.72 335.97 416.72 340.3 400.5 340.99 397.89 344.47 384.86 345.17 382.25 346.56 377.03 347.26 374.43 348.64 369.21 349.34 366.61 371.24 284.59 371.24 284.58 372.25 280.79 372.25 280.78 393.82 200" style="fill:#fff"></polygon><path d="M327.76,119.43,285.9,276.21l-.25.93-2.29,8.6-.25.93-34.42,129a4,4,0,0,1-1.17-2.87V397.58l29.6-110.91.26-.93,2.29-8.6.25-.93,41.86-156.78Z" style="fill:#fff"></path></g></g><g id="freepik--speech-bubble--inject-35"><path d="M184.07,145.51s1.85,10.17,15.3,14.77c0,0-7.65-7.39-7.65-14.77Z" style="fill:#407BFF"></path><path d="M184.07,145.51s1.85,10.17,15.3,14.77c0,0-7.65-7.39-7.65-14.77Z" style="fill:#fff;isolation:isolate;opacity:0.6000000000000001"></path><rect x="156.18" y="125.85" width="46.13" height="26.13" rx="3.03" style="fill:#407BFF"></rect><rect x="156.18" y="125.85" width="46.13" height="26.13" rx="3.03" style="fill:#fff;isolation:isolate;opacity:0.6000000000000001"></rect><circle cx="169.64" cy="138.91" r="1.24" style="fill:#407BFF"></circle><circle cx="176.04" cy="138.91" r="1.24" style="fill:#407BFF"></circle><path d="M183.69,138.91a1.25,1.25,0,1,1-1.24-1.24A1.25,1.25,0,0,1,183.69,138.91Z" style="fill:#407BFF"></path><circle cx="188.85" cy="138.91" r="1.24" style="fill:#407BFF"></circle></g><g id="freepik--Character--inject-35"><path d="M210.26,201.44c-.22.44-.46.88-.71,1.31-2.83,4.84-5.53,8.08-8,9.94-3.39,2.53-6.38,2.46-8.72.3-4.05-3.74-.29-13.14-.1-13.14s4.65,1,4.65,1l.36-1c.53-1.49,1.61-4.4,3-7.59,2.67-6.06,6.54-13.15,10.14-13.49C210.88,178.69,215.85,190.38,210.26,201.44Z" style="fill:#263238"></path><path d="M210.26,201.44c-.22.44-.46.88-.71,1.31-2.83,4.84-5.53,8.08-8,9.94-3.39,2.53-6.38,2.46-8.72.3-4.05-3.74-.29-13.14-.1-13.14s4.65,1,4.65,1l.36-1c.53-1.49,1.61-4.4,3-7.59,2.67-6.06,6.54-13.15,10.14-13.49C210.88,178.69,215.85,190.38,210.26,201.44Z" style="fill:#fff;isolation:isolate;opacity:0.2"></path><path d="M200,208.35a39.11,39.11,0,0,0-.61-7.57l-1.66-1c.53-1.49,1.61-4.4,3-7.59C205.52,198.73,200.22,208,200,208.35Z" style="isolation:isolate;opacity:0.2"></path><path d="M210.26,201.44c-.22.44-.46.88-.71,1.31-2.83,4.84-5.53,8.08-8,9.94-.7-9,6.73-16.44,7.33-15.67A8.83,8.83,0,0,1,210.26,201.44Z" style="isolation:isolate;opacity:0.2"></path><polygon points="211.39 402.56 218.88 399.12 212.67 380.99 205.18 384.42 211.39 402.56" style="fill:#ffb573"></polygon><polygon points="212.67 380.99 215.87 390.34 208.38 393.78 205.18 384.43 212.67 380.99" style="opacity:0.2"></polygon><path d="M210,402.16l8.41-3.86a.65.65,0,0,1,.83.24l4,6.21a1.33,1.33,0,0,1-.59,1.88c-3,1.3-4.45,1.77-8.15,3.47-2.27,1-8.7,4.28-11.84,5.72s-4.74-1.58-3.56-2.47c5.29-4,8.63-7.59,9.84-10.16A2.13,2.13,0,0,1,210,402.16Z" style="fill:#263238"></path><path d="M210,402.16l8.41-3.86a.65.65,0,0,1,.83.24l4,6.21a1.33,1.33,0,0,1-.59,1.88c-3,1.3-4.45,1.77-8.15,3.47-2.27,1-8.7,4.28-11.84,5.72s-4.74-1.58-3.56-2.47c5.29-4,8.63-7.59,9.84-10.16A2.13,2.13,0,0,1,210,402.16Z" style="opacity:0.2"></path><path d="M209.68,403.56a.22.22,0,0,0,.07-.22.21.21,0,0,0-.18-.13c-.42,0-4.1-.18-4.79.74a.63.63,0,0,0-.08.61,1.09,1.09,0,0,0,.71.72,3.09,3.09,0,0,0,2-.37A14,14,0,0,0,209.68,403.56Zm-.71,0c-1.53,1-2.8,1.53-3.44,1.33a.69.69,0,0,1-.46-.48.21.21,0,0,1,0-.24.73.73,0,0,1,.3-.22A10.54,10.54,0,0,1,209,403.58Z" style="fill:#407BFF"></path><path d="M209.73,403.5a.2.2,0,0,0,0-.2c0-.08-1.14-2-2.44-2.37a1.48,1.48,0,0,0-1.13.15c-.46.27-.49.59-.43.81.25.91,2.76,1.71,3.83,1.71l.08,0A.24.24,0,0,0,209.73,403.5Zm-2.55-2.19a4.55,4.55,0,0,1,2,1.87c-1.16-.13-2.95-.85-3.1-1.4,0,0,0-.18.26-.36l.11-.06A1,1,0,0,1,207.18,401.31Z" style="fill:#407BFF"></path><path d="M210.17,236.78s-27.39,60.94-28.86,82.66c-1.62,23.82,24,70.8,24,70.8l13.48-3.56s-16.91-47.61-15.5-65.87c4.5-26.11,35.83-79.7,35.83-79.7Z" style="fill:#407BFF"></path><path d="M210.17,236.78s-27.39,60.94-28.86,82.66c-1.62,23.82,24,70.8,24,70.8l13.48-3.56s-16.91-47.61-15.5-65.87c4.5-26.11,35.83-79.7,35.83-79.7Z" style="fill:#fff;isolation:isolate;opacity:0.2"></path><path d="M227.9,254.9c-7.12,3.23-11.89,20.18-11.58,29.13,5-10.67,10.4-21.11,14.72-29.09A3.12,3.12,0,0,0,227.9,254.9Z" style="isolation:isolate;opacity:0.2"></path><polygon points="205.85 393.28 217.73 387.83 216.86 383.64 203.35 389.28 205.85 393.28" style="fill:#263238"></polygon><polygon points="217.44 407.83 225.68 407.83 227.6 388.75 219.37 388.75 217.44 407.83" style="fill:#ffb573"></polygon><polygon points="227.6 388.76 226.61 398.59 218.37 398.59 219.36 388.76 227.6 388.76" style="opacity:0.2"></polygon><path d="M216.33,406.87h9.25a.66.66,0,0,1,.66.57l1,7.32a1.31,1.31,0,0,1-1.32,1.46c-3.22-.05-4.78-.24-8.85-.24-2.5,0-9.69.26-13.15.26s-3.64-3.42-2.2-3.73c6.45-1.39,11-3.3,13.18-5.13A2.16,2.16,0,0,1,216.33,406.87Z" style="fill:#263238"></path><path d="M215.47,408a.19.19,0,0,0,.15-.16.21.21,0,0,0-.1-.21c-.37-.19-3.66-1.87-4.66-1.31a.63.63,0,0,0-.34.52,1.1,1.1,0,0,0,.36.95,3.07,3.07,0,0,0,2,.5A14,14,0,0,0,215.47,408Zm-.65-.28c-1.83.3-3.18.23-3.68-.22a.72.72,0,0,1-.23-.63.24.24,0,0,1,.13-.21.79.79,0,0,1,.37-.07A10.65,10.65,0,0,1,214.82,407.74Z" style="fill:#407BFF"></path><path d="M215.54,408a.18.18,0,0,0,.08-.18c0-.09-.19-2.31-1.23-3.17a1.4,1.4,0,0,0-1.08-.34c-.54.06-.7.33-.73.55-.16.94,1.79,2.71,2.77,3.16h.08A.2.2,0,0,0,215.54,408Zm-1.4-3.05a4.52,4.52,0,0,1,1.05,2.54c-1-.61-2.32-2-2.23-2.56,0-.05,0-.19.39-.23h.12A1,1,0,0,1,214.14,404.94Z" style="fill:#407BFF"></path><path d="M209.8,232.83l40,1.39s.26,13.11-2.77,22.87l-39.68-13.82Z" style="fill:#407BFF"></path><path d="M209.8,232.83l40,1.39s.26,13.11-2.77,22.87l-39.68-13.82Z" style="fill:#fff;isolation:isolate;opacity:0.2"></path><path d="M224.48,235.91s-6.9,63.89-7.21,85.86c-.35,24.08-.72,72.53-.72,72.53l12.88,2s6.16-45.16,8.58-68.5c2.75-26.59,10.4-80.66,10.4-80.66Z" style="fill:#407BFF"></path><path d="M224.48,235.91s-6.9,63.89-7.21,85.86c-.35,24.08-.72,72.53-.72,72.53l12.88,2s6.16-45.16,8.58-68.5c2.75-26.59,10.4-80.66,10.4-80.66Z" style="fill:#fff;isolation:isolate;opacity:0.2"></path><polygon points="216.27 238.58 235.07 239.77 235.3 235.18 216.5 234.22 216.27 238.58" style="fill:#263238"></polygon><polygon points="236.73 235.26 236.49 239.86 249.34 240.68 249.59 235.91 236.73 235.26" style="fill:#263238"></polygon><polygon points="215.07 234.15 209.59 233.87 208.87 238.11 214.85 238.49 215.07 234.15" style="fill:#263238"></polygon><rect x="220.33" y="234.33" width="7.41" height="5.34" transform="translate(12.41 -11.14) rotate(2.93)" style="fill:#fff"></rect><polygon points="216.28 397.08 229.35 397.08 230.31 392.92 215.67 392.41 216.28 397.08" style="fill:#263238"></polygon><path d="M248.67,214.51c.41,10.29,1.46,18.17,1.33,20.75-5.67,0-28.55-2.43-40.2-2.43-7.28-47.37,1.08-54.14,1.08-54.14A81.87,81.87,0,0,1,222,176.93a163.88,163.88,0,0,1,16.45,0,114.32,114.32,0,0,1,13,1.44,119.07,119.07,0,0,0-2.8,22.93C248.44,206,248.51,210.42,248.67,214.51Z" style="fill:#263238"></path><path d="M206.57,197.42a.72.72,0,0,1-.56.94l-7.94,1.55a.94.94,0,0,1-1-.63L192.18,184a.81.81,0,0,1,.54-1l7.94-1.55a1.05,1.05,0,0,1,1.08.73Z" style="fill:#263238"></path><path d="M200.84,182.17l4.88,15.46a.62.62,0,0,1-.48.88l-6.73,1.31c-.45.09-1.32,0-1.46-.44l-4.9-15.52c-.14-.43.57-.94,1-1l6.73-1.31A.83.83,0,0,1,200.84,182.17Z" style="fill:#fff;opacity:0.5"></path><path d="M231.1,186.63s11.46-5.57,13.72-9.89-2.76-8.68-11.16-8.71-16.93,3.35-15.9,9.81,4.87,8.74,4.87,8.74S225.11,183.56,231.1,186.63Z" style="fill:#263238"></path><path d="M231.1,186.63s11.46-5.57,13.72-9.89-2.76-8.68-11.16-8.71-16.93,3.35-15.9,9.81,4.87,8.74,4.87,8.74S225.11,183.56,231.1,186.63Z" style="fill:#fff;isolation:isolate;opacity:0.2"></path><path d="M237.46,178.82c-3.35,2.56-9.14,5.58-11.28,5.51a5,5,0,0,1-4.28-2.73c2.3-3.5,1.93-5.77,0-8.88l8.38-12.09C230.77,166.27,232.53,176.25,237.46,178.82Z" style="fill:#ebb376"></path><path d="M226.88,165.56l-5,7.16a16.88,16.88,0,0,1,1.44,2.8c2.36-1.07,4.85-3.93,5.07-6.74C228.57,167,227.57,165.55,226.88,165.56Z" style="opacity:0.2"></path><path d="M215.11,149.77c3.38,1.59,2.54,5.32-3.52,11.9-3.37-3.2-4.94-10.2-3-12.32S212.16,148.39,215.11,149.77Z" style="fill:#263238"></path><path d="M229.83,151.92c1.55,7.41,2.84,11.67.18,16.42-4,7.15-13.9,6.28-17.64-.52-3.36-6.12-5.33-17.21,1-22.07A10.33,10.33,0,0,1,229.83,151.92Z" style="fill:#ebb376"></path><path d="M219.33,157c.17.59,0,1.16-.4,1.27s-.84-.29-1-.89,0-1.16.41-1.26S219.17,156.4,219.33,157Z" style="fill:#263238"></path><path d="M212.63,158.83c.16.59,0,1.16-.41,1.27s-.84-.29-1-.88,0-1.17.41-1.27S212.46,158.24,212.63,158.83Z" style="fill:#263238"></path><path d="M214.84,158.54a22.08,22.08,0,0,1-1.44,5.85,3.52,3.52,0,0,0,3-.24Z" style="fill:#d58745"></path><path d="M220.81,154.25a.36.36,0,0,0,.14-.11.34.34,0,0,0-.06-.5,3.57,3.57,0,0,0-3.24-.66.37.37,0,0,0-.22.46.38.38,0,0,0,.46.22h0a2.88,2.88,0,0,1,2.56.55A.36.36,0,0,0,220.81,154.25Z" style="fill:#263238"></path><path d="M209.1,157.32a.4.4,0,0,0,.22-.27,2.89,2.89,0,0,1,1.53-2.12.36.36,0,0,0-.28-.66,3.58,3.58,0,0,0-2,2.65.36.36,0,0,0,.29.42A.44.44,0,0,0,209.1,157.32Z" style="fill:#263238"></path><path d="M217.14,166.09a18.59,18.59,0,0,1,2.26,1.52l.35-.33c1.58-1.48,1.82-2.69,1.61-3.58a2.66,2.66,0,0,0-.62-1.17,2.77,2.77,0,0,0-.56-.51,10.31,10.31,0,0,1-2.5,3.56C217.36,165.9,217.14,166.09,217.14,166.09Z" style="fill:#263238"></path><path d="M217.68,165.58l.67.43c1.49-1.41,2.35-2.59,2.39-3.48a2.77,2.77,0,0,0-.56-.51A10.31,10.31,0,0,1,217.68,165.58Z" style="fill:#fff"></path><path d="M219.75,167.28c1.58-1.48,1.82-2.69,1.61-3.58a7.1,7.1,0,0,0-1.43,2A2.62,2.62,0,0,0,219.75,167.28Z" style="fill:#a24e3f"></path><path d="M225,147.32c-3.27,1.8-2.2,5.48,4.26,11.65,3.16-3.41,4.3-10.49,2.2-12.48S227.88,145.76,225,147.32Z" style="fill:#263238"></path><path d="M231,146.05s.81-2.89-4.31-5.92-13.73-1.1-19.45,2.63.76,9.08,3.44,9.33l-.71-1a20.08,20.08,0,0,0,8.5-1l-1.68-.65S227.53,148,231,146.05Z" style="fill:#263238"></path><path d="M234.63,157.14a7.18,7.18,0,0,1-2.19,5c-1.83,1.74-3.92.39-4.4-2-.43-2.11,0-5.55,2.31-6.41A3.23,3.23,0,0,1,234.63,157.14Z" style="fill:#ebb376"></path><path d="M214.69,205.38h0a.24.24,0,0,1-.2-.28c1.89-12.29,7.73-19.29,7.79-19.36a.25.25,0,0,1,.38.32c-.06.07-5.81,7-7.68,19.11A.25.25,0,0,1,214.69,205.38Z" style="fill:#fff"></path><path d="M230.43,204.45a.26.26,0,0,1-.24-.18c-2.76-8.59.85-18.55.88-18.65a.25.25,0,0,1,.32-.15.25.25,0,0,1,.15.32c0,.1-3.58,9.9-.87,18.33a.26.26,0,0,1-.16.32Z" style="fill:#fff"></path><path d="M214.92,205s-.8-.13-.94,1.16l1.17.15S215.52,205.29,214.92,205Z" style="fill:#fff"></path><path d="M230.46,203.73s-.75.29-.21,1.48l1.08-.48S231.12,203.66,230.46,203.73Z" style="fill:#fff"></path><path d="M197.46,191.81a31,31,0,0,0-4.55,1.19c-.38.26-1.21,5.05-1.09,6,.07.49,2.18,4.76,2.18,4.76.86.47,4.29-1.6,4.29-1.6Z" style="fill:#ebb376"></path><path d="M248.67,214.51c-4.07.57-8.35-2.32-8.35-2.32,2-6,5.28-9.54,8.28-10.9C248.44,206,248.51,210.42,248.67,214.51Z" style="isolation:isolate;opacity:0.2"></path><path d="M212.8,194.45l-7.58-3.17,2,10.05s7.21,1.6,7.72-2.19Z" style="fill:#ebb376"></path><polygon points="198.29 194.53 200.32 202.75 207.19 201.33 205.22 191.28 198.29 194.53" style="fill:#ebb376"></polygon><path d="M212.4,194.28c2.27.6,12.26,5.64,12.26,5.64L221.24,206l-8.84-6.06Z" style="fill:#ebb376"></path><path d="M216.55,194.89s18,9,19.94,9.58,7.52-12.1,8.87-15.74,2.94-10,6-10.37c0,0,8.65-1.56,4.36,12.28s-10,24.85-17.75,25.08-24.35-13.14-24.35-13.14Z" style="fill:#263238"></path><path d="M216.55,194.89s18,9,19.94,9.58,7.52-12.1,8.87-15.74,2.94-10,6-10.37c0,0,8.65-1.56,4.36,12.28s-10,24.85-17.75,25.08-24.35-13.14-24.35-13.14Z" style="fill:#fff;isolation:isolate;opacity:0.2"></path></g></svg>