<svg id="Layer_1" data-name="Layer 1" xmlns="http://www.w3.org/2000/svg" xmlns:xlink="http://www.w3.org/1999/xlink" viewBox="0 0 535.59 491.6" width="406" height="306" class="illustration styles_illustrationTablet__1DWOa"><defs><linearGradient id="linear-gradient" x1="299.35" y1="224.78" x2="465.92" y2="296.32" gradientUnits="userSpaceOnUse"><stop offset="0" stop-color="#010101" stop-opacity="0"></stop><stop offset="0.95" stop-color="#010101"></stop></linearGradient><linearGradient id="linear-gradient-2" x1="286.62" y1="300.74" x2="677.71" y2="3.15" xlink:href="#linear-gradient"></linearGradient><linearGradient id="linear-gradient-3" x1="330.27" y1="222.8" x2="331.32" y2="227.11" xlink:href="#linear-gradient"></linearGradient><linearGradient id="linear-gradient-4" x1="238.79" y1="420.48" x2="240.17" y2="467.25" gradientUnits="userSpaceOnUse"><stop offset="0" stop-color="#fff" stop-opacity="0"></stop><stop offset="0.07" stop-color="#fff" stop-opacity="0.22"></stop><stop offset="0.16" stop-color="#fff" stop-opacity="0.45"></stop><stop offset="0.25" stop-color="#fff" stop-opacity="0.65"></stop><stop offset="0.33" stop-color="#fff" stop-opacity="0.8"></stop><stop offset="0.4" stop-color="#fff" stop-opacity="0.91"></stop><stop offset="0.46" stop-color="#fff" stop-opacity="0.98"></stop><stop offset="0.51" stop-color="#fff"></stop></linearGradient><linearGradient id="linear-gradient-5" x1="233.62" y1="396.26" x2="243.52" y2="396.26" xlink:href="#linear-gradient-4"></linearGradient><linearGradient id="linear-gradient-6" x1="226.04" y1="347.16" x2="180.91" y2="370.55" xlink:href="#linear-gradient"></linearGradient><linearGradient id="linear-gradient-7" x1="256.95" y1="363.42" x2="257.78" y2="351.59" xlink:href="#linear-gradient"></linearGradient><linearGradient id="linear-gradient-8" x1="290.86" y1="419.35" x2="258.94" y2="429.25" xlink:href="#linear-gradient"></linearGradient><linearGradient id="linear-gradient-9" x1="343.31" y1="424.73" x2="351.01" y2="468.39" xlink:href="#linear-gradient"></linearGradient><linearGradient id="linear-gradient-10" x1="351.99" y1="409.57" x2="305.76" y2="362.24" xlink:href="#linear-gradient"></linearGradient><linearGradient id="linear-gradient-11" x1="139.01" y1="157.74" x2="275.49" y2="62.35" xlink:href="#linear-gradient-4"></linearGradient><linearGradient id="linear-gradient-12" x1="258.5" y1="196.81" x2="281.43" y2="196.81" gradientUnits="userSpaceOnUse"><stop offset="0" stop-color="#e4c5d5"></stop><stop offset="0.42" stop-color="#e9d3cf"></stop><stop offset="1" stop-color="#efe8ca"></stop></linearGradient><linearGradient id="linear-gradient-13" x1="270.75" y1="203.42" x2="301.57" y2="175.91" xlink:href="#linear-gradient"></linearGradient><linearGradient id="linear-gradient-14" x1="246.74" y1="270.47" x2="387.25" y2="321.83" xlink:href="#linear-gradient"></linearGradient><linearGradient id="linear-gradient-15" x1="318.4" y1="239.18" x2="346.51" y2="239.18" xlink:href="#linear-gradient-12"></linearGradient><linearGradient id="linear-gradient-16" x1="326.18" y1="361.95" x2="197.95" y2="361.95" xlink:href="#linear-gradient"></linearGradient><linearGradient id="linear-gradient-17" x1="230.16" y1="231.5" x2="212.55" y2="373.85" xlink:href="#linear-gradient"></linearGradient><linearGradient id="linear-gradient-18" x1="305.95" y1="240.61" x2="263.58" y2="283.26" xlink:href="#linear-gradient"></linearGradient><linearGradient id="linear-gradient-19" x1="335.56" y1="242.09" x2="382.15" y2="251.26" xlink:href="#linear-gradient"></linearGradient><linearGradient id="linear-gradient-20" x1="454.86" y1="306.88" x2="448.26" y2="-66.24" xlink:href="#linear-gradient-4"></linearGradient><linearGradient id="linear-gradient-21" x1="375.91" y1="410.59" x2="439.74" y2="93.61" xlink:href="#linear-gradient-4"></linearGradient><linearGradient id="linear-gradient-22" x1="271.87" y1="186.92" x2="301.85" y2="186.92" xlink:href="#linear-gradient-12"></linearGradient><linearGradient id="linear-gradient-23" x1="284.31" y1="187.69" x2="274.68" y2="170.08" xlink:href="#linear-gradient"></linearGradient><linearGradient id="linear-gradient-24" x1="281.26" y1="150.67" x2="265.29" y2="223.34" xlink:href="#linear-gradient"></linearGradient><linearGradient id="linear-gradient-25" x1="280.23" y1="149.39" x2="271.15" y2="222.86" xlink:href="#linear-gradient"></linearGradient><linearGradient id="linear-gradient-26" x1="45.68" y1="334.81" x2="246.07" y2="-97.32" xlink:href="#linear-gradient-4"></linearGradient></defs><title>Designer 2</title><path d="M546.84,280.91c-18.1,46.56-67.12,73.3-94.48,115.09-3,4.49-5.63,9.18-8.21,13.87-5.71,10.25-11.06,20.68-18,30.1-22.56,30.73-60.32,47.77-98.2,51.88s-76.11-3.48-112.7-14.19c-29.2-8.56-59.73-20.56-77-45.62-5.9-8.52-10-18.22-16.53-26.23a87.15,87.15,0,0,0-14-13.14c-1.48-1.17-2.93-2.3-4.41-3.44-21.74-16.69-43.79-33.61-60.52-55.35s-27.75-49.25-24.12-76.42c3.56-26.47,20.41-49.33,39.6-67.9s41.28-34,59.7-53.32c36.94-38.7,59.06-92.61,105-120.09,55.47-33.22,136.31-5,183.3,30.57,38.19,28.85,68.41,66.69,99.92,102.69,14.93,17.09,30.49,34.29,39.4,55.16A102.51,102.51,0,0,1,546.84,280.91Z" transform="translate(-17.99 -1.36)" fill="#3b82f6" opacity="0.24" style="isolation: isolate;"></path><path d="M444.15,409.87c-5.71,10.25-11.06,20.68-18,30.1-22.56,30.73-60.32,47.77-98.2,51.88s-76.11-3.48-112.7-14.19c-29.2-8.56-59.73-20.56-77-45.62-5.9-8.52-10-18.22-16.53-26.23a87.15,87.15,0,0,0-14-13.14c19.82-5.66,40.85-7.81,61.49-9.89,51.6-5.16,103.55-10.32,155.31-6.45C354.4,378.6,417.1,382.28,444.15,409.87Z" transform="translate(-17.99 -1.36)" fill="#3b82f6" opacity="0.24" style="isolation: isolate;"></path><rect x="383.21" y="53.92" width="137.95" height="203.98" fill="#3b82f6"></rect><polygon points="335.15 177.55 375.51 167.65 303.97 316.6 283.42 279.55 335.15 177.55" fill="#3b82f6"></polygon><polygon points="335.15 177.55 375.51 167.65 303.97 316.6 283.42 279.55 335.15 177.55" fill="url(#linear-gradient)"></polygon><polygon points="328.18 191.5 352.4 188.93 305.07 291.65 291.13 267.44 328.18 191.5" fill="#fff"></polygon><path d="M344.53,243.34c-3.85.81-8.18,2-10,5.46-.94,1.83-1,4-1.33,6a19.71,19.71,0,0,1-3.16,7.83l-6.95-12.23a3.83,3.83,0,0,1-.63-1.67,4,4,0,0,1,1-2.3,79.49,79.49,0,0,0,8.63-15.91c1.84-4.58,2.54-9.59,5.95-13.33,1.74-1.91,5.71-5.66,8.65-5.21,4.16.63,1.06,7.06.48,9.62C346.73,223.47,344.35,243.38,344.53,243.34Z" transform="translate(-17.99 -1.36)" fill="#3b82f6" opacity="0.24" style="isolation: isolate;"></path><path d="M346.21,230.73a23.19,23.19,0,0,1-2.69,6.72c-5.66,10.74-23,60.23-25.87,71.71-1.49-2.8-6.31-11.7-7.81-14.5-1-1.8-1.95-3.72-1.86-5.76a11.52,11.52,0,0,1,1.37-4.3c3.12-6.66,6.29-13.38,10.75-19.23,3.14-4.13,2.68-8.45,5.89-12.53,5.65-7.16,10.19-14.58,12.84-23.29.42-1.37,9.38-7.88,11.6-7.11C352.07,223,346.46,229.26,346.21,230.73Z" transform="translate(-17.99 -1.36)" fill="url(#linear-gradient-2)"></path><path d="M311.32,227.78c-.83,3,21.18-1.16,26-1.79,4.52-.59,9.18-1.24,13.12-3.55-.56.33-3.29-.67-4.2-.62-2.05.09-4.14.52-6.19.75C335.87,223,311.39,225.1,311.32,227.78Z" transform="translate(-17.99 -1.36)" fill="#3b82f6"></path><path d="M311.32,227.78c-.83,3,21.18-1.16,26-1.79,4.52-.59,9.18-1.24,13.12-3.55-.56.33-3.29-.67-4.2-.62-2.05.09-4.14.52-6.19.75C335.87,223,311.39,225.1,311.32,227.78Z" transform="translate(-17.99 -1.36)" fill="url(#linear-gradient-3)"></path><ellipse cx="239.19" cy="435.94" rx="30.29" ry="10.77" fill="#3b82f6"></ellipse><ellipse cx="239.19" cy="433.83" rx="30.29" ry="8.66" opacity="0.65" fill="url(#linear-gradient-4)"></ellipse><path d="M233.62,362h9.91a0,0,0,0,1,0,0v63.56a5,5,0,0,1-5,5h0a5,5,0,0,1-5-5V362a0,0,0,0,1,0,0Z" fill="#3b82f6"></path><path d="M233.62,362h9.91a0,0,0,0,1,0,0v63.56a5,5,0,0,1-5,5h0a5,5,0,0,1-5-5V362a0,0,0,0,1,0,0Z" opacity="0.65" fill="url(#linear-gradient-5)"></path><path d="M207.12,350.41c.07,4.85.46,10,3.39,13.88,3.45,4.54,9.58,6.12,15.28,6.31a25.42,25.42,0,0,0,9-1.09A13.66,13.66,0,0,0,242,364.2c-3.57-1.79-7.92-.4-11.8-1.33a17,17,0,0,1-5.32-2.57c-6-3.95-11.59-9.78-11.93-16.95-.17-3.61,1.11-7.23.49-10.83-.29-1.7-2-5.7-4.33-3.51-1.78,1.66-1.48,7.89-1.66,10.21C207.13,342.94,207.06,346.68,207.12,350.41Z" transform="translate(-17.99 -1.36)" fill="#3b82f6"></path><path d="M207.12,350.41c.07,4.85.46,10,3.39,13.88,3.45,4.54,9.58,6.12,15.28,6.31a25.42,25.42,0,0,0,9-1.09A13.66,13.66,0,0,0,242,364.2c-3.57-1.79-7.92-.4-11.8-1.33a17,17,0,0,1-5.32-2.57c-6-3.95-11.59-9.78-11.93-16.95-.17-3.61,1.11-7.23.49-10.83-.29-1.7-2-5.7-4.33-3.51-1.78,1.66-1.48,7.89-1.66,10.21C207.13,342.94,207.06,346.68,207.12,350.41Z" transform="translate(-17.99 -1.36)" fill="url(#linear-gradient-6)"></path><path d="M241.12,345c-5.21.36-10.12,2.49-12.89,5.61a9.08,9.08,0,0,0-1.46,10.57C228.7,364.7,233,367.46,238,369a50.87,50.87,0,0,0,15.92,2,81.1,81.1,0,0,0,27.29-5.13,12.24,12.24,0,0,0,3.07-1.53,7.89,7.89,0,0,0,1.65-1.84,22.76,22.76,0,0,0,2.91-5.67,6.34,6.34,0,0,0,.42-3.17c-.52-2.71-3.95-4.68-7.49-5.83-6.34-2.05-13.52-2.31-20.5-2.54-7.88-.26-15.79-.52-23.67-.1" transform="translate(-17.99 -1.36)" fill="#606161"></path><path d="M241.12,345c-5.21.36-10.12,2.49-12.89,5.61a9.08,9.08,0,0,0-1.46,10.57C228.7,364.7,233,367.46,238,369a50.87,50.87,0,0,0,15.92,2,81.1,81.1,0,0,0,27.29-5.13,12.24,12.24,0,0,0,3.07-1.53,7.89,7.89,0,0,0,1.65-1.84,22.76,22.76,0,0,0,2.91-5.67,6.34,6.34,0,0,0,.42-3.17c-.52-2.71-3.95-4.68-7.49-5.83-6.34-2.05-13.52-2.31-20.5-2.54-7.88-.26-15.79-.52-23.67-.1" transform="translate(-17.99 -1.36)" fill="url(#linear-gradient-7)"></path><path d="M269.87,409.45a6,6,0,0,0-1.46,2.32,6.42,6.42,0,0,0,0,2.69c1.43,9.57,8.48,17.3,16,23.38,1.28,1,2.82,2.09,4.41,1.74,2.2-.5,3-3.25,3-5.5.13-4.68-.82-9.31-1.77-13.89-.88-4.22-1-14.78-5.69-16.79S272.72,406.28,269.87,409.45Z" transform="translate(-17.99 -1.36)" fill="#3b82f6"></path><path d="M329.07,441.29a1.41,1.41,0,0,0,.47.79,2.06,2.06,0,0,0,1.22.25c10.39,0,21.25-.05,30.43-4.17.76-.34,1.6-.85,1.58-1.57s-.78-1.16-1.46-1.52c-7.72-4-15.91-8-24.95-9.24-4.61-.65-6.86-1.07-7.82,3.18A23.29,23.29,0,0,0,329.07,441.29Z" transform="translate(-17.99 -1.36)" fill="#3b82f6"></path><path d="M269.87,409.45a6,6,0,0,0-1.46,2.32,6.42,6.42,0,0,0,0,2.69c1.43,9.57,8.48,17.3,16,23.38,1.28,1,2.82,2.09,4.41,1.74,2.2-.5,3-3.25,3-5.5.13-4.68-.82-9.31-1.77-13.89-.88-4.22-1-14.78-5.69-16.79S272.72,406.28,269.87,409.45Z" transform="translate(-17.99 -1.36)" fill="url(#linear-gradient-8)"></path><path d="M329.07,441.29a1.41,1.41,0,0,0,.47.79,2.06,2.06,0,0,0,1.22.25c10.39,0,21.25-.05,30.43-4.17.76-.34,1.6-.85,1.58-1.57s-.78-1.16-1.46-1.52c-7.72-4-15.91-8-24.95-9.24-4.61-.65-6.86-1.07-7.82,3.18A23.29,23.29,0,0,0,329.07,441.29Z" transform="translate(-17.99 -1.36)" fill="url(#linear-gradient-9)"></path><path d="M338.63,418.43c0,2.87,0,5.93-1.52,8.34s-5.28,3.62-7.34,1.63a7.47,7.47,0,0,1-1.68-3.47,277.54,277.54,0,0,0-11.81-33.24c-2.86-6.7-6-13.45-6.62-20.7s2-15.3,8.35-18.93c5-2.85,14.93-3.57,19.33.93,3.34,3.42,1.05,8.63.69,12.78C336.53,383,338.37,401.13,338.63,418.43Z" transform="translate(-17.99 -1.36)" fill="#606161"></path><path d="M338.63,418.43c0,2.87,0,5.93-1.52,8.34s-5.28,3.62-7.34,1.63a7.47,7.47,0,0,1-1.68-3.47,277.54,277.54,0,0,0-11.81-33.24c-2.86-6.7-6-13.45-6.62-20.7s2-15.3,8.35-18.93c5-2.85,14.93-3.57,19.33.93,3.34,3.42,1.05,8.63.69,12.78C336.53,383,338.37,401.13,338.63,418.43Z" transform="translate(-17.99 -1.36)" fill="url(#linear-gradient-10)"></path><rect x="154.63" y="50.71" width="88.27" height="130.52" fill="#3b82f6"></rect><rect x="154.63" y="50.71" width="88.27" height="130.52" fill="url(#linear-gradient-11)"></rect><path d="M281.34,199.14c-.59,3.2-1.14,6.45-1.72,9.65a3.41,3.41,0,0,1-.9,2.11,1.92,1.92,0,0,1-1.29.47,7.09,7.09,0,0,1-2-.39c-5.16-1.68-10.43-3.4-14.93-6.45a3.68,3.68,0,0,1-1.95-2.54,4.13,4.13,0,0,1,.62-2c1.92-3.56,7.23-16.54,11.73-17.63,2-.51,3.63,1.8,5.12,4.69,1.68,3.44,3.13,7.74,4.5,9.22a4,4,0,0,1,.89,1.41A4,4,0,0,1,281.34,199.14Z" transform="translate(-17.99 -1.36)" fill="url(#linear-gradient-12)"></path><path d="M281.34,199.14c-.59,3.2-1.14,6.45-1.72,9.65a3.41,3.41,0,0,1-.9,2.11,1.92,1.92,0,0,1-1.29.47,7,7,0,0,1-4-3.52,18.06,18.06,0,0,1-1.6-5.78c-.63-4.46-1.06-9.27.11-13.64.55-2.08,2.19-2.08,4-1.41,1.68,3.44,3.13,7.74,4.5,9.22a4,4,0,0,1,.89,1.41A4,4,0,0,1,281.34,199.14Z" transform="translate(-17.99 -1.36)" fill="url(#linear-gradient-13)"></path><path d="M253.91,202.84a6,6,0,0,0-3,1c-1.45,1.18-1.59,3.3-1.75,5.16-1.54,18.18-15.48,33.48-17.26,51.64-.58,5.87.16,11.77.64,17.65a205.94,205.94,0,0,1-.09,34.59c-.68,7.71-1.74,15.77,1.11,23,1.12,2.83,3.42,5.75,6.45,5.57a8.82,8.82,0,0,0,3.62-1.35L284,317.65c1.59-.88,3.28-1.88,4-3.56,1.24-3-1.35-6.09-3.39-8.63a34.38,34.38,0,0,1-7.44-23.79c.71-5.67,1.89-13.24,4.77-14.89s6.08,1.84,6.88-1.37c2.23-9,2.64-6.81,2.29-16.94a99,99,0,0,0-3.63-23.32,29.14,29.14,0,0,0-3.79-9.05C277,206.77,265.2,201.33,253.91,202.84Z" transform="translate(-17.99 -1.36)" fill="#3b82f6"></path><path d="M253.91,202.84a6,6,0,0,0-3,1c-1.45,1.18-1.59,3.3-1.75,5.16-1.54,18.18-15.48,33.48-17.26,51.64-.58,5.87.16,11.77.64,17.65a205.94,205.94,0,0,1-.09,34.59c-.68,7.71-1.74,15.77,1.11,23,1.12,2.83,3.42,5.75,6.45,5.57a8.82,8.82,0,0,0,3.62-1.35L284,317.65c1.59-.88,3.28-1.88,4-3.56,1.24-3-1.35-6.09-3.39-8.63a34.38,34.38,0,0,1-7.44-23.79c2.29-18.19,14.57-18.95,14.25-25.75-.52-10.86-1.26-21.82-4.37-32.24a25.67,25.67,0,0,0-3.36-7.58C277,206.77,265.2,201.33,253.91,202.84Z" transform="translate(-17.99 -1.36)" fill="url(#linear-gradient-14)"></path><path d="M329.59,230.84a8.8,8.8,0,0,1,.27-2.12,6.91,6.91,0,0,1,1.65-2.5,27.13,27.13,0,0,1,14-7.95,1.93,1.93,0,0,1,.71,2.77,10.32,10.32,0,0,1-1.13,1.05c-1.61,1.64-.72,4.35-.81,6.65-.18,4.42-4.17,7.54-6.89,11-4.08,5.25-5.6,12.23-10,17.2-1.77,2-6,4.76-8.36,1.9-1.74-2.12.88-5.33,2.09-7C325.64,245.37,329.13,238.93,329.59,230.84Z" transform="translate(-17.99 -1.36)" fill="url(#linear-gradient-15)"></path><path d="M344.54,341.32c1.44,1,3,2.11,3.39,3.79a6.17,6.17,0,0,1-.43,3.56c-1.62,4.49-4.82,8.19-8,11.72a342.2,342.2,0,0,1-52.61,47c-1,.75-2.26,1.54-3.52,1.27a3.21,3.21,0,0,1-2.17-3.37,9.39,9.39,0,0,1,1.53-4q9.51-16.85,17.63-34.41c1.87-4,3.71-8.24,3.84-12.69q-23.26-1.06-46.47-3c-5.48-.45-11.52-1.21-15.17-5.33a6.12,6.12,0,0,1-1.55-2.87,7.47,7.47,0,0,1,1-4.42,33.05,33.05,0,0,1,21.92-17.7c3.65-.86,7.47-1.08,11-2.35,2.91-1.05,5.55-3.1,8.74-3.26,5.7-.28,13,3.4,18.35,5.16A172.2,172.2,0,0,1,344.54,341.32Z" transform="translate(-17.99 -1.36)" fill="#606161"></path><path d="M344.54,341.32c1.44,1,3,2.11,3.39,3.79a6.17,6.17,0,0,1-.43,3.56c-1.62,4.49-4.82,8.19-8,11.72a342.2,342.2,0,0,1-52.61,47c-1,.75-2.26,1.54-3.52,1.27a3.21,3.21,0,0,1-2.17-3.37,9.39,9.39,0,0,1,1.53-4q9.51-16.85,17.63-34.41c1.87-4,3.71-8.24,3.84-12.69q-23.26-1.06-46.47-3c-5.48-.45-11.52-1.21-15.17-5.33a6.12,6.12,0,0,1-1.55-2.87,7.47,7.47,0,0,1,1-4.42,33.05,33.05,0,0,1,21.92-17.7c3.65-.86,7.47-1.08,11-2.35,2.91-1.05,5.55-3.1,8.74-3.26,5.7-.28,13,3.4,18.35,5.16A172.2,172.2,0,0,1,344.54,341.32Z" transform="translate(-17.99 -1.36)" fill="url(#linear-gradient-16)"></path><path d="M217.05,269.87c-3.89.38-7.27,3-9.4,6.3s-3.17,7.13-4,10.94c-2.95,13.87-3.19,28.88,2.94,41.66,1.51,3.15,3.72,6.37,7.11,7.2,4.37,1.06,8.63-2.38,10.94-6.25,4.46-7.48,4.57-16.68,4.55-25.39l0-17.34C229.16,279.57,226.7,268.93,217.05,269.87Z" transform="translate(-17.99 -1.36)" fill="#606161"></path><path d="M212.46,287.67c-2.94,13.22-1.66,27.59,4.84,39.47,1.3,2.38,3.48,5,6.14,4.42a6,6,0,0,0,3.46-2.81A20.89,20.89,0,0,0,230,321.5a40.76,40.76,0,0,0,.69-7.4c.37-11,.74-22.08-.28-33.06a14.53,14.53,0,0,0-1.67-6.44c-3.06-5-7.66-3.2-10.68.45S213.46,283.19,212.46,287.67Z" transform="translate(-17.99 -1.36)" fill="#606161"></path><path d="M212.46,287.67c-2.94,13.22-1.66,27.59,4.84,39.47,1.3,2.38,3.48,5,6.14,4.42a6,6,0,0,0,3.46-2.81A20.89,20.89,0,0,0,230,321.5a40.76,40.76,0,0,0,.69-7.4c.37-11,.74-22.08-.28-33.06a14.53,14.53,0,0,0-1.67-6.44c-3.06-5-7.66-3.2-10.68.45S213.46,283.19,212.46,287.67Z" transform="translate(-17.99 -1.36)" fill="url(#linear-gradient-17)"></path><path d="M296.92,241.62c3.24,2.6,7.33,4.58,11.45,4,4.28-.6,8-3.86,12.31-3.8a20.93,20.93,0,0,1-3.14,9.92c-2.27,3.63-5.59,6.47-8.86,9.25l-7.46,6.33c-1.06.9-2.32,1.86-3.69,1.64a3.94,3.94,0,0,1-1.85-1c-2.93-2.48-4.17-6.38-5.23-10.07-.9-3.16-1.77-6.32-2.64-9.49a18.76,18.76,0,0,1-.89-4.86c0-2.46.64-7.53,1.89-9.36C291.81,236.22,294.08,239.36,296.92,241.62Z" transform="translate(-17.99 -1.36)" fill="#3b82f6"></path><path d="M296.92,241.62c3.24,2.6,7.33,4.58,11.45,4,4.28-.6,8-3.86,12.31-3.8a20.93,20.93,0,0,1-3.14,9.92c-2.27,3.63-5.59,6.47-8.86,9.25l-7.46,6.33c-1.06.9-2.32,1.86-3.69,1.64a3.94,3.94,0,0,1-1.85-1c-2.93-2.48-4.17-6.38-5.23-10.07-.9-3.16-1.77-6.32-2.64-9.49a18.76,18.76,0,0,1-.89-4.86c0-2.46.64-7.53,1.89-9.36C291.81,236.22,294.08,239.36,296.92,241.62Z" transform="translate(-17.99 -1.36)" fill="url(#linear-gradient-18)"></path><polygon points="375.51 167.65 382.85 176.82 314.61 320.27 303.97 316.6 375.51 167.65" fill="#3b82f6"></polygon><polygon points="375.51 167.65 382.85 176.82 314.61 320.27 303.97 316.6 375.51 167.65" fill="url(#linear-gradient-19)"></polygon><rect x="383.21" y="53.92" width="137.95" height="203.98" fill="url(#linear-gradient-20)"></rect><rect x="356.43" y="246.4" width="80.97" height="119.73" fill="#3b82f6"></rect><rect x="356.43" y="246.4" width="80.97" height="119.73" fill="url(#linear-gradient-21)"></rect><path d="M301.69,179.24c-.56,3.13-2.82,6-2.32,9.14.29,1.78,1.38,3.87.13,5.17a6,6,0,0,1-1.51.93c-2.15,1.2-3.17,3.69-4.15,6s-2.35,4.69-4.72,5.39c-1.9.56-3.94-.17-5.67-1.12a23,23,0,0,1-11.17-24.12c1-4.61,3.59-9.08,7.77-11.24C287.07,165.73,303.63,168.45,301.69,179.24Z" transform="translate(-17.99 -1.36)" fill="url(#linear-gradient-22)"></path><path d="M304.21,177.76c-1,1.44-2.77,2.78-4.4,2.12s-2.11-2.6-3.66-3c-1.74-.43-3.25,1.45-5,1.54a10.62,10.62,0,0,1-2.74-.61,7.27,7.27,0,0,0-6.59,2.42,21.23,21.23,0,0,0-3.69,6.31,5.94,5.94,0,0,1-2-5.41,7.85,7.85,0,0,0-5.39,6.32c-.26,1.93,0,4.39-1.74,5.3a4.35,4.35,0,0,1-2.06.34l-7.15,0c-2.57,0-5.69-.31-6.77-2.64-.8-1.74,0-3.76.78-5.49,3.5-7.5,7.71-14.81,13.64-20.59s13.78-9.91,22.06-10.08C299.79,154.13,310.92,168.3,304.21,177.76Z" transform="translate(-17.99 -1.36)" fill="#606161"></path><path d="M304.21,177.76c-1,1.44-2.77,2.78-4.4,2.12s-2.11-2.6-3.66-3c-1.74-.43-3.25,1.45-5,1.54a10.62,10.62,0,0,1-2.74-.61,7.27,7.27,0,0,0-6.59,2.42,21.23,21.23,0,0,0-3.69,6.31,5.94,5.94,0,0,1-2-5.41,7.85,7.85,0,0,0-5.39,6.32c-.26,1.93,0,4.39-1.74,5.3a4.35,4.35,0,0,1-2.06.34l-7.15,0c-2.57,0-5.69-.31-6.77-2.64-.8-1.74,0-3.76.78-5.49,3.5-7.5,7.71-14.81,13.64-20.59s13.78-9.91,22.06-10.08C299.79,154.13,310.92,168.3,304.21,177.76Z" transform="translate(-17.99 -1.36)" fill="url(#linear-gradient-23)"></path><path d="M258.29,153.54c-2.45.92-5,2-6.57,4.09a13.77,13.77,0,0,0-2.09,5.3c-.86,3.75-1.33,8.2,1.34,11,2.87,3,8.18,2.65,10.72,5.91a4.14,4.14,0,0,0,1.19,1.27,2.73,2.73,0,0,0,1.33.19c7.67-.35,12.88-7.62,19.38-11.7a25.18,25.18,0,0,1,13.21-3.84c2.44,0,5,.33,7.28-.43s4.39-3.13,3.74-5.48c-.54-2-2.39-2.63-3.71-3.94s-1.63-2.88-2.81-4c-2.88-2.83-9.68-3.32-13.48-3.61C277.75,147.49,267.64,150,258.29,153.54Z" transform="translate(-17.99 -1.36)" fill="#3b82f6"></path><path d="M307.88,161a5.38,5.38,0,0,1-3.79,4.34c-2.35.75-4.85.43-7.27.43a25,25,0,0,0-13.22,3.83c-6.53,4.07-11.72,11.34-19.39,11.69a2.22,2.22,0,0,1-1.33-.19,5,5,0,0,1-1.21-1.25c-2.54-3.29-7.82-2.94-10.71-5.91-2.66-2.77-2.19-7.23-1.33-11a19.8,19.8,0,0,1,1-3.36,7.24,7.24,0,0,1,1.09-2c1.57-2.07,4.11-3.16,6.53-4.06,9.38-3.56,19.47-6.06,29.55-5.32,3.8.27,10.6.78,13.49,3.6,1.17,1.17,1.56,2.81,2.81,4.06s3.17,2,3.68,3.91A2.33,2.33,0,0,1,307.88,161Z" transform="translate(-17.99 -1.36)" fill="url(#linear-gradient-24)"></path><path d="M265.07,216.68c2.36-2,5.88,0,8.21,2a55.67,55.67,0,0,1,7.52,7.6c8.71,11,10.6,26.3,19.3,37.35,3.75-1,6.07-4.58,8.31-7.73s5.4-6.4,9.26-6.06c4.49.39,7,5.28,8.51,9.53a5.87,5.87,0,0,1,.49,3.28,6,6,0,0,1-1.76,2.62l-14.14,14.5c-2.86,2.94-6,6-10.1,6.59a12.54,12.54,0,0,1-9-2.79,37.31,37.31,0,0,1-6.59-7.09L270.65,258c-4.22-5.43-8.53-11-10.64-17.55s-1.61-14.37,3-19.46" transform="translate(-17.99 -1.36)" fill="#3b82f6"></path><path d="M307.88,161a5.38,5.38,0,0,1-3.79,4.34c-2.35.75-4.85.43-7.27.43a25,25,0,0,0-13.22,3.83c-6.53,4.07-11.72,11.34-19.39,11.69a2.22,2.22,0,0,1-1.33-.19,5,5,0,0,1-1.21-1.25c-2.54-3.29-7.82-2.94-10.71-5.91-2.66-2.77-2.19-7.23-1.33-11a19.8,19.8,0,0,1,1-3.36,11.23,11.23,0,0,1,2.07,2.26,11,11,0,0,0,7.58,3.52,33.11,33.11,0,0,0,8.57-.7,5,5,0,0,0-.32,4.1,33.07,33.07,0,0,1,19-6.06c3.44,0,6.84.51,10.24.47a20.72,20.72,0,0,0,5.83-.86c1.05-.35,3-1.72,4.14-1.37C307.8,160.94,307.84,161,307.88,161Z" transform="translate(-17.99 -1.36)" fill="url(#linear-gradient-25)"></path><rect x="392.94" y="94.82" width="114.36" height="18.84" fill="#3b82f6"></rect><rect x="37.98" y="99.04" width="137.95" height="203.98" fill="#3b82f6"></rect><rect x="38.51" y="98.99" width="137.42" height="206.24" fill="url(#linear-gradient-26)"></rect><path d="M87.08,167.19c-1.45,3.49-.75,8.19,2.54,10.05,4.08,2.31,9.1-.86,12.23-4.35-6.33,18.82-4.3,40.61-15.2,57.22-2.72,4.15-6.27,8.06-7,13s3.47,10.83,8.22,9.39c1.45-.44,2.71-1.5,4.22-1.65,3.13-.32,5.54,3.29,8.68,3.27,1.44,0,2.75-.8,4.13-1.21,3.88-1.15,7.93.67,11.86,1.62s9.06.42,10.63-3.3c1.07,3,5,3.56,8.18,3.63l9.62.21c2.08,0,4.35,0,6-1.25,1.94-1.53,2.32-4.4,1.72-6.8s-2-4.5-3-6.74c-3.92-8.23-3.33-17.79-4.61-26.82-1.89-13.42-8-27.11-3.81-40l7.22,8.73a6,6,0,0,0,1.71,1.58,4.45,4.45,0,0,0,3.59-.05c4.79-1.84,7-7.66,6.42-12.75s-3.41-9.62-6.14-14L147.9,146.9a6.88,6.88,0,0,0-1.83-2.17,7,7,0,0,0-3.79-.87l-21.9-.78c-8.82-.32-13.17,1.09-18.12,7.79C98,156.68,89.94,160.32,87.08,167.19Z" transform="translate(-17.99 -1.36)" fill="#3b82f6" opacity="0.45"></path></svg>