<svg id="Layer_1" data-name="Layer 1" xmlns="http://www.w3.org/2000/svg" xmlns:xlink="http://www.w3.org/1999/xlink" viewBox="0 0 497.67 405.02" width="406" height="306" class="illustration styles_illustrationTablet__1DWOa"><defs><linearGradient id="linear-gradient" x1="263.68" y1="-88.5" x2="291.59" y2="855.62" gradientUnits="userSpaceOnUse"><stop offset="0" stop-color="#010101" stop-opacity="0"></stop><stop offset="0.95" stop-color="#010101"></stop></linearGradient><linearGradient id="linear-gradient-2" x1="237.6" y1="17.6" x2="253.68" y2="17.6" gradientUnits="userSpaceOnUse"><stop offset="0" stop-color="#fff" stop-opacity="0"></stop><stop offset="0.95" stop-color="#fff"></stop></linearGradient><linearGradient id="linear-gradient-3" x1="80.25" y1="107.84" x2="96.33" y2="107.84" xlink:href="#linear-gradient-2"></linearGradient><linearGradient id="linear-gradient-4" x1="146.87" y1="43.19" x2="162.95" y2="43.19" xlink:href="#linear-gradient-2"></linearGradient><linearGradient id="linear-gradient-5" x1="49.3" y1="197.73" x2="65.38" y2="197.73" xlink:href="#linear-gradient-2"></linearGradient><linearGradient id="linear-gradient-6" x1="263.34" y1="-701.12" x2="279.41" y2="-701.12" gradientTransform="matrix(1, 0, 0, -1, -25.74, -314.24)" xlink:href="#linear-gradient-2"></linearGradient><linearGradient id="linear-gradient-7" x1="105.99" y1="-610.88" x2="122.06" y2="-610.88" gradientTransform="matrix(1, 0, 0, -1, -25.74, -314.24)" xlink:href="#linear-gradient-2"></linearGradient><linearGradient id="linear-gradient-8" x1="172.61" y1="-675.52" x2="188.68" y2="-675.52" gradientTransform="matrix(1, 0, 0, -1, -25.74, -314.24)" xlink:href="#linear-gradient-2"></linearGradient><linearGradient id="linear-gradient-9" x1="5760.54" y1="108.55" x2="5776.61" y2="108.55" gradientTransform="matrix(-1, 0, 0, 1, 6172.56, -0.71)" xlink:href="#linear-gradient-2"></linearGradient><linearGradient id="linear-gradient-10" x1="5827.16" y1="43.9" x2="5843.24" y2="43.9" gradientTransform="matrix(-1, 0, 0, 1, 6172.56, -0.71)" xlink:href="#linear-gradient-2"></linearGradient><linearGradient id="linear-gradient-11" x1="5760.54" y1="-610.88" x2="5776.61" y2="-610.88" gradientTransform="translate(6172.56 -314.24) rotate(180)" xlink:href="#linear-gradient-2"></linearGradient><linearGradient id="linear-gradient-12" x1="5827.16" y1="-675.52" x2="5843.24" y2="-675.52" gradientTransform="translate(6172.56 -314.24) rotate(180)" xlink:href="#linear-gradient-2"></linearGradient><linearGradient id="linear-gradient-13" x1="386.69" y1="140.97" x2="569.98" y2="326.53" xlink:href="#linear-gradient"></linearGradient><linearGradient id="linear-gradient-14" x1="263.69" y1="245.53" x2="223.09" y2="358.05" gradientTransform="translate(109.91 -59.93) rotate(18.36)" xlink:href="#linear-gradient-2"></linearGradient><linearGradient id="linear-gradient-15" x1="243.36" y1="178.67" x2="240.83" y2="319.1" xlink:href="#linear-gradient"></linearGradient><linearGradient id="linear-gradient-16" x1="239.4" y1="226.37" x2="241.66" y2="153.61" xlink:href="#linear-gradient"></linearGradient><linearGradient id="linear-gradient-17" x1="156.1" y1="190.1" x2="157.79" y2="94.51" xlink:href="#linear-gradient"></linearGradient><linearGradient id="linear-gradient-18" x1="244.05" y1="191.66" x2="245.74" y2="96.06" xlink:href="#linear-gradient"></linearGradient><linearGradient id="linear-gradient-19" x1="332.01" y1="193.22" x2="333.7" y2="97.62" xlink:href="#linear-gradient"></linearGradient><linearGradient id="linear-gradient-20" x1="181.83" y1="-481.92" x2="183.52" y2="-577.51" gradientTransform="matrix(1, 0, 0, -1, -25.74, -254.97)" xlink:href="#linear-gradient"></linearGradient><linearGradient id="linear-gradient-21" x1="269.79" y1="-480.36" x2="271.48" y2="-575.95" gradientTransform="matrix(1, 0, 0, -1, -25.74, -254.97)" xlink:href="#linear-gradient"></linearGradient><linearGradient id="linear-gradient-22" x1="357.74" y1="-478.8" x2="359.43" y2="-574.4" gradientTransform="matrix(1, 0, 0, -1, -25.74, -254.97)" xlink:href="#linear-gradient"></linearGradient><linearGradient id="linear-gradient-23" x1="431.39" y1="54.79" x2="442.67" y2="124.16" xlink:href="#linear-gradient"></linearGradient><linearGradient id="linear-gradient-24" x1="209.36" y1="96.26" x2="330.02" y2="96.26" xlink:href="#linear-gradient-2"></linearGradient><linearGradient id="linear-gradient-25" x1="236.28" y1="116.8" x2="251.63" y2="116.8" xlink:href="#linear-gradient-2"></linearGradient><linearGradient id="linear-gradient-26" x1="210.51" y1="116.8" x2="222.01" y2="116.8" xlink:href="#linear-gradient-2"></linearGradient><linearGradient id="linear-gradient-27" x1="265.9" y1="116.8" x2="277.4" y2="116.8" xlink:href="#linear-gradient-2"></linearGradient><linearGradient id="linear-gradient-28" x1="211.81" y1="78.99" x2="222.46" y2="78.99" xlink:href="#linear-gradient-2"></linearGradient><linearGradient id="linear-gradient-29" x1="291.36" y1="78.56" x2="302.01" y2="78.56" xlink:href="#linear-gradient-2"></linearGradient><linearGradient id="linear-gradient-30" x1="237.03" y1="70.93" x2="250.88" y2="70.93" xlink:href="#linear-gradient-2"></linearGradient><linearGradient id="linear-gradient-31" x1="160.37" y1="160.23" x2="161.5" y2="38.41" xlink:href="#linear-gradient-2"></linearGradient><linearGradient id="linear-gradient-32" x1="326.59" y1="161.77" x2="327.72" y2="39.95" xlink:href="#linear-gradient-2"></linearGradient><linearGradient id="linear-gradient-33" x1="285.43" y1="305.15" x2="230.87" y2="369.86" xlink:href="#linear-gradient"></linearGradient><linearGradient id="linear-gradient-34" x1="285.55" y1="322.8" x2="363.46" y2="322.8" xlink:href="#linear-gradient"></linearGradient><linearGradient id="linear-gradient-35" x1="193.31" y1="329.46" x2="228.72" y2="329.46" xlink:href="#linear-gradient"></linearGradient><linearGradient id="linear-gradient-36" x1="138.08" y1="312.51" x2="181.5" y2="312.51" xlink:href="#linear-gradient"></linearGradient><linearGradient id="linear-gradient-37" x1="370.49" y1="301.26" x2="408.58" y2="301.26" xlink:href="#linear-gradient"></linearGradient></defs><title>winning slot machine</title><path d="M136.41,40.85c-16.56,16-27.27,37-40.68,55.7C70.37,132,33.62,162.72,26.81,205.75c-4.58,28.95,5.91,58.68,22.56,82.81s39.11,43.56,61.37,62.62c13,11.16,26.4,22.48,42.35,28.79,25.58,10.11,54.55,6.06,81.06-1.3s52.39-17.94,79.77-20.66c33.79-3.36,67.66,5.45,101.6,4.81s71.87-14.74,83.72-46.56c8.26-22.17,1.72-46.88,3.45-70.48,2.51-34.09,22.33-65.85,20.61-100-1.72-33.89-24.43-63.07-49.47-86-19.6-17.93-41.92-33.94-67.62-40.64-22.26-5.81-45.68-4.32-68.62-2.79-39.36,2.63-78.77,6.15-118.17,7.89C187.15,25.68,163.92,14.22,136.41,40.85Z" transform="translate(-25.74 -0.71)" fill="#2563eb" opacity="0.4" style="isolation: isolate;"></path><path d="M272.3.71C160.44.71,69.79,91.39,69.79,203.22S160.44,405.73,272.3,405.73s202.51-90.65,202.51-202.51S384.13.71,272.3.71Zm0,368.33A165.81,165.81,0,1,1,438.1,203.22,165.82,165.82,0,0,1,272.3,369Z" transform="translate(-25.74 -0.71)" fill="#2563eb"></path><path d="M272.3.71C160.44.71,69.79,91.39,69.79,203.22S160.44,405.73,272.3,405.73s202.51-90.65,202.51-202.51S384.13.71,272.3.71Zm0,368.33A165.81,165.81,0,1,1,438.1,203.22,165.82,165.82,0,0,1,272.3,369Z" transform="translate(-25.74 -0.71)" fill="url(#linear-gradient)"></path><circle cx="245.64" cy="17.6" r="8.04" fill="url(#linear-gradient-2)"></circle><circle cx="88.29" cy="107.84" r="8.04" fill="url(#linear-gradient-3)"></circle><circle cx="154.91" cy="43.19" r="8.04" fill="url(#linear-gradient-4)"></circle><circle cx="57.34" cy="197.73" r="8.04" fill="url(#linear-gradient-5)"></circle><circle cx="245.64" cy="386.88" r="8.04" fill="url(#linear-gradient-6)"></circle><circle cx="88.29" cy="296.64" r="8.04" fill="url(#linear-gradient-7)"></circle><circle cx="154.91" cy="361.28" r="8.04" fill="url(#linear-gradient-8)"></circle><circle cx="403.98" cy="107.84" r="8.04" fill="url(#linear-gradient-9)"></circle><circle cx="337.36" cy="43.19" r="8.04" fill="url(#linear-gradient-10)"></circle><circle cx="403.98" cy="296.64" r="8.04" fill="url(#linear-gradient-11)"></circle><circle cx="337.36" cy="361.28" r="8.04" fill="url(#linear-gradient-12)"></circle><path d="M470,196.9c-2.26,7.22-8.23,13.83-15.77,14.43.67,5.87,1.31,12-.69,17.54-.95,2.62-2.46,5-3.16,7.73-1.2,4.61.08,9.63-1.33,14.18-2.3,7.49-11,11.08-18.77,11.62a5.57,5.57,0,0,1-3.21-.47c-1.92-1.13-1.92-3.86-1.68-6.08l4.34-40.58c.41-3.78.87-7.72,3-10.87,3.47-5.14,10.19-6.68,15.53-9.85,9-5.33,14.12-15.67,15.65-26s0-20.9-1.57-31.25a80.26,80.26,0,0,1,8.87,31.36C471.82,177.63,472.68,188.25,470,196.9Z" transform="translate(-25.74 -0.71)" fill="url(#linear-gradient-13)"></path><path d="M438.1,203.22A165.81,165.81,0,1,1,272.3,37.42,165.8,165.8,0,0,1,438.1,203.22Z" transform="translate(-25.74 -0.71)" fill="#2563eb" opacity="0.47"></path><rect x="223.13" y="285.04" width="34.5" height="50.19" rx="5.99" transform="translate(-111.18 90.79) rotate(-18.36)" fill="#2563eb"></rect><rect x="223.13" y="285.04" width="34.5" height="50.19" rx="5.99" transform="translate(-111.18 90.79) rotate(-18.36)" fill="url(#linear-gradient-14)"></rect><path d="M446.81,200.65h-9.48a4.51,4.51,0,1,1,0-9h9.48a10.13,10.13,0,0,0,10.12-10.12V85.75a4.51,4.51,0,1,1,9,0v95.77A19.15,19.15,0,0,1,446.81,200.65Z" transform="translate(-25.74 -0.71)" fill="#2563eb"></path><rect x="72.35" y="155.68" width="340.93" height="106.59" rx="18.19" fill="#2563eb"></rect><rect x="72.35" y="155.68" width="340.93" height="106.59" rx="18.19" fill="url(#linear-gradient-15)"></rect><rect x="58.21" y="177.54" width="363.77" height="52.45" rx="10.3" fill="#2563eb"></rect><rect x="58.21" y="177.54" width="363.77" height="52.45" rx="10.3" fill="url(#linear-gradient-16)"></rect><rect x="118.88" y="140.17" width="74.45" height="138.18" rx="11.43" fill="#2563eb"></rect><rect x="122.97" y="144.77" width="65.6" height="127.52" rx="10.31" fill="#fff"></rect><rect x="206.86" y="140.17" width="74.45" height="138.18" rx="11.43" fill="#2563eb"></rect><rect x="210.95" y="144.77" width="65.6" height="127.52" rx="10.31" fill="#fff"></rect><rect x="294.84" y="140.17" width="74.45" height="138.18" rx="11.43" fill="#2563eb"></rect><rect x="298.93" y="144.77" width="65.6" height="127.52" rx="10.31" fill="#fff"></rect><rect x="122.97" y="144.77" width="65.6" height="127.52" rx="10.31" fill="url(#linear-gradient-17)"></rect><rect x="210.95" y="144.77" width="65.6" height="127.52" rx="10.31" fill="url(#linear-gradient-18)"></rect><rect x="298.93" y="144.77" width="65.6" height="127.52" rx="10.31" fill="url(#linear-gradient-19)"></rect><rect x="122.97" y="144.77" width="65.6" height="127.52" rx="10.31" fill="url(#linear-gradient-20)"></rect><rect x="210.95" y="144.77" width="65.6" height="127.52" rx="10.31" fill="url(#linear-gradient-21)"></rect><rect x="298.93" y="144.77" width="65.6" height="127.52" rx="10.31" fill="url(#linear-gradient-22)"></rect><path d="M170.94,238.52a9.08,9.08,0,0,1-1.39-.18,6.76,6.76,0,0,1-2.06-.74A6.28,6.28,0,0,1,165.6,236a4.22,4.22,0,0,1-.82-2.7V233a2.37,2.37,0,0,1,.05-.42,47.31,47.31,0,0,1,2.61-9.18,81.24,81.24,0,0,1,4.37-9.33c1.71-3.14,3.63-6.32,5.79-9.55s4.45-6.54,6.9-9.9l-3.84-1.22-2.58-.81-2-.63a6.83,6.83,0,0,0-2.08-.29c-1.07,0-1.94,0-2.64,0a5.45,5.45,0,0,0-1.76.34,3.82,3.82,0,0,0-1.29.87,10.86,10.86,0,0,0-1.27,1.65,27.43,27.43,0,0,1-2.58,3.41,2.9,2.9,0,0,1-1.89,1.09,1.14,1.14,0,0,1-1.12-.73,4.63,4.63,0,0,1-.32-1.91c0-.33,0-.68,0-1.07s.08-.77.15-1.16a24.47,24.47,0,0,1,2.14-7,13.41,13.41,0,0,1,3.1-4.14,9.36,9.36,0,0,1,3.58-2,12.74,12.74,0,0,1,3.45-.52,13.92,13.92,0,0,1,2.37.64l4.13,1.33,4.27,1.36a14.89,14.89,0,0,0,4.24.74c.66,0,1.26.05,1.81.05H192c1.33,0,2.38,0,3.16-.09a9.36,9.36,0,0,0,1.78-.27,5.1,5.1,0,0,0,.9-.3,1.2,1.2,0,0,1,.42-.13,2.72,2.72,0,0,1,2.51,1.25,6.33,6.33,0,0,1,.77,3.36,15.18,15.18,0,0,1-.3,2.89c0,.2-.3.51-.79.93s-1.07.85-1.72,1.32-1.3.92-2,1.37l-1.54,1a64.58,64.58,0,0,0-5.51,8.82,80.51,80.51,0,0,0-3.93,9q-1.68,4.65-3.18,9.72t-3.22,10.91a4.35,4.35,0,0,1-1.4,2.2,6.72,6.72,0,0,1-2.21,1.21,11.66,11.66,0,0,1-2.51.52C172.36,238.47,171.6,238.52,170.94,238.52Z" transform="translate(-25.74 -0.71)" fill="#2563eb"></path><path d="M261,238.52a9.08,9.08,0,0,1-1.39-.18,6.76,6.76,0,0,1-2.06-.74A6,6,0,0,1,255.7,236a4.16,4.16,0,0,1-.82-2.7V233a2.37,2.37,0,0,1,.05-.42,47.31,47.31,0,0,1,2.61-9.18,81.24,81.24,0,0,1,4.37-9.33q2.55-4.71,5.79-9.55t6.9-9.9l-3.85-1.22-2.57-.81-2-.63a6.94,6.94,0,0,0-2.09-.29c-1.06,0-1.94,0-2.63,0a5.39,5.39,0,0,0-1.76.34,3.82,3.82,0,0,0-1.29.87,10.86,10.86,0,0,0-1.27,1.65,27.43,27.43,0,0,1-2.58,3.41,2.9,2.9,0,0,1-1.89,1.09,1.14,1.14,0,0,1-1.12-.73,4.63,4.63,0,0,1-.32-1.91,10.28,10.28,0,0,1,.05-1.07c0-.38.08-.77.14-1.16a24.79,24.79,0,0,1,2.14-7,13.56,13.56,0,0,1,3.1-4.14,9.5,9.5,0,0,1,3.58-2,12.85,12.85,0,0,1,3.45-.52,13.9,13.9,0,0,1,2.38.64l4.13,1.33,4.27,1.36a14.82,14.82,0,0,0,4.23.74c.66,0,1.27.05,1.82.05h1.51q2,0,3.15-.09a9.35,9.35,0,0,0,1.79-.27,5.1,5.1,0,0,0,.9-.3,1.2,1.2,0,0,1,.42-.13,2.74,2.74,0,0,1,2.51,1.25,6.33,6.33,0,0,1,.77,3.36,15.18,15.18,0,0,1-.3,2.89c0,.2-.3.51-.79.93s-1.07.85-1.72,1.32-1.3.92-2,1.37l-1.54,1a63.61,63.61,0,0,0-5.51,8.82,78.72,78.72,0,0,0-3.93,9q-1.69,4.65-3.18,9.72t-3.23,10.91a4.27,4.27,0,0,1-1.39,2.2,6.72,6.72,0,0,1-2.21,1.21,11.78,11.78,0,0,1-2.51.52C262.46,238.47,261.7,238.52,261,238.52Z" transform="translate(-25.74 -0.71)" fill="#2563eb"></path><path d="M350.71,238.52a9.08,9.08,0,0,1-1.39-.18,6.76,6.76,0,0,1-2.06-.74,6.28,6.28,0,0,1-1.89-1.58,4.22,4.22,0,0,1-.82-2.7V233a2.37,2.37,0,0,1,.05-.42,47.31,47.31,0,0,1,2.61-9.18,83,83,0,0,1,4.37-9.33c1.71-3.14,3.63-6.32,5.79-9.55s4.45-6.54,6.9-9.9l-3.84-1.22-2.57-.81-2-.63a6.83,6.83,0,0,0-2.08-.29c-1.07,0-1.94,0-2.64,0a5.45,5.45,0,0,0-1.76.34,3.82,3.82,0,0,0-1.29.87,11.55,11.55,0,0,0-1.27,1.65,26.47,26.47,0,0,1-2.58,3.41,2.88,2.88,0,0,1-1.89,1.09,1.12,1.12,0,0,1-1.11-.73,4.62,4.62,0,0,1-.33-1.91c0-.33,0-.68.05-1.07s.08-.77.15-1.16a24.47,24.47,0,0,1,2.14-7,13.41,13.41,0,0,1,3.1-4.14,9.43,9.43,0,0,1,3.58-2,12.74,12.74,0,0,1,3.45-.52,13.67,13.67,0,0,1,2.37.64l4.13,1.33,4.27,1.36a14.89,14.89,0,0,0,4.24.74c.66,0,1.26.05,1.81.05h1.51c1.33,0,2.38,0,3.16-.09a9.49,9.49,0,0,0,1.79-.27,5.23,5.23,0,0,0,.89-.3,1.2,1.2,0,0,1,.42-.13,2.72,2.72,0,0,1,2.51,1.25,6.24,6.24,0,0,1,.77,3.36,15.18,15.18,0,0,1-.3,2.89c0,.2-.3.51-.79.93s-1.07.85-1.71,1.32-1.3.92-2,1.37L375,196a64.58,64.58,0,0,0-5.51,8.82,78.66,78.66,0,0,0-3.92,9q-1.69,4.65-3.18,9.72t-3.23,10.91a4.33,4.33,0,0,1-1.39,2.2,6.72,6.72,0,0,1-2.21,1.21,11.91,11.91,0,0,1-2.51.52C352.13,238.47,351.37,238.52,350.71,238.52Z" transform="translate(-25.74 -0.71)" fill="#2563eb"></path><circle cx="435.28" cy="78.7" r="19.88" fill="#2563eb"></circle><circle cx="435.28" cy="78.7" r="19.88" fill="url(#linear-gradient-23)"></circle><path d="M330,79.23a7.56,7.56,0,1,0-9.91,7.15c-2.54,4.43-11.22,17.51-25.31,17.51-14.82,0-21.09-18.93-22.43-23.68a9.39,9.39,0,1,0-5,.2c-1.27,5.19-7,24.49-21.06,24.49-13,0-22.82-13.49-26.19-18.85a7.55,7.55,0,1,0-5,.51l13.21,44.11h83.4l12.41-44.09A7.54,7.54,0,0,0,330,79.23Z" transform="translate(-25.74 -0.71)" fill="#2563eb"></path><path d="M330,79.23a7.56,7.56,0,1,0-9.91,7.15c-2.54,4.43-11.22,17.51-25.31,17.51-14.82,0-21.09-18.93-22.43-23.68a9.39,9.39,0,1,0-5,.2c-1.27,5.19-7,24.49-21.06,24.49-13,0-22.82-13.49-26.19-18.85a7.55,7.55,0,1,0-5,.51l13.21,44.11h83.4l12.41-44.09A7.54,7.54,0,0,0,330,79.23Z" transform="translate(-25.74 -0.71)" fill="url(#linear-gradient-24)"></path><polygon points="247.79 110.14 240.12 110.14 236.28 116.8 240.12 123.45 247.79 123.45 251.63 116.8 247.79 110.14" fill="#2563eb"></polygon><polygon points="219.13 111.81 213.38 111.81 210.51 116.8 213.38 121.78 219.13 121.78 222.01 116.8 219.13 111.81" fill="#2563eb"></polygon><polygon points="274.53 111.81 268.77 111.81 265.9 116.8 268.77 121.78 274.53 121.78 277.4 116.8 274.53 111.81" fill="#2563eb"></polygon><path d="M222.46,79a5.33,5.33,0,1,1-5.32-5.32A5.32,5.32,0,0,1,222.46,79Z" transform="translate(-25.74 -0.71)" fill="#2563eb"></path><circle cx="296.68" cy="78.56" r="5.33" fill="#2563eb"></circle><circle cx="243.95" cy="70.93" r="6.93" fill="#2563eb"></circle><polygon points="247.79 110.14 240.12 110.14 236.28 116.8 240.12 123.45 247.79 123.45 251.63 116.8 247.79 110.14" fill="url(#linear-gradient-25)"></polygon><polygon points="219.13 111.81 213.38 111.81 210.51 116.8 213.38 121.78 219.13 121.78 222.01 116.8 219.13 111.81" fill="url(#linear-gradient-26)"></polygon><polygon points="274.53 111.81 268.77 111.81 265.9 116.8 268.77 121.78 274.53 121.78 277.4 116.8 274.53 111.81" fill="url(#linear-gradient-27)"></polygon><path d="M222.46,79a5.33,5.33,0,1,1-5.32-5.32A5.32,5.32,0,0,1,222.46,79Z" transform="translate(-25.74 -0.71)" fill="url(#linear-gradient-28)"></path><circle cx="296.68" cy="78.56" r="5.33" fill="url(#linear-gradient-29)"></circle><circle cx="243.95" cy="70.93" r="6.93" fill="url(#linear-gradient-30)"></circle><polygon points="160.84 99.58 165.19 108.39 174.91 109.81 167.87 116.67 169.53 126.35 160.84 121.78 152.14 126.35 153.8 116.67 146.76 109.81 156.49 108.39 160.84 99.58" fill="#2563eb"></polygon><polygon points="327.07 99.58 331.42 108.39 341.14 109.81 334.11 116.67 335.77 126.35 327.07 121.78 318.37 126.35 320.04 116.67 313 109.81 322.72 108.39 327.07 99.58" fill="#2563eb"></polygon><polygon points="160.84 99.58 165.19 108.39 174.91 109.81 167.87 116.67 169.53 126.35 160.84 121.78 152.14 126.35 153.8 116.67 146.76 109.81 156.49 108.39 160.84 99.58" fill="url(#linear-gradient-31)"></polygon><polygon points="327.07 99.58 331.42 108.39 341.14 109.81 334.11 116.67 335.77 126.35 327.07 121.78 318.37 126.35 320.04 116.67 313 109.81 322.72 108.39 327.07 99.58" fill="url(#linear-gradient-32)"></polygon><path d="M313,306.93c7.71-4.81,15.45-9.64,22.46-15.41a295.06,295.06,0,0,1,28,29.57,36.66,36.66,0,0,0-25.82,4.85c-12.53,7.78-20,22.9-33.79,28.09-2.09.79-10.3-10.27-11.46-11.89-2.63-3.67-7.28-9.82-6.81-14.62s5.94-7.19,9.6-9.47Z" transform="translate(-25.74 -0.71)" fill="#2563eb"></path><path d="M214,308.88A106.93,106.93,0,0,1,193.31,320l5.13,9.94c3.77,7.3,7.79,14.89,14.53,19.59a2.1,2.1,0,0,0,1.25.5,2.21,2.21,0,0,0,1.44-.95,61,61,0,0,1,9.45-8.5c4.92-3.6,4.46-4.54.73-8.87C220.22,325.15,217,316.86,214,308.88Z" transform="translate(-25.74 -0.71)" fill="#2563eb"></path><path d="M253,324.39a79.76,79.76,0,0,0,12.25,7.91,40.11,40.11,0,0,0-2.78,8.81c-1,5-1,10.34-3.57,14.73q-5.38-2.49-10.61-5.31c-4.29-2.31-5.75-2-4.22-6.39C244.78,342.09,254.51,325.58,253,324.39Z" transform="translate(-25.74 -0.71)" fill="#2563eb"></path><path d="M253,324.39a79.76,79.76,0,0,0,12.25,7.91,40.11,40.11,0,0,0-2.78,8.81c-1,5-1,10.34-3.57,14.73q-5.38-2.49-10.61-5.31c-4.29-2.31-5.75-2-4.22-6.39C244.78,342.09,254.51,325.58,253,324.39Z" transform="translate(-25.74 -0.71)" fill="url(#linear-gradient-33)"></path><path d="M138.08,315.08q6.18,6.39,11.86,13.26A41.87,41.87,0,0,1,179.5,313a2.26,2.26,0,0,0,1.76-.63,2.2,2.2,0,0,0-.07-2.08c-1.41-3.59-2.87-10.08-6-12.62s-8.46.48-11.79,1.74C154.06,303,144.84,307.57,138.08,315.08Z" transform="translate(-25.74 -0.71)" fill="#2563eb"></path><path d="M372.83,290.86a1.77,1.77,0,0,0-2,2.1q-.37,9.77-.31,19.53,19.06.11,38.08,1.88c-.23,0,.33-23.65-4.77-25.69-3.62-1.44-10.65.52-14.5.82Q381.08,290.15,372.83,290.86Z" transform="translate(-25.74 -0.71)" fill="#2563eb"></path><path d="M313,306.93c7.71-4.81,15.45-9.64,22.46-15.41a295.06,295.06,0,0,1,28,29.57,36.66,36.66,0,0,0-25.82,4.85c-12.53,7.78-20,22.9-33.79,28.09-2.09.79-10.3-10.27-11.46-11.89-2.63-3.67-7.28-9.82-6.81-14.62s5.94-7.19,9.6-9.47Z" transform="translate(-25.74 -0.71)" fill="url(#linear-gradient-34)"></path><path d="M214,308.88A106.93,106.93,0,0,1,193.31,320l5.13,9.94c3.77,7.3,7.79,14.89,14.53,19.59a2.1,2.1,0,0,0,1.25.5,2.21,2.21,0,0,0,1.44-.95,61,61,0,0,1,9.45-8.5c4.92-3.6,4.46-4.54.73-8.87C220.22,325.15,217,316.86,214,308.88Z" transform="translate(-25.74 -0.71)" fill="url(#linear-gradient-35)"></path><path d="M138.08,315.08q6.18,6.39,11.86,13.26A41.87,41.87,0,0,1,179.5,313a2.26,2.26,0,0,0,1.76-.63,2.2,2.2,0,0,0-.07-2.08c-1.41-3.59-2.87-10.08-6-12.62s-8.46.48-11.79,1.74C154.06,303,144.84,307.57,138.08,315.08Z" transform="translate(-25.74 -0.71)" fill="url(#linear-gradient-36)"></path><path d="M372.83,290.86a1.77,1.77,0,0,0-2,2.1q-.37,9.77-.31,19.53,19.06.11,38.08,1.88c-.23,0,.33-23.65-4.77-25.69-3.62-1.44-10.65.52-14.5.82Q381.08,290.15,372.83,290.86Z" transform="translate(-25.74 -0.71)" fill="url(#linear-gradient-37)"></path><path d="M243.7,312.52a18.92,18.92,0,0,1-5.8-1.2,6.38,6.38,0,0,1-3.86-4.23,3.16,3.16,0,0,1,1.15-3.38,3.47,3.47,0,0,1,1.6-.45,6.85,6.85,0,0,1,4.79,1.58c-.33-1.62,1.59-3.12,3.22-2.87s2.62,2,2.6,3.65a10.25,10.25,0,0,1-1.55,4.58C245.34,311.16,244.2,311.56,243.7,312.52Z" transform="translate(-25.74 -0.71)" fill="#2563eb"></path></svg>