<svg xmlns="http://www.w3.org/2000/svg" viewBox="0 0 500 500"><g id="freepik--Diploma--inject-33"><g id="freepik--diploma--inject-33"><g id="freepik--Window--inject-33"><polygon points="35.32 129.37 38.06 130.95 106.6 91.39 103.86 89.8 35.32 129.37" style="fill:#f0f0f0"></polygon><polygon points="103.86 89.8 38.06 127.79 38.06 70.76 103.86 32.77 103.86 89.8" style="fill:#fafafa"></polygon><path d="M109.34,26.44l-74,42.74V135.7l74-42.73Zm-2.74,65L38.06,131V70.76L106.6,31.19Z" style="fill:#ebebeb"></path><polygon points="106.6 91.39 103.86 89.8 103.86 32.77 106.6 31.19 106.6 91.39" style="fill:#e0e0e0"></polygon><polygon points="109.34 26.44 106.6 24.86 32.58 67.6 35.32 69.18 109.34 26.44" style="fill:#f5f5f5"></polygon><polygon points="32.58 67.6 35.32 69.18 35.32 135.7 32.58 134.12 32.58 67.6" style="fill:#e0e0e0"></polygon></g><path d="M91,80.21c2.56-1.47,4.63-.28,4.63,2.68a10.2,10.2,0,0,1-4.63,8c-2.55,1.48-4.62.28-4.62-2.67A10.25,10.25,0,0,1,91,80.21Z" style="fill:#e0e0e0"></path><path d="M53.56,68.17,88.4,48c1-.56,1.76-.1,1.76,1v.1a3.9,3.9,0,0,1-1.76,3L53.56,72.33c-1,.56-1.75.11-1.75-1V71.2A3.87,3.87,0,0,1,53.56,68.17Z" style="fill:#e0e0e0"></path><path d="M48.05,84,93.9,57.54c1-.56,1.76-.3,1.76.57a3.51,3.51,0,0,1-1.76,2.6L48,87.21c-1,.55-1.74.29-1.74-.58A3.59,3.59,0,0,1,48.05,84Z" style="fill:#f0f0f0"></path><path d="M48.05,90.34,93.9,63.87c1-.56,1.76-.31,1.76.57A3.5,3.5,0,0,1,93.9,67L48,93.53c-1,.56-1.74.3-1.74-.58A3.59,3.59,0,0,1,48.05,90.34Z" style="fill:#f0f0f0"></path><path d="M48.05,96.67,93.9,70.19c1-.56,1.76-.3,1.76.57a3.51,3.51,0,0,1-1.76,2.6L48,99.85c-1,.56-1.74.3-1.74-.58A3.59,3.59,0,0,1,48.05,96.67Z" style="fill:#f0f0f0"></path><path d="M82.72,93.75a2.39,2.39,0,0,1-1.14.3c-1,0-.89-1-.86-1.68,0-.31-.42-.79-.65-.38-.59,1.07-1.35,2.07-2,3.11C77.69,95.74,77,97.18,76,97c-.39-.09-.52-.51-.52-1a5.15,5.15,0,0,0,.61-2.86c0-.3-.54-.67-.7-.26a9.41,9.41,0,0,0-.59,2.63,16.24,16.24,0,0,1-1.48,2.2c-.32.43-.6.9-1,1.3-.09.09-.25.34-.39.36-.32.05-.29-.14-.33-.35a2.36,2.36,0,0,1,.16-.94h0a.19.19,0,0,1,0-.07h0c0-.31-.39-.77-.56-.38A13.73,13.73,0,0,1,68.57,102l-.18.15c0-.19,0-.37-.06-.55a4.75,4.75,0,0,0-.22-1.25c-.07-.2-.43-.51-.61-.24a21.61,21.61,0,0,1-3,4.22,5.35,5.35,0,0,1-.64.44c-.21-.12.11-1.23.15-1.4.13-.49.29-1,.45-1.47a5.13,5.13,0,0,0,.37-1.21c.06-.38-.59-1-.71-.45,0,.2-.22.71-.42,1.33A32.7,32.7,0,0,1,61.08,106a10,10,0,0,1-3.58,3.46c-.41.22-1.17.54-1.62.21s-.4-.88-.42-1.3a11,11,0,0,1,.43-3.17,19.18,19.18,0,0,0,4-2.81,13.42,13.42,0,0,0,3-3.33c.41-.73.66-1.94-.33-2.36-.69-.29-1.57.19-2.15.51a9.48,9.48,0,0,0-2.18,1.7,12.5,12.5,0,0,0-2.73,5c-.09.29-.2.66-.32,1.09a8.49,8.49,0,0,1-5,.85c-.09,0-.13.2,0,.22a8.39,8.39,0,0,0,4.94-.47c-.45,1.91-.7,4.45,1.09,4.94s3.94-1.74,4.9-3a20.85,20.85,0,0,0,1.92-3.1c0-.08.11-.15.16-.23-.05.89.18,1.54,1,1.39s1.68-1.4,2.17-2.07.88-1.32,1.3-2c.08.8.23,1.71,1,1.56s1.4-1.48,1.76-2a14.72,14.72,0,0,0,.87-1.43.83.83,0,0,0,.17.26c.63.68,1.39,0,1.8-.59.58-.76,1.24-1.57,1.79-2.43a1.48,1.48,0,0,0,.76.85c1,.46,1.9-.35,2.46-1.07a21.43,21.43,0,0,0,1.85-3,1.37,1.37,0,0,0,.67.94A2.26,2.26,0,0,0,83,94.43C83.34,94.25,83.05,93.59,82.72,93.75ZM61.26,97.58c.46-.23,1.41-.62,1.46.15a2.55,2.55,0,0,1-.62,1.34,16.71,16.71,0,0,1-2.67,2.84,21.19,21.19,0,0,1-3.34,2.54A10.77,10.77,0,0,1,61.26,97.58Z" style="fill:#e0e0e0"></path></g></g><g id="freepik--Shadow--inject-33"><polygon id="freepik--shadow--inject-33" points="222.13 493.54 45.58 391.6 307.5 240.51 484.05 342.45 222.13 493.54" style="fill:#e0e0e0"></polygon></g><g id="freepik--Character--inject-33"><g id="freepik--character--inject-33"><g id="freepik--Chair--inject-33"><path d="M215.3,322.77c.25-3.34-2.4-7.16-8.29-11.69-10.88-8.35-50.41-35.84-65.77-46a.16.16,0,0,0-.12-.15c-11.76-8.49-14.4-66.63-20.8-94.46-.06-.26-.5-2.39-1.39-5.13-.05-.13-.09-.25-.13-.38l-.4-1.14c-.07-.19-.13-.39-.2-.57h0a26.38,26.38,0,0,0-5.06-8.71,12.71,12.71,0,0,0-2.64-2.19c-1.33-.9-4.57-2.51-5.26-3-8-5.69-28.29,8.75-42.62,15.18-8.91,4-16.63,9-21.89,19h0A60.52,60.52,0,0,0,35,201.82c-2.36,14.22-1.88,61.91-.63,82.86h0c1.45,35,6.6,35.43,13.64,41.82,12.11,11,47.66,33.5,59.53,39.3,21.51,10.51,40.75-1.52,54.82-7.12S203,340,209.07,336.32c3.58-2.19,5.53-4.54,5.71-7.17C214.85,328.12,215.21,323.86,215.3,322.77Z" style="fill:#263238"></path><path d="M162.84,352.23c14.06-5.6,40.72-18.67,46.74-22.35,8.15-5,7.9-10.76-2.57-18.79-14.53-11.17-74.2-51.62-74.2-51.62S63.45,292.9,47,307.49c-2.49,2.21-2.59,6.88-1.72,8,9,11.25,49.11,37.24,62.72,43.89C129.54,369.86,148.77,357.83,162.84,352.23Z" style="fill:#455a64"></path><path d="M110.49,152.33a2.36,2.36,0,0,0-.23-.13,12.15,12.15,0,0,0-5.94-1.86c-7.27-.59-18.75,4.5-35.93,15.6A94,94,0,0,0,53.65,177.2l-.26.25a34.86,34.86,0,0,0-3.77,4.22c-.2.25-.38.5-.57.75s-.21.29-.3.43c-.24.34-.48.68-.7,1-.45.7-.9,1.43-1.33,2.18l-.13.23-.49.93,0,0-5.34-3.7c5.25-10,13.33-15.16,21.65-20.27C76.7,154.44,92.67,143,102.83,148,103.6,148.33,109.16,151.44,110.49,152.33Z" style="fill:#455a64"></path><path d="M120.32,170.45c-.93-3.66-4.14-19.48-16-20.11-7.27-.58-18.75,4.5-35.93,15.6-8,5.17-17.23,11.79-21.8,20.35-6.74,10.64-7.79,40.15-7.4,68.53s2.24,55.64,6.08,60.66c6.75-18.93,86.51-56.2,95.85-50.57C129.36,256.42,126.72,198.28,120.32,170.45Z" style="fill:#37474f"></path></g><g id="freepik--Bottom--inject-33"><path d="M68.14,252.79c-3.76,10.51-6.73,26.37-5,45.76.9,10.22,6.35,29.05,25.36,40.23,27,15.91,43.47,20.67,43.47,20.67l95.45-62.21-65.06-37.88Z" style="fill:#407BFF"></path><path d="M88.44,314.89q-1.09-1.18-2.1-2.37c6.74-1.79,10.71-10.16,9.87-19.62-.48-5.43-1-11.58-.3-17.4l-1.18-.15C94,281.3,94.54,287.52,95,293c.85,9.54-3.18,17.25-9.55,18.5C72.55,296,74.56,281,80.85,261.07l-1.14-.36c-6.89,21.86-7.94,37.91,7.86,55,10.38,11.22,38.7,26.55,55.27,36.77l1.12-.71C127.42,341.59,98.85,326.13,88.44,314.89Z" style="opacity:0.35000000000000003"></path><path d="M160.7,282.85c-3.6,11.6-11.1,17.13-11.1,17.13,14,10.21,25.53,19.7,33.56,26.66l9.81-6.29-34.46-23.13C162.53,289,160.7,282.85,160.7,282.85Z" style="opacity:0.35000000000000003"></path></g><g id="freepik--Desk--inject-33"><polygon points="222.07 474.45 52.25 376.41 313.21 225.85 483.02 323.89 222.07 474.45" style="fill:#407BFF"></polygon><polygon points="222.07 474.45 52.25 376.41 313.21 225.85 483.02 323.89 222.07 474.45" style="fill:#fff;opacity:0.8"></polygon><polygon points="52.25 376.41 52.25 388.67 222.07 486.71 222.07 474.45 52.25 376.41" style="fill:#407BFF"></polygon><polygon points="52.25 376.41 52.25 388.67 222.07 486.71 222.07 474.45 52.25 376.41" style="fill:#fff;opacity:0.5"></polygon><polygon points="222.07 486.71 483.02 336.15 483.02 323.89 222.07 474.45 222.07 486.71" style="fill:#407BFF"></polygon><polygon points="222.07 474.45 483.02 323.89 483.02 336.15 222.07 486.71 222.07 474.45" style="fill:#fff;opacity:0.65"></polygon></g><g id="freepik--Book--inject-33"><polygon points="149.27 418.07 257.02 355.86 186.98 315.42 79.23 377.63 149.27 418.07" style="fill:#407BFF;opacity:0.2"></polygon><polygon points="149.18 413.08 250.67 354.48 185.83 317.04 84.34 375.64 149.18 413.08" style="fill:#407BFF"></polygon><polygon points="149.18 413.08 250.67 354.48 185.83 317.04 84.34 375.64 149.18 413.08" style="opacity:0.15"></polygon><path d="M198.58,383l0-1.81c0-2.24,4-8.61,9-11.49l40.32-23.27v8.13Z" style="fill:#f5f5f5"></path><path d="M247.85,346.43,207.53,369.7c-5,2.87-9,9.26-9,11.49l0,1.81-62-35.81h0l0-1.82c0-2.23,4-8.61,9-11.49l40.3-23.26h0Z" style="fill:#fafafa"></path><path d="M247.85,346.43,207.53,369.7c-5,2.87-9,9.26-9,11.49l0,1.81-62-35.81h0l0-1.82c0-2.23,4-8.61,9-11.49l40.32-23.27Z" style="fill:#fafafa"></path><path d="M198.57,381.32l-3.87-2.24-5.08-2.94a10.08,10.08,0,0,1,6.26.9A5.27,5.27,0,0,1,198.57,381.32Z" style="fill:#f0f0f0"></path><path d="M198.57,381.32l-3.87-2.24-5.08-2.94a10.08,10.08,0,0,1,6.26.9A5.27,5.27,0,0,1,198.57,381.32Z" style="fill:#e0e0e0"></path><polygon points="149.19 414.77 149.18 413.08 84.33 375.64 84.34 377.32 149.19 414.77" style="fill:#407BFF"></polygon><polygon points="149.19 414.77 149.18 413.08 84.33 375.64 84.34 377.32 149.19 414.77" style="opacity:0.30000000000000004"></polygon><polygon points="149.19 414.77 250.69 356.17 250.67 354.48 149.18 413.08 149.19 414.77" style="fill:#407BFF"></polygon><path d="M198.57,381.32c0-2.24-4.1-4.1-9.09-1.24l-40.31,23.09v8.36L198.58,383S198.59,383.56,198.57,381.32Z" style="fill:#f5f5f5"></path><polygon points="149.17 411.53 149.17 403.17 87.15 367.36 87.15 375.72 149.17 411.53" style="fill:#ebebeb"></polygon><path d="M189.48,380.08l-1.81,1-38.5,22.06L94.39,371.54l-7.24-4.18,40.31-23.09c3.65-2.09,5.7-1.93,7.13-1.11h0l62.88,36.3C195.2,378.18,192.55,378.44,189.48,380.08Z" style="fill:#fafafa"></path><polygon points="146.35 396.88 180.68 377.07 182.48 376.04 183.81 376.8 182 377.84 147.67 397.64 146.35 396.88" style="fill:#e0e0e0"></polygon><polygon points="143.18 395.05 177.51 375.25 179.31 374.21 180.63 374.97 178.83 376.01 144.5 395.81 143.18 395.05" style="fill:#e0e0e0"></polygon><polygon points="140.01 393.22 174.34 373.42 176.14 372.38 177.47 373.14 175.66 374.18 141.34 393.98 140.01 393.22" style="fill:#e0e0e0"></polygon><polygon points="136.84 391.39 171.17 371.58 172.97 370.55 174.29 371.31 172.49 372.35 138.16 392.15 136.84 391.39" style="fill:#e0e0e0"></polygon><polygon points="133.68 389.56 168 369.75 169.81 368.72 171.13 369.48 169.32 370.52 135 390.32 133.68 389.56" style="fill:#e0e0e0"></polygon><polygon points="130.5 387.73 164.83 367.93 166.63 366.89 167.96 367.65 166.15 368.69 131.83 388.49 130.5 387.73" style="fill:#e0e0e0"></polygon><polygon points="127.33 385.9 161.66 366.1 163.47 365.06 164.79 365.82 162.98 366.86 128.66 386.66 127.33 385.9" style="fill:#e0e0e0"></polygon><polygon points="124.17 384.07 158.49 364.26 160.3 363.23 161.62 364 159.81 365.03 125.49 384.83 124.17 384.07" style="fill:#e0e0e0"></polygon><polygon points="121 382.24 155.32 362.44 157.13 361.4 158.45 362.16 156.64 363.2 122.32 383 121 382.24" style="fill:#e0e0e0"></polygon><polygon points="117.83 380.41 152.15 360.61 153.96 359.57 155.28 360.33 153.47 361.37 119.15 381.17 117.83 380.41" style="fill:#e0e0e0"></polygon><polygon points="114.66 378.58 148.98 358.77 150.79 357.74 152.11 358.5 150.3 359.54 115.98 379.34 114.66 378.58" style="fill:#e0e0e0"></polygon><polygon points="111.49 376.75 145.81 356.94 147.62 355.91 148.94 356.68 147.13 357.71 112.81 377.51 111.49 376.75" style="fill:#e0e0e0"></polygon><polygon points="108.32 374.92 142.64 355.12 144.45 354.08 145.77 354.84 143.96 355.88 109.64 375.68 108.32 374.92" style="fill:#e0e0e0"></polygon><polygon points="105.15 373.09 139.47 353.29 141.28 352.25 142.6 353.01 140.79 354.05 106.47 373.85 105.15 373.09" style="fill:#e0e0e0"></polygon><polygon points="101.98 371.26 136.3 351.45 138.11 350.42 139.43 351.19 137.62 352.22 103.3 372.02 101.98 371.26" style="fill:#e0e0e0"></polygon><polygon points="98.81 369.43 133.13 349.63 134.94 348.59 136.26 349.36 134.45 350.39 100.13 370.19 98.81 369.43" style="fill:#e0e0e0"></polygon><polygon points="95.64 367.6 129.96 347.8 131.77 346.76 133.09 347.52 131.28 348.56 96.96 368.36 95.64 367.6" style="fill:#e0e0e0"></polygon><path d="M189.86,377.92c-.74.07-2.32.58-3.19.77-3.66.83-10.13,3.78-16.32,6.88-8.27,4.15-16.07,8.57-16.07,8.57L97.54,361.41l29.92-17.14a13,13,0,0,1,3.69-1.53,8.07,8.07,0,0,1,2.59.89l.4-.69a3.13,3.13,0,0,1,.45.22l62.88,36.3A10.19,10.19,0,0,0,189.86,377.92Z" style="opacity:0.1"></path><polygon points="149.13 405 155.28 401.87 149.17 405.6 143.03 402.05 149.13 405" style="fill:#e6e6e6"></polygon><polygon points="149.18 409.18 160.46 402.66 149.18 408.73 136.5 401.85 149.18 409.18" style="fill:#e6e6e6"></polygon><polygon points="87.15 369.21 96.64 374.93 87.15 370.08 87.15 369.21" style="fill:#e6e6e6"></polygon><polygon points="87.16 372.47 101.25 381.08 87.15 373.25 87.16 372.47" style="fill:#e6e6e6"></polygon><path d="M189.62,376.14a20.08,20.08,0,0,0-2.42.41c-3.67.83-10.13,3.78-16.32,6.88-8.28,4.14-16.07,8.56-16.07,8.56L92.75,356.2s23.61-13.59,32.88-15.38c4.34-.84,7-.26,8.63.67v0L195.88,377A10.08,10.08,0,0,0,189.62,376.14Z" style="fill:#f5f5f5"></path><path d="M188.84,373a10,10,0,0,0-6.27-.91,23.12,23.12,0,0,0-2.42.41,59.55,59.55,0,0,0-10.13,3.9c-2,.93-4.12,1.94-6.19,3-5,2.5-9.78,5.09-12.82,6.76l1.41.81c3-1.67,7.84-4.26,12.82-6.75,2.07-1,4.17-2.06,6.19-3a59.36,59.36,0,0,1,10.13-3.89,23.31,23.31,0,0,1,2.42-.42,10.19,10.19,0,0,1,6.27.91Z" style="fill:#e0e0e0"></path><path d="M185.66,371.14a10.08,10.08,0,0,0-6.26-.9,20.08,20.08,0,0,0-2.42.41,59.36,59.36,0,0,0-10.13,3.89c-2,.93-4.12,1.95-6.19,3-5,2.49-9.79,5.09-12.82,6.76l1.41.81c3-1.67,7.84-4.26,12.82-6.76,2.07-1,4.17-2,6.19-3a59.55,59.55,0,0,1,10.13-3.9,22.28,22.28,0,0,1,2.42-.41,10,10,0,0,1,6.26.91Z" style="fill:#e0e0e0"></path><path d="M182.49,369.31a10.19,10.19,0,0,0-6.27-.91,23.31,23.31,0,0,0-2.42.42,59.36,59.36,0,0,0-10.13,3.89c-2,.93-4.12,2-6.19,3-5,2.49-9.78,5.08-12.82,6.75l1.41.82c3-1.67,7.84-4.27,12.82-6.76,2.07-1,4.17-2.06,6.19-3a59.36,59.36,0,0,1,10.13-3.89,23.12,23.12,0,0,1,2.42-.41,10.13,10.13,0,0,1,6.27.9Z" style="fill:#e0e0e0"></path><path d="M179.31,367.48a10,10,0,0,0-6.26-.91,22.28,22.28,0,0,0-2.42.41,59.55,59.55,0,0,0-10.13,3.9c-2,.93-4.12,1.95-6.19,3-5,2.5-9.79,5.09-12.82,6.76l1.41.81c3-1.67,7.84-4.26,12.82-6.75,2.07-1,4.17-2.06,6.19-3A59.36,59.36,0,0,1,172,367.8a22.43,22.43,0,0,1,2.42-.42,10.16,10.16,0,0,1,6.26.91Z" style="fill:#e0e0e0"></path><path d="M176.14,365.64a10.13,10.13,0,0,0-6.27-.9,20.76,20.76,0,0,0-2.42.41A59.36,59.36,0,0,0,157.32,369c-2,.93-4.12,1.95-6.19,3-5,2.49-9.78,5.09-12.82,6.76l1.41.81c3-1.67,7.84-4.26,12.82-6.76,2.07-1,4.17-2,6.19-3A58.52,58.52,0,0,1,168.86,366a20.92,20.92,0,0,1,2.42-.42,10,10,0,0,1,6.26.91Z" style="fill:#e0e0e0"></path><path d="M173,363.81a10.14,10.14,0,0,0-6.26-.91,22.43,22.43,0,0,0-2.42.42,59.36,59.36,0,0,0-10.13,3.89c-2,.93-4.12,2-6.19,3-5,2.49-9.79,5.08-12.82,6.75l1.41.82c3-1.67,7.84-4.27,12.82-6.76,2.07-1,4.17-2.06,6.19-3a59.36,59.36,0,0,1,10.13-3.89,22.28,22.28,0,0,1,2.42-.41,10,10,0,0,1,6.26.91Z" style="fill:#e0e0e0"></path><path d="M169.78,362a10,10,0,0,0-6.26-.91,20.92,20.92,0,0,0-2.42.42A58.52,58.52,0,0,0,151,365.38c-2,.93-4.12,1.95-6.19,3-5,2.5-9.78,5.09-12.82,6.76l1.41.81c3-1.67,7.84-4.26,12.82-6.75,2.07-1,4.17-2.06,6.19-3a59.36,59.36,0,0,1,10.13-3.89,23.31,23.31,0,0,1,2.42-.42,10.14,10.14,0,0,1,6.26.91Z" style="fill:#e0e0e0"></path><path d="M166.61,360.15a10,10,0,0,0-6.26-.91,22.28,22.28,0,0,0-2.42.41,59.36,59.36,0,0,0-10.13,3.89c-2,.93-4.12,1.95-6.19,3-5,2.49-9.79,5.09-12.83,6.76l1.41.81c3-1.67,7.84-4.26,12.83-6.76,2.07-1,4.17-2,6.18-3a58.88,58.88,0,0,1,10.14-3.89,20.21,20.21,0,0,1,2.42-.42A10,10,0,0,1,168,361Z" style="fill:#e0e0e0"></path><path d="M158.58,358.22a23.12,23.12,0,0,0-2.42.41c-3.67.83-10.13,3.78-16.32,6.88-5,2.49-9.78,5.09-12.82,6.76l-1.41-.82c3-1.67,7.84-4.26,12.82-6.75,6.19-3.11,12.66-6.06,16.32-6.88a23.31,23.31,0,0,1,2.42-.42,10.14,10.14,0,0,1,6.26.91l1.41.82A10,10,0,0,0,158.58,358.22Z" style="fill:#e0e0e0"></path><path d="M155.4,356.38a22.71,22.71,0,0,0-2.41.42c-3.67.82-10.13,3.78-16.33,6.88-5,2.49-9.78,5.08-12.82,6.75l-1.41-.81c3-1.67,7.85-4.26,12.83-6.76,6.19-3.1,12.65-6.05,16.32-6.87a20.21,20.21,0,0,1,2.42-.42,10,10,0,0,1,6.26.91l1.41.81A10.19,10.19,0,0,0,155.4,356.38Z" style="fill:#e0e0e0"></path><path d="M152.23,354.55a20.56,20.56,0,0,0-2.42.42c-3.67.82-10.13,3.77-16.32,6.87-5,2.5-9.78,5.09-12.82,6.76l-1.41-.81c3-1.67,7.84-4.27,12.82-6.76,6.19-3.1,12.66-6,16.32-6.88a23.12,23.12,0,0,1,2.42-.41,10,10,0,0,1,6.26.91l1.41.81A10.07,10.07,0,0,0,152.23,354.55Z" style="fill:#e0e0e0"></path><path d="M149.05,352.72a22.53,22.53,0,0,0-2.41.41c-3.67.83-10.13,3.78-16.33,6.88-5,2.49-9.78,5.09-12.82,6.76l-1.41-.82c3-1.67,7.84-4.26,12.82-6.75,6.2-3.1,12.66-6.06,16.33-6.88a22.43,22.43,0,0,1,2.42-.42,10.17,10.17,0,0,1,6.26.91l1.41.82A10,10,0,0,0,149.05,352.72Z" style="fill:#e0e0e0"></path><path d="M145.88,350.89a20.42,20.42,0,0,0-2.42.41c-3.67.82-10.13,3.78-16.32,6.88-5,2.49-9.78,5.08-12.82,6.75l-1.41-.81c3-1.67,7.84-4.26,12.82-6.76,6.19-3.1,12.65-6.05,16.32-6.87a20.92,20.92,0,0,1,2.42-.42,10.07,10.07,0,0,1,6.26.91l1.41.81A10.08,10.08,0,0,0,145.88,350.89Z" style="fill:#e0e0e0"></path><path d="M142.7,349.05a22.71,22.71,0,0,0-2.41.42c-3.67.82-10.14,3.77-16.33,6.87-5,2.5-9.78,5.09-12.82,6.76l-1.41-.81c3-1.67,7.84-4.27,12.82-6.76,6.19-3.1,12.66-6,16.33-6.88a22.53,22.53,0,0,1,2.41-.41,10,10,0,0,1,6.27.91L149,350A10.12,10.12,0,0,0,142.7,349.05Z" style="fill:#e0e0e0"></path><path d="M139.53,347.22a22.69,22.69,0,0,0-2.42.41c-3.67.83-10.13,3.78-16.32,6.88-5,2.5-9.78,5.09-12.82,6.76l-1.41-.82c3-1.67,7.84-4.26,12.82-6.75,6.19-3.1,12.65-6.06,16.32-6.88a22.86,22.86,0,0,1,2.42-.42,10.14,10.14,0,0,1,6.26.91l1.41.82A10,10,0,0,0,139.53,347.22Z" style="fill:#e0e0e0"></path><path d="M136.35,345.39a20.76,20.76,0,0,0-2.42.41c-3.66.82-10.13,3.78-16.32,6.88-5,2.49-9.78,5.08-12.82,6.75l-1.41-.81c3-1.67,7.84-4.26,12.82-6.76,6.19-3.1,12.66-6.05,16.33-6.87a22.71,22.71,0,0,1,2.41-.42,10.12,10.12,0,0,1,6.27.91l1.41.81A10.13,10.13,0,0,0,136.35,345.39Z" style="fill:#e0e0e0"></path><path d="M133.18,343.55a22.86,22.86,0,0,0-2.42.42c-3.67.82-10.13,3.77-16.32,6.88-5,2.49-9.78,5.08-12.82,6.75l-1.41-.81c3-1.67,7.84-4.27,12.82-6.76,6.19-3.1,12.65-6,16.32-6.88a22.69,22.69,0,0,1,2.42-.41,10,10,0,0,1,6.26.91l1.41.81A10.14,10.14,0,0,0,133.18,343.55Z" style="fill:#e0e0e0"></path><path d="M201.72,366.35a20.36,20.36,0,0,0-5,4.3l-1.29-.75a20.31,20.31,0,0,1,5-4.29l36.14-20.82,1.29.75Z" style="fill:#e0e0e0"></path><path d="M201.72,366.35a20.36,20.36,0,0,0-5,4.3l-1.29-.75a20.31,20.31,0,0,1,5-4.29l36.14-20.82,1.29.75Z" style="fill:#e0e0e0"></path><path d="M194.41,370.08l.51-.6a21,21,0,0,1,5.19-4.44l36.46-21,2.59,1.5-37.11,21.38a19.42,19.42,0,0,0-4.85,4.15l-.36.41Z" style="fill:#407BFF;opacity:0.30000000000000004"></path><path d="M198.55,364.52a20.36,20.36,0,0,0-5,4.3l-1.29-.75a20.31,20.31,0,0,1,5-4.29L233.4,343l1.29.75Z" style="fill:#e0e0e0"></path><path d="M195.38,362.69a20.15,20.15,0,0,0-5,4.3l-1.29-.75a20.31,20.31,0,0,1,5-4.29l36.14-20.82,1.29.75Z" style="fill:#e0e0e0"></path><path d="M192.21,360.86a20.15,20.15,0,0,0-5,4.3l-1.29-.75a20.1,20.1,0,0,1,5-4.29l36.14-20.82,1.29.74Z" style="fill:#e0e0e0"></path><path d="M189,359a20.13,20.13,0,0,0-5,4.29l-1.29-.74a20.18,20.18,0,0,1,5-4.3l36.13-20.81,1.29.74Z" style="fill:#e0e0e0"></path><path d="M185.87,357.2a20.13,20.13,0,0,0-5,4.29l-1.29-.74a20.18,20.18,0,0,1,5-4.3l36.13-20.81,1.29.74Z" style="fill:#e0e0e0"></path><path d="M182.7,355.37a20.18,20.18,0,0,0-5,4.29l-1.29-.74a20.4,20.4,0,0,1,5-4.3l36.13-20.81,1.29.74Z" style="fill:#e0e0e0"></path><path d="M179.52,353.54a20.31,20.31,0,0,0-5,4.29l-1.29-.74a20.15,20.15,0,0,1,5-4.3L214.37,332l1.29.74Z" style="fill:#e0e0e0"></path><path d="M176.35,351.7a20.36,20.36,0,0,0-5,4.3l-1.29-.74a20.15,20.15,0,0,1,5-4.3l36.14-20.82,1.29.75Z" style="fill:#e0e0e0"></path><path d="M173.18,349.87a20.36,20.36,0,0,0-5,4.3l-1.29-.75a20.31,20.31,0,0,1,5-4.29L208,328.31l1.29.75Z" style="fill:#e0e0e0"></path><path d="M170,348a20.36,20.36,0,0,0-5,4.3l-1.29-.75a20.31,20.31,0,0,1,5-4.29l36.14-20.82,1.29.75Z" style="fill:#e0e0e0"></path><path d="M166.84,346.21a20.18,20.18,0,0,0-5,4.3l-1.29-.75a20.13,20.13,0,0,1,5-4.29l36.13-20.82,1.29.75Z" style="fill:#e0e0e0"></path><path d="M163.67,344.38a20,20,0,0,0-5,4.3l-1.29-.75a20.13,20.13,0,0,1,5-4.29l36.13-20.82,1.29.74Z" style="fill:#e0e0e0"></path><path d="M160.49,342.55a20.15,20.15,0,0,0-5,4.3l-1.29-.75a20.22,20.22,0,0,1,5-4.3L195.34,321l1.29.74Z" style="fill:#e0e0e0"></path><path d="M157.32,340.72a20.31,20.31,0,0,0-5,4.29l-1.29-.74a20.36,20.36,0,0,1,5-4.3l36.14-20.81,1.29.74Z" style="fill:#e0e0e0"></path><path d="M154.15,338.89a20.31,20.31,0,0,0-5,4.29l-1.29-.74a20.36,20.36,0,0,1,5-4.3L189,317.33l1.29.74Z" style="fill:#e0e0e0"></path><path d="M151,337.06a20.31,20.31,0,0,0-5,4.29l-1.29-.74a20.36,20.36,0,0,1,5-4.3l36.14-20.81,1.29.74Z" style="fill:#e0e0e0"></path><path d="M191.26,368.2l.52-.59a20.76,20.76,0,0,1,5.19-4.44l36.46-21,2.59,1.5-37.11,21.38a19.42,19.42,0,0,0-4.85,4.15l-.36.41Z" style="fill:#407BFF;opacity:0.30000000000000004"></path><path d="M188.12,366.33l.52-.59a20.76,20.76,0,0,1,5.19-4.44l36.46-21,2.59,1.49-37.11,21.38a19.51,19.51,0,0,0-4.85,4.16l-.36.41Z" style="fill:#407BFF;opacity:0.30000000000000004"></path><path d="M185,364.46l.52-.6a20.92,20.92,0,0,1,5.19-4.43l36.46-21,2.59,1.49L192.63,361.3a19.51,19.51,0,0,0-4.85,4.16l-.36.41Z" style="fill:#407BFF;opacity:0.30000000000000004"></path><path d="M166,353.42l.51-.6a20.92,20.92,0,0,1,5.19-4.43l36.46-21,2.59,1.5-37.11,21.38a19.69,19.69,0,0,0-4.85,4.16l-.36.41Z" style="fill:#407BFF;opacity:0.30000000000000004"></path><path d="M162.85,351.55l.51-.6a20.71,20.71,0,0,1,5.19-4.43l36.46-21,2.59,1.5-37.11,21.38a19.47,19.47,0,0,0-4.85,4.16l-.36.4Z" style="fill:#407BFF;opacity:0.30000000000000004"></path><path d="M159.71,349.67l.51-.59a21,21,0,0,1,5.19-4.44l36.46-21,2.59,1.5-37.11,21.38a19.42,19.42,0,0,0-4.85,4.15l-.36.41Z" style="fill:#407BFF;opacity:0.30000000000000004"></path><polygon points="239.39 353.53 247.84 349.08 247.84 348.38 239.39 353.53" style="fill:#e6e6e6"></polygon><polygon points="247.85 351.56 233.75 359.44 247.85 351.05 247.85 351.56" style="fill:#e6e6e6"></polygon><path d="M102.42,350.89c7.62-4,17.83-9,23.21-10.07,4.34-.84,7-.26,8.63.67v0L195.88,377a10.08,10.08,0,0,0-6.26-.9s-30.5-18.6-50.19-25A63.5,63.5,0,0,0,102.42,350.89Z" style="opacity:0.02"></path></g><g id="freepik--Laptop--inject-33"><path id="freepik--shadow--inject-33" d="M369.56,290.38l-57.18-33a3.28,3.28,0,0,0-3.29,0l-99.2,57.28a.73.73,0,0,0,0,1.27l57.72,33.33Z" style="fill:#407BFF;opacity:0.2"></path><path d="M365.29,283.43v1.28a5.28,5.28,0,0,1-2.64,4.58l-92.41,53.35a5.3,5.3,0,0,1-5.28,0l-50.37-29a5.32,5.32,0,0,1-2.64-4.58v-1.78h0v0a.65.65,0,0,0,.33.58l55.31,31.94Z" style="fill:#37474f"></path><path d="M267.61,339.83v3.51a5.23,5.23,0,0,0,2.63-.7l92.41-53.35a5.28,5.28,0,0,0,2.65-4.58v-1.29Z" style="fill:#263238"></path><path d="M365.3,283.42l-54.79-31.63a3.16,3.16,0,0,0-3.15,0L212.3,306.68a.7.7,0,0,0,0,1.21l55.31,31.94Z" style="fill:#455a64"></path><polygon points="267.1 335.18 237.55 318.13 323.96 268.24 353.67 285.2 267.1 335.18" style="fill:#37474f"></polygon><polygon points="353.67 285.2 352.54 285.85 323.96 269.54 238.69 318.78 237.56 318.13 323.96 268.24 353.67 285.2" style="fill:#263238"></polygon><polygon points="252.58 287.76 253.12 288.08 267.61 296.44 293.37 281.56 293.9 281.26 278.87 272.58 252.58 287.76" style="fill:#263238"></polygon><polygon points="253.12 288.08 267.61 296.44 293.37 281.56 278.87 273.2 253.12 288.08" style="fill:#37474f"></polygon><path d="M269.1,340.61a6.28,6.28,0,0,0,5.39-.42l92-53.12a6.22,6.22,0,0,0,3-4.37l10.08-60.07a7,7,0,0,0,.08-1,6.26,6.26,0,0,0-1.85-4.45l-95.61,55.21A4.66,4.66,0,0,0,280,275.6Z" style="fill:#37474f"></path><path d="M267.61,339.83l.63.36a6.84,6.84,0,0,0,.86.42l10.88-65a4.66,4.66,0,0,1,2.25-3.23l95.61-55.21a6.16,6.16,0,0,0-1.28-1l-95.8,55.31a4.63,4.63,0,0,0-2.25,3.23Z" style="fill:#455a64"></path><path d="M280.87,273.59l-1.48-.86a4.74,4.74,0,0,0-.88,2l-10.9,65.1.63.36a6.84,6.84,0,0,0,.86.42l10.88-65A4.74,4.74,0,0,1,280.87,273.59Z" style="fill:#263238"></path><path d="M320.91,285.16c.68-4,4.83-9.36,9.28-11.93s7.5-1.39,6.83,2.63-4.83,9.36-9.28,11.93S320.24,289.18,320.91,285.16Z" style="fill:#407BFF"></path></g><path id="freepik--Hand--inject-33" d="M260.76,262.4a66,66,0,0,0-11.43-12.51c-5.14-4.08-7.25-5.32-16.47-9.56l-13.31,18.5,4.1,1.16c1.73.58,2.66.74,3.34,2.32.38.87.49,3.24.85,5.45a42.33,42.33,0,0,0,2.11,8.92c1.51,4.29,2.43,4,5.07,7.37,2.44,3.14,3.45,5.24,4.78,5.05s2.95-2.82,2.22-5.74-3.24-7.1-3.6-8.31c-.31-1-.86-3,2.31-2.05,3.33,1,9.15,8.08,12.06,11s4.75,7.41,7.45,9.36,6.72,1.79,5.53-2.52c.4-2.51,1.87-6.85,2.18-10.86S263.78,266.65,260.76,262.4Z" style="fill:#ffbda7"></path><path d="M139.45,142.64c16.51,0,22,3.46,31.43,20.58,8.75,15.86,20.75,56.59,20.75,56.59l41.23,20.52-13.31,18.5S190.1,253,176.32,248.19c-10.83-3.79-11.41-7.33-20.34-32.09-6.28-17.42-9.38-28.31-9.38-28.31C148,174.18,139.45,142.64,139.45,142.64Z" style="fill:#ffbda7"></path><path d="M62.18,277.25c2.28-24,9.94-33,10.51-38.91,1.9-19.54-1.07-43.62-1.55-52.83-1-20,.66-22.36,5.64-25.81,0,0,16.55-9.42,29-12.44,13.91-3.37,24.45-4.62,32.29-4.62,5,0,7.41,1.29,13,6.2s17.81,17.68,23.24,30.06c4.14,9.44,4.17,26.89-6.15,35.77-.47,9.21-3,20.43-3.51,28.24,2.43,12.68,6,15,7.73,22.3C159,287.78,91.7,309.17,62.18,277.25Z" style="fill:#fafafa"></path><g id="freepik--Head--inject-33"><path d="M161.54,135.39a158.84,158.84,0,0,1-2.86-24l2.5-.51c11.49-4.8,12.32-19.1,10.39-26.78C167.26,67,150,59,138.94,57.34,118,54.15,107.24,58.58,104,69.25c-2.82-.51-7,1.4-9.63,4.38-5.86,6.54-10.85,33.35-8.6,55.51,0,0,1.74,2.35,8.47,4.51a57,57,0,0,0,10.27,2.24S137,150.29,161.54,135.39Z" style="fill:#37474f"></path><path d="M100.47,123.87c-3.86.18-6.6-2.09-8.54-4.92-4.31-6.27-4-12-1.12-15.47,2.37-2.84,7.43-4.17,10.49-1.61,3.29,2.74,3.15,4.59,4.15,7.32s6.29,3.22,8.94-6.86c2.48-9.4,5.13-18,10.4-21.64,7.86-5.49,15.49-3.37,17.76.82,3.46-4.07,8-5.28,12.47-2.07s7.09,10.83,6.25,29.19c-.85,18.72-6.78,29.66-11.44,32.19-3.54,1.92-7.28,2.49-14.26,1.85l-.39,5s15,25,12.81,40.85c0,0-11-3.42-29.73-19-11.84-9.84-15.16-17.57-15.16-17.57l2.31-30.35S104.14,123.69,100.47,123.87Z" style="fill:#ffbda7"></path><path d="M161.37,98.71l-7-2.4A3.54,3.54,0,0,1,159,94,3.88,3.88,0,0,1,161.37,98.71Z" style="fill:#263238"></path><path d="M136.27,96.49l-7.6,2.1a3.77,3.77,0,0,1,2.6-4.83A4.14,4.14,0,0,1,136.27,96.49Z" style="fill:#263238"></path><path d="M127.84,82.49c-1.54,2.18-2.46,6.11-3.25,9.91-.64,3.06-1.65,10.32-4.16,14.45a11.33,11.33,0,0,1-9.3,5.92,14.93,14.93,0,0,1-7.22-1.45c-1.37-.8-5.12-4-4.22-8.14a8.48,8.48,0,0,0,5.36,3.27,8.21,8.21,0,0,0,7.25-3.15c3.11-3.76,3.45-9.2,4.73-13.74,1.63-5.76,3.29-12.32,8.87-14.71,6.59-2.83,15.91.14,16.65,6.66A9.73,9.73,0,0,0,127.84,82.49Z" style="fill:#37474f"></path><path d="M132.22,122.07l10,3.81c-1,2.81-4.25,4.19-7.37,2.87C132.11,127.6,131.26,124.89,132.22,122.07Z" style="fill:#b16668"></path><path d="M137.73,129.21a5.59,5.59,0,0,0-5.35-5.27,4.41,4.41,0,0,0-.52,0,4.69,4.69,0,0,0,3,4.78A6,6,0,0,0,137.73,129.21Z" style="fill:#f0997a"></path><polygon points="142.72 100.86 143.15 119.3 153.4 116.39 142.72 100.86" style="fill:#f0997a"></polygon><path d="M135.57,142.67c-6.38-1.29-13.07-2.9-19.24-6.35-2.19-1.22-4.82-5.72-6.84-10.62,0,0,.78,9.32,5.39,13,7,5.58,20.41,8.05,20.41,8.05Z" style="fill:#f0997a"></path><path d="M158.67,105.63c.4,1.54-.69,2-2.17,2.33s-2.81.58-3.2-1a2.77,2.77,0,1,1,5.37-1.36Z" style="fill:#263238"></path><path d="M153.86,104a7.23,7.23,0,0,1,2.14-.58,5.76,5.76,0,0,1,2.15.07,6.84,6.84,0,0,1,2.13.82s.08.19,0,.18a18.92,18.92,0,0,0-1.93-.36,10.42,10.42,0,0,0-2.43.09,10.16,10.16,0,0,0-2.8.78l-.92.41c-.09.06-.14-.16-.09-.23A4.63,4.63,0,0,1,153.86,104Z" style="fill:#263238"></path><path d="M130.55,104.42c-.48,1.52.59,2,2,2.44s2.77.73,3.25-.79a2.78,2.78,0,1,0-5.3-1.65Z" style="fill:#263238"></path><path d="M135.45,103a7,7,0,0,0-2.11-.68,5.76,5.76,0,0,0-2.15,0A6.66,6.66,0,0,0,129,103c-.05,0-.09.18,0,.17.58-.08,1.1-.2,1.95-.25a9.79,9.79,0,0,1,2.41.22,10,10,0,0,1,2.76.93c.29.13.85.42.9.46s.15-.16.1-.23A4.77,4.77,0,0,0,135.45,103Z" style="fill:#263238"></path></g><g id="freepik--Arm--inject-33"><path d="M52.61,240.33c3.38-24.58,6.61-33.25,9.57-50.58,4.13-24.24,8.09-28.9,24.38-35.11,10.62,6.23,14.42,26.2,7.26,53.26l-8.76,38.22s9.46,10.58,19.36,20.79c9,9.33,17.43,18.26,28.37,21.88s15.52,5.33,20.85,9.07c2.83,2,9.28,6.57,11.45,8.29s5.62,7,9,10.76c3.16,3.79-1.9,4.49-4.66,3-3.59-1.9-5.61-4.06-7.93-6.07s-4.58-2.94-7-4.44a45.85,45.85,0,0,1-.2,9.15c-.32,1.61-.37,3.64-2,4.53a12.63,12.63,0,0,1-3.66.7,2.48,2.48,0,0,1-1,1.42,4.09,4.09,0,0,1-3,.15,12.79,12.79,0,0,1-1.59-.58,3,3,0,0,1-2.29,2,13.31,13.31,0,0,1-6.92-1.17c-.31-.21-2.58-2.11-3.25-2.65-1-.79-1.88-1.31-2.2-2.11-.39-1,1.57-2.57,2.94-2.51a13.61,13.61,0,0,1,4.31,1.18,15.73,15.73,0,0,1-.51-4c-.8-2.16-10.74-1.13-18.11-4-5.56-2.18-8.64-9-10.83-10.92-13.56-11.76-27.8-18.26-45.41-32.46C49.72,259.11,51,252.35,52.61,240.33Z" style="fill:#ffbda7"></path><path d="M155.94,310.25c-.43-2.36-1.27-5.23-2.8-6.17a20.16,20.16,0,0,1,1.42,5.35C155,309.72,155.48,310,155.94,310.25Z" style="fill:#f0997a"></path><path d="M148.69,323.81a18.25,18.25,0,0,0,1.12-4.72,43.4,43.4,0,0,0,.35-4.83,20.61,20.61,0,0,0-.34-4.88,8.87,8.87,0,0,0-2.07-4.39,6.81,6.81,0,0,1,.9,2.2,12.94,12.94,0,0,1,.46,2.31,32.42,32.42,0,0,1,.12,4.74c0,1.6-.08,3.19-.13,4.79A40.38,40.38,0,0,1,148.69,323.81Z" style="fill:#f0997a"></path><path d="M143.1,324.8a22.43,22.43,0,0,0,1-4.66,42,42,0,0,0,.25-4.76,33,33,0,0,0-.36-4.76c-.28-1.54-.5-3.25-1.56-4.49a6.2,6.2,0,0,1,.63,2.23c.11.77.18,1.55.22,2.33.09,1.56.13,3.13.13,4.69C143.39,318.52,143.37,321.65,143.1,324.8Z" style="fill:#f0997a"></path><path d="M131.38,318.32a8.23,8.23,0,0,1,1.87.67c.59.27,1,.68,1.7,1.09l-.22-.58a2,2,0,0,0-.06.95,2.5,2.5,0,0,0,.29.82,2.85,2.85,0,0,0,1.14,1.12,6.51,6.51,0,0,1-.54-1.36,2.94,2.94,0,0,1-.07-.65,2.38,2.38,0,0,1,.08-.54l.12-.34-.33-.23a5.76,5.76,0,0,0-1.74-.75A4,4,0,0,0,131.38,318.32Z" style="fill:#f0997a"></path></g></g></g><g id="freepik--Books--inject-33"><g id="freepik--books--inject-33"><path id="freepik--shadow--inject-33" d="M281.45,434.54l67.09-38.73a1.33,1.33,0,0,0,0-2.52l-51.78-29.9a4.83,4.83,0,0,0-4.35,0l-67.1,38.74a1.33,1.33,0,0,0,0,2.52l51.78,29.89A4.79,4.79,0,0,0,281.45,434.54Z" style="fill:#407BFF;opacity:0.2"></path><path id="freepik--shadow--inject-33" d="M322.89,401.82l64.36-37.16a1.27,1.27,0,0,0,0-2.41l-49.68-28.69a4.64,4.64,0,0,0-4.17,0L269,370.73a1.27,1.27,0,0,0,0,2.41l49.68,28.68A4.6,4.6,0,0,0,322.89,401.82Z" style="fill:#407BFF;opacity:0.2"></path><g id="freepik--book--inject-33"><path d="M275.41,427.9,277,427a2.55,2.55,0,0,0-1.34-.09C275.24,427.09,275.41,427.9,275.41,427.9Z"></path><path d="M274.31,426.89a1.94,1.94,0,0,1,2.85,0c1.55,1.43,1.63,2.84,2.27,2.82s.63-6.52.63-6.52L274,424Z"></path><path d="M338.34,390.49l.1-.06-1-.56L295.3,365.52l-61.44,34.92c-1,.59-1.2,1.43-.4,1.89l1.43.82,39.42,22.77.28-.2Z" style="fill:#455a64"></path><path d="M279.57,417.82l-3.06-.63v7.37c1.85.78,3,1.52,3.21,3.06Z" style="fill:#407BFF"></path><path d="M275.16,424.72l-39-22.54a2.7,2.7,0,0,1-1.23-2.12v-7.2l39.42,22.95a3.63,3.63,0,0,0,1.87,2.25c1.4.53.33,1.08.33,1.08v5.42C275.31,424.42,275.16,424.72,275.16,424.72Z" style="fill:#ebebeb"></path><path d="M278.76,417.4c-.4-.24-.72-.25-.72,0v.38c0,.43-.64.41-1.44-.05s-1.45-1.18-1.45-1.6v-.39c0-.22-.54-.71-1.21-1.09l63.52-36.4,1,.57a.9.9,0,0,1,.25.52v.39c0,.42.64,1.14,1.43,1.6s1.45.48,1.45.05V381c0-.22.32-.2.72,0Z" style="fill:#37474f"></path><path d="M338.34,378.85l.1-.06-1-.57L295.3,353.88l-61.44,35.48c-1,.58-1.2,1.43-.4,1.89l1.43.82,39.42,23.74Z" style="fill:#455a64"></path><path d="M341.58,380.6,278.1,417.25l2.23,1.73,63.27-36.52a2.55,2.55,0,0,0-.85-1.19Z" style="fill:#455a64"></path><path d="M343.35,394l.11-.08a.23.23,0,0,0,.07-.07.45.45,0,0,0,.13-.17s0-.05.07-.09a1.61,1.61,0,0,0,.16-.35c.05-.13.09-.27.13-.41l.09-.48a1.43,1.43,0,0,0,0-.29,1.79,1.79,0,0,0,0-.24,4.8,4.8,0,0,0,0-.55v-5.64a8.82,8.82,0,0,0-.59-3.2L280.33,419l-.27,11.59L343.33,394Z" style="fill:#37474f"></path><path d="M286.18,423c0,1.36-.33,2.18-1,2.59-.48.27-.73.1-.86-.27l.37-.62c.07.21.22.33.49.18.49-.29.57-.86.57-1.61v-4.78l-.65.38v-.65l1.12-.65Z" style="fill:#ebebeb"></path><path d="M290,422.71l-1.21.7v-.66l.37-.21L289,421l-1.12.65-.22,1.78.37-.22v.66l-1.17.68v-.66l.36-.21.74-5.82c0-.3.06-.58.07-.62v0l-.21.12-.16.1v-.66l1.16-.67.87,6.15.36-.21ZM288.68,419c-.21-1.54-.26-2-.26-2h0s0,.54-.27,2.36l-.2,1.64.95-.55Z" style="fill:#ebebeb"></path><path d="M291.74,414.4c.81-.47,1.26,0,1.26,1.51a3.09,3.09,0,0,1-1.28,2.92l-.31.18v2.23l.36-.21v.66l-1.18.68v-.65l.35-.21v-6l-.35.2v-.66Zm0,3.79c.55-.32.83-.95.83-2s-.3-1.4-.83-1.1l-.29.17v3.11Z" style="fill:#ebebeb"></path><path d="M296.43,419l-1.21.7V419l.37-.21-.21-1.53-1.12.64-.21,1.78.37-.21v.65l-1.17.68v-.66l.36-.2.73-5.82c0-.3.07-.58.07-.63h0l-.21.12-.17.09v-.66l1.16-.67.88,6.15.36-.2Zm-1.33-3.75c-.22-1.55-.26-2-.27-2h0s-.05.54-.27,2.36l-.21,1.64,1-.55Z" style="fill:#ebebeb"></path><path d="M299.67,417.13l-.57.33-1.35-5.32h0v5.44l.36-.2v.66l-1.08.62V418l.35-.2v-6L297,412v-.66l.91-.53,1.37,5.33h0s0-1,0-1.94v-3.52l-.35.2v-.65l1.08-.63v.66l-.36.2Z" style="fill:#ebebeb"></path><path d="M300.71,416.53v-.66l.36-.2v-6l-.36.21v-.66l2.35-1.36v1.79l-.45.26v-1.13l-1.08.62v2.52l1.06-.61V412l-1.06.61v2.82l1.12-.64v-1.29l.44-.26v2Z" style="fill:#ebebeb"></path><path d="M304.3,412.81c0,.59.24.94.68.68a1.59,1.59,0,0,0,.63-1.49,1.28,1.28,0,0,0-.76-1.34c-.44-.26-.94-.45-.94-1.76a2.35,2.35,0,0,1,.92-2.15c.44-.26.68-.13.78.18h0l0-.56.39-.22v2.06l-.44.25v-.38c0-.73-.24-1-.63-.76a1.41,1.41,0,0,0-.57,1.32,1.11,1.11,0,0,0,.69,1.18c.58.33,1,.6,1,1.91a2.56,2.56,0,0,1-1,2.36c-.47.27-.71.1-.81-.18h0v.56l-.39.22v-2.14l.42-.24Z" style="fill:#ebebeb"></path><path d="M306.78,413v-.66l.36-.2v-6l-.36.2v-.66l2.35-1.35v1.79l-.45.25v-1.13l-1.08.63v2.51l1.06-.6v.65l-1.06.61v2.82l1.12-.64V410l.44-.26v1.94Z" style="fill:#ebebeb"></path><path d="M312.62,402.34c1.12-.65,1.43.53,1.43,2.9s-.29,3.76-1.37,4.38l-1.31.76v-.66l.36-.2v-6l-.36.21v-.66Zm0,6.66c.78-.45.94-1.52.94-3.41,0-2.26-.21-3-1-2.57l-.4.23v6Z" style="fill:#ebebeb"></path><path d="M315.91,407.1v.65l-1.16.68v-.66l.35-.2v-6l-.35.2v-.66l1.16-.67v.66l-.34.2v6Z" style="fill:#ebebeb"></path><path d="M319,404c-.1,1.3-.36,2.26-1.16,2.72s-1.23-.32-1.23-3.07.39-4,1.15-4.4c.4-.24.66-.15.79.25h0v-.62l.39-.22V401l-.43.25V401c0-1-.27-1.35-.7-1.1-.6.34-.75,1.38-.75,3.41,0,2.38.19,3.05.76,2.73s.63-.87.71-1.95Z" style="fill:#ebebeb"></path><path d="M322,398.75v-1.16l-.67.38v6l.39-.23v.66l-1.26.73v-.66l.39-.22v-6l-.68.39v1.17l-.43.25v-1.83l2.7-1.56v1.83Z" style="fill:#ebebeb"></path><path d="M324.31,402.25v.66l-1.17.67v-.65l.35-.21v-6l-.35.21v-.66l1.17-.68v.66l-.35.2v6Z" style="fill:#ebebeb"></path><path d="M326.28,394.35c.9-.52,1.27.24,1.27,3s-.36,4-1.27,4.49-1.27-.23-1.27-3S325.38,394.87,326.28,394.35Zm0,6.83c.59-.34.78-1.2.78-3.51s-.19-3-.78-2.63-.78,1.22-.78,3.51S325.68,401.53,326.28,401.18Z" style="fill:#ebebeb"></path><path d="M330.91,399.09l-.58.34L329,394.11h0s0,.91,0,1.91v3.53l.35-.21V400l-1.08.62V400l.36-.21v-6l-.36.2v-.66l.92-.53,1.37,5.34,0,0s0-1,0-1.93v-3.53l-.35.21v-.66l1.08-.62v.65l-.36.21Z" style="fill:#ebebeb"></path><path d="M334.89,396.8l-1.21.7v-.66l.37-.21-.2-1.54-1.12.65-.22,1.78.37-.22V398l-1.17.68V398l.36-.21.74-5.82c0-.3.06-.58.06-.62v0l-.21.12-.17.1v-.66l1.17-.67.87,6.15.36-.21ZM333.56,393c-.22-1.54-.26-2-.26-2h0s0,.54-.27,2.36l-.2,1.64.95-.55Z" style="fill:#ebebeb"></path><path d="M337.46,395.32l-.75-2.73-.18.11-.26.14v2.5l.36-.2v.65l-1.16.68v-.66l.35-.21v-6l-.35.2v-.66l1.2-.69c.82-.48,1.23.17,1.23,1.37a3.23,3.23,0,0,1-.76,2.36l.68,2.26.36-.21v.66Zm-.74-3.34c.39-.23.7-.76.7-1.86,0-.92-.3-1.27-.82-1l-.33.18v2.9Z" style="fill:#ebebeb"></path><path d="M340.15,393.11l.34-.2v.65l-1.17.68v-.66l.36-.2v-2.47l-1-3-.34.19v-.66l1.19-.68v.66l-.34.2.38,1.3c.21.66.33,1.07.34,1.08h0s.12-.56.32-1.46l.4-1.75-.34.19v-.66l1.11-.64v.66l-.34.2-1,4.08Z" style="fill:#ebebeb"></path><path d="M280.91,422.18H279.5a6.44,6.44,0,0,0-.69-3.09,1.88,1.88,0,0,1-1.16.38,3.63,3.63,0,0,1-1.76-.55,5.31,5.31,0,0,1-1.64-1.44l-.08-.12a2.28,2.28,0,0,1-.43-1.22l-37.39-21.59-1.27-.73-1.62-.94a.84.84,0,0,1-.5-.73V390.5a.88.88,0,0,0,.5.75h0l4.29,2.47,36.16,20.88c.67.39,1.23.88,1.23,1.1v.38a1.18,1.18,0,0,0,.33.68,4.32,4.32,0,0,0,1.1.93c.8.46,1.45.48,1.45.05v-.38c0-.22.32-.21.72,0l.72.42C280.27,418.27,280.91,420.23,280.91,422.18Z" style="fill:#263238"></path><path d="M279.5,422.18v5.64c0,.15,0,.3,0,.44l0,.36a0,0,0,0,1,0,0A4.07,4.07,0,0,0,277.3,426a3.54,3.54,0,0,0-1.73-.54,1.88,1.88,0,0,0-1.26.47l-.13-.07-.25-.15-36.16-20.88-2.08-1.2-.59-.35-1.75-1a.84.84,0,0,1-.39-.68v1.66a.81.81,0,0,0,.36.64h0l.64.38c.14.07.27.15.4.23l.7.4.43.25.3.18.54.31,28.72,16.58,9.17,5.29c.65.38,1.19.52,1.22.32a.23.23,0,0,0,0-.07v-.37c0-.46.64-.46,1.44,0a2,2,0,0,1,1.13,1.45v.45a.68.68,0,0,0,.21.54l.21.12.46.26.56.33a.57.57,0,0,0,.71-.07.13.13,0,0,0,.07-.06,1.09,1.09,0,0,0,.13-.17h0a.42.42,0,0,0,.06-.08,2,2,0,0,0,.17-.36,2.77,2.77,0,0,0,.12-.41c0-.15.07-.31.1-.48a2.58,2.58,0,0,0,0-.29,1.79,1.79,0,0,0,0-.23,5.06,5.06,0,0,0,0-.56v-5.64Z" style="fill:#263238"></path></g><g id="freepik--book--inject-33"><path d="M273.66,367.36l1.33-.57-.85-.39s-.74.14-.76.16a3.19,3.19,0,0,0,0,.43Z" style="fill:#407BFF"></path><path d="M273.66,367.36l1.33-.57-.85-.39s-.74.14-.76.16a3.19,3.19,0,0,0,0,.43Z" style="opacity:0.5"></path><path d="M318.26,389.86a4.61,4.61,0,0,1-3.65-.15l-38.08-22,65.7-27.89,1.54-.65,38.07,22c.93.54.82,1.36-.26,1.81Z" style="fill:#407BFF"></path><path d="M308.36,350.87l-15.3,6.48-8.6-5-11.52,4.9s-.84,5.85-.95,6.66.77,2,1.18,1.82a10.73,10.73,0,0,1,2,.71,13.72,13.72,0,0,1,2.7,2L313,353.55Z" style="fill:#407BFF"></path><path d="M308.36,350.87l-15.3,6.48-8.6-5-11.52,4.9s-.84,5.85-.95,6.66.77,2,1.18,1.82a10.73,10.73,0,0,1,2,.71,13.72,13.72,0,0,1,2.7,2L313,353.55Z" style="opacity:0.15"></path><path d="M272,363.94c-.11.75.66,1.84,1.09,1.84h.09s1.41-.64,1.54-.65l1.75-3.46s.5-4.1.58-4.1a12.54,12.54,0,0,0-.57-1.77l-3.53,1.5S272.1,363.13,272,363.94Z" style="opacity:0.4"></path><path d="M314.61,389.71l-2.3-1.33-34.47-19.9a1.74,1.74,0,0,0-.34-1.16,4.36,4.36,0,0,0-1.45-1.29,3.79,3.79,0,0,0-1.68-.55,2.34,2.34,0,0,0-1.2.28,4.59,4.59,0,0,1-.31-2.66l-1.4-.06c-.24,1.67.16,3.36.89,3.78l.66.39c.37.21.69.24.71.05l0-.33c.05-.36.69-.31,1.43.11s1.28,1.06,1.23,1.42l-.05.33c0,.18.46.62,1.08,1L310.8,389l3.61,2.08h0a4.16,4.16,0,0,0,1.77.44l.2-1.39A4,4,0,0,1,314.61,389.71Z" style="fill:#407BFF"></path><path d="M314.61,389.71l-2.3-1.33-34.47-19.9a1.74,1.74,0,0,0-.34-1.16,4.36,4.36,0,0,0-1.45-1.29,3.79,3.79,0,0,0-1.68-.55,2.34,2.34,0,0,0-1.2.28,4.59,4.59,0,0,1-.31-2.66l-1.4-.06c-.24,1.67.16,3.36.89,3.78l.66.39c.37.21.69.24.71.05l0-.33c.05-.36.69-.31,1.43.11s1.28,1.06,1.23,1.42l-.05.33c0,.18.46.62,1.08,1L310.8,389l3.61,2.08h0a4.16,4.16,0,0,0,1.77.44l.2-1.39A4,4,0,0,1,314.61,389.71Z" style="opacity:0.30000000000000004"></path><path d="M382.46,362.09l-.2,1.42c-.05.32-.33.63-.85.86h0l-59.17,25.11-4.15,1.76h0a4.54,4.54,0,0,1-1.87.29l.2-1.39a4.59,4.59,0,0,0,1.88-.3l2.64-1.12h0L381.58,363C382.16,362.73,382.41,362.43,382.46,362.09Z" style="fill:#407BFF"></path><path d="M382.46,362.09l-.2,1.42c-.05.32-.33.63-.85.86h0l-59.17,25.11-4.15,1.76h0a4.54,4.54,0,0,1-1.87.29l.2-1.39a4.59,4.59,0,0,0,1.88-.3l2.64-1.12h0L381.58,363C382.16,362.73,382.41,362.43,382.46,362.09Z" style="opacity:0.2"></path><path d="M317.72,380.77l-1.16,8.13a2.67,2.67,0,0,1-1.18-.3l-4.18-2.41-31.81-18.37,1.21-8.48Z" style="fill:#ebebeb"></path><path d="M381.76,354.55l-.9,6.26a2.66,2.66,0,0,1-1.47,1.76l-56.77,24.09-4.81,2a2.82,2.82,0,0,1-1.25.2l1-7.27Z" style="fill:#f5f5f5"></path><path d="M278.74,358.26l-1,7.19-.12-.07a3.74,3.74,0,0,0-1.68-.55,2.25,2.25,0,0,0-1.2.28l1.21-8.47Z" style="fill:#37474f"></path><path d="M279.39,367.83a1.79,1.79,0,0,0-.35-1.17,3.42,3.42,0,0,0-.43-.51l-.16-.15-.2-.17-.17-.13a2.68,2.68,0,0,0-.37-.25l1-7.19,1.86,1.07Z" style="fill:#e0e0e0"></path><path d="M343.65,329.92,278,357.81l-.1.7c-.05.4-.71.51-1.44.09s-1.31-.94-1.22-1.61l0-.68,66.94-28.4.27-.12a.56.56,0,0,1,.06.33l0,.33C342.38,328.84,342.92,329.49,343.65,329.92Z" style="fill:#407BFF"></path><path d="M343.65,329.92,278,357.81l-.1.7c-.05.4-.71.51-1.44.09s-1.31-.94-1.22-1.61l0-.68,66.94-28.4.27-.12a.56.56,0,0,1,.06.33l0,.33C342.38,328.84,342.92,329.49,343.65,329.92Z" style="opacity:0.1"></path><path d="M316,379.79,278.8,358.3c-.48-.25-.92-.46-1.13-.38l.28-.11,65.7-27.89.77-.32a2.55,2.55,0,0,1,1.9.32l36.94,21.33c.93.55.82,1.36-.26,1.81l-63.32,26.88A4.61,4.61,0,0,1,316,379.79Z" style="fill:#407BFF"></path><path d="M342.42,327.79l-.27.12-66.94,28.4a.42.42,0,0,0-.11-.15l-.2-.11-.41-.24-.52-.3a.65.65,0,0,0-.72,0,.12.12,0,0,0-.07,0,1.12,1.12,0,0,0-.23.21,2.23,2.23,0,0,0-.2.3,2.71,2.71,0,0,0-.18.34c-.05.13-.1.26-.15.41a2.17,2.17,0,0,0-.07.24,1.46,1.46,0,0,1-.05.2l-.09.47.22-1.51a3.72,3.72,0,0,1,2.17-2.33L337.93,327a4.29,4.29,0,0,1,3.28-.07l.69.41h0l.29.17h0A.42.42,0,0,1,342.42,327.79Z" style="fill:#407BFF"></path><path d="M316,379.8h0l-2.3-1.33-26.48-15.28-8.46-4.88c-.6-.35-1.11-.49-1.17-.32h0l-.06.36c-.05.39-.69.37-1.42-.06s-1-.89-.95-1.27l.06-.39a.51.51,0,0,0-.15-.47l-.2-.11-.41-.24-.52-.3a.65.65,0,0,0-.72,0,.12.12,0,0,0-.07,0,.5.5,0,0,0-.15.14l-.08.07a2.23,2.23,0,0,0-.2.3,2.71,2.71,0,0,0-.18.34c-.05.13-.1.26-.15.41a2.17,2.17,0,0,0-.07.24,1.46,1.46,0,0,1-.05.2l-.09.47-.75,5.28,1.4.06.76-5.28c0-.13,0-.25.07-.37l.08-.3s0,0,0,0a3.16,3.16,0,0,0,1.79,2.35,3.69,3.69,0,0,0,1.65.53,2.24,2.24,0,0,0,1.32-.35l.11.07.23.13,33.34,19.25,3.61,2.08h0a3.89,3.89,0,0,0,1.74.43l.2-1.39A4,4,0,0,1,316,379.8Z" style="fill:#407BFF"></path><path d="M316,379.8h0l-2.3-1.33-26.48-15.28-8.46-4.88c-.6-.35-1.11-.49-1.17-.32h0l-.06.36c-.05.39-.69.37-1.42-.06s-1-.89-.95-1.27l.06-.39a.51.51,0,0,0-.15-.47l-.2-.11-.41-.24-.52-.3a.65.65,0,0,0-.72,0,.12.12,0,0,0-.07,0,.5.5,0,0,0-.15.14l-.08.07a2.23,2.23,0,0,0-.2.3,2.71,2.71,0,0,0-.18.34c-.05.13-.1.26-.15.41a2.17,2.17,0,0,0-.07.24,1.46,1.46,0,0,1-.05.2l-.09.47-.75,5.28,1.4.06.76-5.28c0-.13,0-.25.07-.37l.08-.3s0,0,0,0a3.16,3.16,0,0,0,1.79,2.35,3.69,3.69,0,0,0,1.65.53,2.24,2.24,0,0,0,1.32-.35l.11.07.23.13,33.34,19.25,3.61,2.08h0a3.89,3.89,0,0,0,1.74.43l.2-1.39A4,4,0,0,1,316,379.8Z" style="opacity:0.30000000000000004"></path><path d="M383.88,352.17l-.2,1.42c-.05.32-.33.63-.85.86h0l-59.17,25.11-4.15,1.76h0a4.54,4.54,0,0,1-1.87.29l.2-1.39a4.43,4.43,0,0,0,1.88-.3l2.64-1.12h0L383,353.06C383.58,352.82,383.83,352.51,383.88,352.17Z" style="fill:#407BFF"></path><path d="M383.88,352.17l-.2,1.42c-.05.32-.33.63-.85.86h0l-59.17,25.11-4.15,1.76h0a4.54,4.54,0,0,1-1.87.29l.2-1.39a4.43,4.43,0,0,0,1.88-.3l2.64-1.12h0L383,353.06C383.58,352.82,383.83,352.51,383.88,352.17Z" style="opacity:0.2"></path><path d="M338.19,337.31l5.05,2.91,3.1-1.31,1.41.81c.41.24.43.39.22.48a2.7,2.7,0,0,1-.79.1l-2.19.93,5.12,3L341,348l-1.73-1,.88-.38-3.38-2-6,2.56-1.75-1,6-2.56-3.33-1.92-1,.42-1.72-1Zm-.15,1.78-4.46,1.9,3.33,1.92,4.46-1.9Zm8.48,4.9-3.4-2-4.46,1.9,3.39,2Z" style="fill:#fafafa"></path><path d="M365.58,353.08l-1.93.82-1.89-1.1s0,0-.07.06a1.75,1.75,0,0,1-.72,0,54.94,54.94,0,0,1-9.54,1.28c.08,1.3.93,2.54,2.6,4-1.22.14-2.58.28-3.56.42-1.34-1.62-2.08-3-2-4.45a37.82,37.82,0,0,1-8.63-1.57,9.12,9.12,0,0,0,1-1.6,29.33,29.33,0,0,0,7.91,1.73c.48-1.31,1.9-2.86,4.48-4.76l-2.11-1.22,1.93-.82,5.36,3.1,3-1.29,1.36.79c.43.25.44.39.27.46a1.73,1.73,0,0,1-.68.07l-2.27,1ZM355.13,349a10.2,10.2,0,0,0-3.44,3.73,43.89,43.89,0,0,0,8-1.09Z" style="fill:#fafafa"></path><path d="M310.06,351.28a4.73,4.73,0,0,1,2.13-1.36,9.63,9.63,0,0,1,3-.81,3.94,3.94,0,0,1,2.29.5,1.73,1.73,0,0,1,.52.4c.09.11,0,.21-.19.3a3.27,3.27,0,0,1-.74.21c-.25.05-.4,0-.45,0a1.11,1.11,0,0,0-.37-.3,1.75,1.75,0,0,0-1.16-.15,7.6,7.6,0,0,0-1.79.55,4.56,4.56,0,0,0-1.37.79c-.21.23-.17.44.14.62l.25.12.33.1.07,0c.1.05.09.12,0,.22a2.42,2.42,0,0,1-.56.31,1,1,0,0,1-.28.07.71.71,0,0,1-.32,0,2.72,2.72,0,0,1-.42-.15,2.77,2.77,0,0,1-.46-.22C310,352.08,309.81,351.68,310.06,351.28Z" style="fill:#263238"></path><path d="M312.91,353.39l6.06-2.58a.82.82,0,0,1,.72.11l.3.18c.27.15.3.27.1.36l-2.34,1,1.22.7,2.34-1a.79.79,0,0,1,.71.11l.3.17c.27.16.31.28.1.37l-6.06,2.57a.76.76,0,0,1-.71-.11l-.3-.17c-.27-.16-.31-.28-.11-.37l2.48-1L316.5,353,314,354a.78.78,0,0,1-.71-.1l-.3-.18C312.74,353.6,312.71,353.47,312.91,353.39Z" style="fill:#263238"></path><path d="M317.5,356l6.06-2.58a.84.84,0,0,1,.73.11l.3.17c.27.16.3.28.09.37l-6.06,2.57a.77.77,0,0,1-.72-.1l-.3-.17C317.32,356.25,317.29,356.13,317.5,356Z" style="fill:#263238"></path><path d="M319.72,357.32l6.06-2.57a.78.78,0,0,1,.72.11l.19.1a.44.44,0,0,1,.17.16s0,.1-.07.17l-1.81,2a4.28,4.28,0,0,1-.5.45h0a7.53,7.53,0,0,1,.69-.35l3-1.28a.76.76,0,0,1,.71.11l.17.1c.28.15.32.28.11.36l-6.06,2.58a.82.82,0,0,1-.72-.11l-.13-.08a.41.41,0,0,1-.18-.16q0-.08.06-.18l1.86-2.15a4.45,4.45,0,0,1,.42-.37h-.07c-.25.14-.45.24-.59.3l-3.11,1.32a.81.81,0,0,1-.72-.1l-.17-.1C319.55,357.53,319.52,357.41,319.72,357.32Z" style="fill:#263238"></path><path d="M324.18,360.09s.09-.1.23-.16l5.87-2.49a.86.86,0,0,1,.35-.09.57.57,0,0,1,.29.08l2.1,1.21c.07,0,.09.09.05.14a1.08,1.08,0,0,1-.31.18l-.3.13a1.78,1.78,0,0,1-.41.12.46.46,0,0,1-.27,0l-1.25-.73-1.38.59,1.12.64c.07,0,.08.09,0,.14a1.08,1.08,0,0,1-.31.18l-.3.12a1.88,1.88,0,0,1-.41.13.39.39,0,0,1-.27-.05l-1.11-.64-1.53.66,1.26.72c.07,0,.08.09,0,.14a1,1,0,0,1-.32.18l-.29.12a1.45,1.45,0,0,1-.41.13.44.44,0,0,1-.26,0l-2.11-1.22C324.2,360.19,324.16,360.14,324.18,360.09Z" style="fill:#263238"></path><path d="M328.07,362.36a.45.45,0,0,1-.13-.45.58.58,0,0,1,.24-.19,3,3,0,0,1,.65-.17,1,1,0,0,1,.51,0s.06.07.09.15,0,.13,0,.16a.65.65,0,0,0,.31.36,1.3,1.3,0,0,0,1.17.05.84.84,0,0,0,.35-.23.36.36,0,0,0,.08-.25,1.24,1.24,0,0,0-.07-.32,1,1,0,0,1,.08-.82,2.21,2.21,0,0,1,1-.66,4.08,4.08,0,0,1,1.74-.33,3.3,3.3,0,0,1,1.57.42,1.52,1.52,0,0,1,.41.34.56.56,0,0,1,.18.34c0,.09-.06.16-.2.22a3.63,3.63,0,0,1-.6.17.74.74,0,0,1-.48,0,.4.4,0,0,1-.13-.15.92.92,0,0,0-.32-.33,1.11,1.11,0,0,0-.56-.16,1.4,1.4,0,0,0-.47.1c-.23.1-.37.2-.4.31a.72.72,0,0,0,0,.42l0,.15a.87.87,0,0,1-.11.75,2.14,2.14,0,0,1-.93.61,4.52,4.52,0,0,1-1.15.32,4.29,4.29,0,0,1-1.24,0,3.07,3.07,0,0,1-1.14-.38A2,2,0,0,1,328.07,362.36Z" style="fill:#263238"></path><path d="M331.26,364.17c0-.05.09-.1.22-.16l5.87-2.49a.87.87,0,0,1,.36-.08.59.59,0,0,1,.29.07l2.1,1.22c.07,0,.08.08,0,.13a.78.78,0,0,1-.31.19l-.29.12a1.48,1.48,0,0,1-.41.12.39.39,0,0,1-.27,0l-1.26-.72-1.37.58,1.11.64c.07,0,.09.09,0,.14a.84.84,0,0,1-.31.18l-.29.13a1.48,1.48,0,0,1-.41.12.46.46,0,0,1-.27,0l-1.11-.64-1.54.65,1.26.73c.07,0,.09.08,0,.13a1,1,0,0,1-.31.18l-.29.13a1.48,1.48,0,0,1-.41.12.34.34,0,0,1-.27,0l-2.11-1.21C331.28,364.28,331.24,364.22,331.26,364.17Z" style="fill:#263238"></path><path d="M298.61,355.73c0-.05.1-.1.23-.16l5.87-2.49a.87.87,0,0,1,.36-.09.57.57,0,0,1,.28.08l2.1,1.21c.08,0,.09.09.05.14a1.08,1.08,0,0,1-.31.18l-.3.13a1.39,1.39,0,0,1-.41.12.46.46,0,0,1-.27,0l-1.25-.72-1.37.58,1.11.64c.07,0,.08.09,0,.14a1,1,0,0,1-.31.18l-.29.13a2.11,2.11,0,0,1-.41.12.46.46,0,0,1-.27,0l-1.11-.64-1.54.65,1.26.72c.07.05.08.09,0,.14a1.08,1.08,0,0,1-.31.18l-.3.13a1.43,1.43,0,0,1-.4.12.39.39,0,0,1-.27,0l-2.11-1.22C298.63,355.83,298.6,355.78,298.61,355.73Z" style="fill:#263238"></path><path d="M302.32,357.68l6.06-2.58a.82.82,0,0,1,.72.11l.18.11a.41.41,0,0,1,.18.15s0,.11-.07.17l-1.81,2.05c-.1.11-.27.26-.5.46h.05a7.53,7.53,0,0,1,.69-.35l3-1.29a.82.82,0,0,1,.72.11l.17.1c.27.16.31.28.11.37l-6.06,2.57a.78.78,0,0,1-.72-.11l-.14-.08a.47.47,0,0,1-.18-.15c0-.05,0-.11.06-.18l1.87-2.15a2.93,2.93,0,0,1,.41-.37H307a6,6,0,0,1-.59.31l-3.12,1.32a.76.76,0,0,1-.71-.11l-.17-.1C302.15,357.88,302.11,357.76,302.32,357.68Z" style="fill:#263238"></path><path d="M313.52,360.63c0,.05-.09.1-.22.16L310.47,362a1.14,1.14,0,0,1-.61,0,4.07,4.07,0,0,1-.8-.2,4.41,4.41,0,0,1-.71-.31c-.67-.39-.88-.79-.64-1.2a4.56,4.56,0,0,1,2.1-1.37,9.38,9.38,0,0,1,3-.8,3.93,3.93,0,0,1,2.31.5,2,2,0,0,1,.53.4.78.78,0,0,1,.22.39.2.2,0,0,1-.13.24,2.4,2.4,0,0,1-.41.09,3.39,3.39,0,0,1-.54.05.74.74,0,0,1-.35,0,.26.26,0,0,1-.08-.12,1.05,1.05,0,0,0-.15-.21,1.16,1.16,0,0,0-.3-.22,1.84,1.84,0,0,0-1.18-.17,7.33,7.33,0,0,0-1.8.55,4.63,4.63,0,0,0-1.44.81c-.18.21-.14.4.13.55a1.21,1.21,0,0,0,.33.15l1.38-.58-.36-.21c-.08,0-.09-.09-.05-.14a1.08,1.08,0,0,1,.31-.18l.31-.13a1.88,1.88,0,0,1,.41-.13.45.45,0,0,1,.27.05l1.17.67C313.5,360.53,313.54,360.58,313.52,360.63Z" style="fill:#263238"></path><path d="M311.06,362.92c0-.05.09-.1.23-.16l6-2.53a.76.76,0,0,1,.71.11l.29.16c.27.16.31.28.11.37L313.26,363l1.06.62c.08,0,.09.09.05.14a1,1,0,0,1-.31.18l-.29.13a1.58,1.58,0,0,1-.41.12.42.42,0,0,1-.28-.05l-1.91-1.1C311.08,363,311,363,311.06,362.92Z" style="fill:#263238"></path><path d="M314.42,364.66l6.06-2.57a.77.77,0,0,1,.72.1l.3.18c.27.15.31.27.1.36l-6.07,2.58a.81.81,0,0,1-.72-.11l-.3-.17C314.24,364.87,314.21,364.75,314.42,364.66Z" style="fill:#263238"></path><path d="M316.82,366.27c-.13-.17-.18-.32-.12-.45a.52.52,0,0,1,.24-.19,2.94,2.94,0,0,1,.64-.17,1,1,0,0,1,.51,0,.22.22,0,0,1,.09.15l.05.16a.67.67,0,0,0,.3.36,1.22,1.22,0,0,0,.53.16,1.16,1.16,0,0,0,.64-.11.84.84,0,0,0,.35-.23.37.37,0,0,0,.09-.25,2.11,2.11,0,0,0-.08-.32,1,1,0,0,1,.08-.82,2.21,2.21,0,0,1,1-.66,4.1,4.1,0,0,1,1.75-.33,3.29,3.29,0,0,1,1.56.42,1.57,1.57,0,0,1,.42.34.7.7,0,0,1,.18.34c0,.09-.07.16-.21.22a2.55,2.55,0,0,1-.6.17.74.74,0,0,1-.48,0,.4.4,0,0,1-.13-.15.92.92,0,0,0-.32-.33,1,1,0,0,0-.55-.15,1.21,1.21,0,0,0-.48.09c-.23.1-.36.2-.39.31a.7.7,0,0,0,0,.42l0,.15a.84.84,0,0,1-.11.75,2.1,2.1,0,0,1-.92.61,4.72,4.72,0,0,1-1.16.32,4.29,4.29,0,0,1-1.24,0,3.07,3.07,0,0,1-1.14-.38A2,2,0,0,1,316.82,366.27Z" style="fill:#263238"></path><path d="M320.14,368l6.06-2.57a.82.82,0,0,1,.72.11l.3.17c.27.16.3.28.1.37L325,367l1.22.7,2.34-1a.76.76,0,0,1,.71.11l.29.17c.28.16.32.28.11.37L323.59,370a.79.79,0,0,1-.71-.11l-.3-.17c-.27-.16-.31-.28-.11-.37l2.48-1.05-1.22-.7-2.47,1.05a.76.76,0,0,1-.71-.11l-.3-.17C320,368.17,319.94,368.05,320.14,368Z" style="fill:#263238"></path></g></g></g><g id="freepik--Lamp--inject-33"><g id="freepik--lamp--inject-33"><path id="freepik--shadow--inject-33" d="M453.43,314.47c9.42,5.21,9.42,13.67,0,18.88s-24.69,5.22-34.11,0-9.42-13.67,0-18.88S444,309.26,453.43,314.47Z" style="fill:#407BFF;opacity:0.2"></path><path d="M456.11,321.53A7.06,7.06,0,0,0,456,320c-.94-5.88-6-12.25-9.57-14.27h-20c-3.55,2-8.63,8.38-9.58,14.27a7,7,0,0,0-.15,1.58c0,.09,0,.27,0,.27.19,2.76,2.09,5.5,5.75,7.61,7.71,4.46,20.22,4.46,27.93,0,3.66-2.11,5.56-4.85,5.74-7.61A2.33,2.33,0,0,0,456.11,321.53Z" style="fill:#407BFF"></path><g style="opacity:0.15"><path d="M456.11,321.53A7.06,7.06,0,0,0,456,320c-.94-5.88-6-12.25-9.57-14.27h-20c-3.55,2-8.63,8.38-9.58,14.27a7,7,0,0,0-.15,1.58c0,.09,0,.27,0,.27.19,2.76,2.09,5.5,5.75,7.61,7.71,4.46,20.22,4.46,27.93,0,3.66-2.11,5.56-4.85,5.74-7.61A2.33,2.33,0,0,0,456.11,321.53Z"></path></g><path d="M426.88,305.36c-5.24,3-5.24,7.93,0,11s13.74,3,19,0,5.24-7.94,0-11S432.12,302.33,426.88,305.36Z" style="fill:#407BFF"></path><path d="M439.57,311.14a4.4,4.4,0,0,0,.61-.81L459.68,267l-6.13-3.22-20.61,45.36h0c-.56,1.14-.57,1.89.64,2.59a5.85,5.85,0,0,0,5.28,0,2.72,2.72,0,0,0,.63-.5h0Z" style="fill:#407BFF"></path><path d="M439.57,311.14a4.4,4.4,0,0,0,.61-.81L459.68,267l-6.13-3.22-20.61,45.36h0c-.56,1.14-.57,1.89.64,2.59a5.85,5.85,0,0,0,5.28,0,2.72,2.72,0,0,0,.63-.5h0Z" style="opacity:0.5"></path><path d="M455.92,255.28v0a3.06,3.06,0,0,0-3.1,1.08,9.91,9.91,0,0,0-2.29,8.69,3.3,3.3,0,0,0,1.78,2.35v0l6.87,2.57,3.41-12.23Z" style="fill:#407BFF"></path><g style="opacity:0.15"><path d="M455.92,255.28v0a3.06,3.06,0,0,0-3.1,1.08,9.91,9.91,0,0,0-2.29,8.69,3.3,3.3,0,0,0,1.78,2.35v0l6.87,2.57,3.41-12.23Z"></path></g><path d="M459.57,258.91a9.94,9.94,0,0,0-2.29,8.69c.75,2.77,3,3.36,5,1.33a9.94,9.94,0,0,0,2.28-8.69C463.83,257.47,461.59,256.88,459.57,258.91Z" style="fill:#407BFF"></path><path d="M444.3,209.72a5.1,5.1,0,0,0-4.45,1.22,1.53,1.53,0,0,0-.53,1.63h0l14.09,46h0a1.69,1.69,0,0,0,1.22.92,5.12,5.12,0,0,0,4.46-1.22,1.54,1.54,0,0,0,.53-1.63h0l-14.06-45.9h0A1.66,1.66,0,0,0,444.3,209.72Z" style="fill:#407BFF"></path><g style="opacity:0.5"><path d="M444.3,209.72a5.1,5.1,0,0,0-4.45,1.22,1.53,1.53,0,0,0-.53,1.63h0l14.09,46h0a1.69,1.69,0,0,0,1.22.92,5.12,5.12,0,0,0,4.46-1.22,1.54,1.54,0,0,0,.53-1.63h0l-14.06-45.9h0A1.66,1.66,0,0,0,444.3,209.72Z"></path></g><path d="M447.83,208.92c2.24-1.59,1.9-5.78.64-8.51s-4.25-5.68-6.91-5-11.37,4.47-11.37,4.47l7.11,15.31S445.58,210.51,447.83,208.92Z" style="fill:#407BFF"></path><path d="M447.83,208.92c2.24-1.59,1.9-5.78.64-8.51s-4.25-5.68-6.91-5-11.37,4.47-11.37,4.47l7.11,15.31S445.58,210.51,447.83,208.92Z" style="opacity:0.25"></path><path d="M445.7,196.78c1.59,3.47-2.2,10.82-10.65,13.58l2.25,4.84s8.28-4.69,10.53-6.28,1.9-5.78.64-8.51A11.23,11.23,0,0,0,445.7,196.78Z" style="opacity:0.15"></path><path d="M415.77,241.67c8.8-4.08,26.93-24,21.46-35.74s-32.36-10.76-41.16-6.67" style="fill:#407BFF"></path><path d="M415.77,241.67c8.8-4.08,26.93-24,21.46-35.74s-32.36-10.76-41.16-6.67" style="opacity:0.15"></path><path d="M391.66,208.86c.18-10.15,6.72-13.19,14.6-6.78s14.11,19.84,13.92,30-6.72,13.19-14.6,6.78S391.47,219,391.66,208.86Z" style="fill:#407BFF"></path><path d="M391.66,208.86c.18-10.15,6.72-13.19,14.6-6.78s14.11,19.84,13.92,30-6.72,13.19-14.6,6.78S391.47,219,391.66,208.86Z" style="opacity:0.5"></path><path d="M418.74,224.92l.58-.31a46.51,46.51,0,0,0-8-17.21c-.19.07-.39.14-.58.23a9.53,9.53,0,0,0,8,17.29Z" style="fill:#407BFF"></path><path d="M418.74,224.92l.58-.31a46.51,46.51,0,0,0-8-17.21c-.19.07-.39.14-.58.23a9.53,9.53,0,0,0,8,17.29Z" style="fill:#fff;opacity:0.7000000000000001"></path></g></g><g id="freepik--Drink--inject-33"><g id="freepik--Coffee--inject-33"><path id="freepik--shadow--inject-33" d="M365.78,324c7.27-3.8,18.91-3.89,26-.21s7.14,9.75.11,13.55-18.66,3.89-26,.21S358.52,327.76,365.78,324Z" style="fill:#407BFF;opacity:0.2"></path><g id="freepik--coffee--inject-33"><g id="freepik--coffee--inject-33"><path d="M366.85,298.44c6.66-2.54,17.33-2.66,23.83-.27s6.54,6.39.1,8.93-17.11,2.65-23.83.26S360.18,301,366.85,298.44Z" style="fill:#407BFF"></path><g style="opacity:0.30000000000000004"><path d="M366.85,298.44c6.66-2.54,17.33-2.66,23.83-.27s6.54,6.39.1,8.93-17.11,2.65-23.83.26S360.18,301,366.85,298.44Z"></path></g><path d="M361.43,290.38l34.33-.34-2.16,40.48h0c-.15,1.47-1.51,2.94-4.12,4.1-5.56,2.46-14.78,2.56-20.59.22-2.73-1.09-4.17-2.53-4.35-4h0Z" style="fill:#fafafa"></path><path d="M395.76,290l-.44,8.22a14.76,14.76,0,0,1-2.85,1.57c-7.39,3.16-19.63,3.29-27.35.3-.33-.12-.61-.27-.91-.4a18.56,18.56,0,0,1-2.17-1.19l-.61-8.16Z" style="fill:#ebebeb"></path><path d="M359.27,291.6l-.07-6.18,4,0a16.84,16.84,0,0,1,1.75-.83c7.65-3.16,19.89-3.3,27.35-.3A16.68,16.68,0,0,1,394,285l3.88-.05.07,6.19h0c0,2-1.81,4.05-5.51,5.63-7.38,3.15-19.63,3.29-27.34.3C361.23,295.61,359.29,293.62,359.27,291.6Z" style="fill:#407BFF"></path><g style="opacity:0.2"><path d="M359.27,291.6l-.07-6.18,4,0a16.84,16.84,0,0,1,1.75-.83c7.65-3.16,19.89-3.3,27.35-.3A16.68,16.68,0,0,1,394,285l3.88-.05.07,6.19h0c0,2-1.81,4.05-5.51,5.63-7.38,3.15-19.63,3.29-27.34.3C361.23,295.61,359.29,293.62,359.27,291.6Z"></path></g><path d="M364.9,279.79c7.64-3.16,19.89-3.29,27.34-.3s7.52,8,.13,11.13-19.64,3.29-27.35.3S357.25,283,364.9,279.79Z" style="fill:#407BFF"></path><path d="M362.74,283.89h0l1.19-5.12,9.82-.11a39.86,39.86,0,0,1,9.76-.1l9.53-.11,1.3,5.09h0c.63,1.84-.81,3.8-4.38,5.26-6.09,2.5-16.19,2.61-22.54.25C363.66,287.68,362.12,285.75,362.74,283.89Z" style="fill:#407BFF"></path><path d="M362.74,283.89h0l1.19-5.12,9.82-.11a39.86,39.86,0,0,1,9.76-.1l9.53-.11,1.3,5.09h0c.63,1.84-.81,3.8-4.38,5.26-6.09,2.5-16.19,2.61-22.54.25C363.66,287.68,362.12,285.75,362.74,283.89Z" style="opacity:0.2"></path><path d="M368.15,275.48c5.79-2.18,15.06-2.28,20.7-.23s5.68,5.48.09,7.65-14.87,2.28-20.71.23S362.36,277.66,368.15,275.48Z" style="fill:#407BFF"></path><path d="M365.85,279.34c0,.08.16.35.65.71a8.91,8.91,0,0,0,2.4,1.18,30.06,30.06,0,0,0,9.75,1.37,28.8,28.8,0,0,0,9.56-1.57,8,8,0,0,0,2.29-1.24c.47-.39.6-.67.6-.74s-.52-1-2.93-1.91a28.72,28.72,0,0,0-9.59-1.35,30.08,30.08,0,0,0-9.73,1.57C366.45,278.26,365.86,279.16,365.85,279.34Z" style="fill:#407BFF"></path><g style="opacity:0.5"><path d="M365.85,279.34c0,.08.16.35.65.71a8.91,8.91,0,0,0,2.4,1.18,30.06,30.06,0,0,0,9.75,1.37,28.8,28.8,0,0,0,9.56-1.57,8,8,0,0,0,2.29-1.24c.47-.39.6-.67.6-.74s-.52-1-2.93-1.91a28.72,28.72,0,0,0-9.59-1.35,30.08,30.08,0,0,0-9.73,1.57C366.45,278.26,365.86,279.16,365.85,279.34Z"></path></g><path d="M366.5,280.05a8.91,8.91,0,0,0,2.4,1.18,30.06,30.06,0,0,0,9.75,1.37,28.8,28.8,0,0,0,9.56-1.57,8,8,0,0,0,2.29-1.24,8.12,8.12,0,0,0-2.31-1.19,28.77,28.77,0,0,0-9.6-1.36,30,30,0,0,0-9.72,1.58A9.47,9.47,0,0,0,366.5,280.05Z" style="fill:#407BFF"></path><g style="opacity:0.2"><path d="M366.5,280.05a8.91,8.91,0,0,0,2.4,1.18,30.06,30.06,0,0,0,9.75,1.37,28.8,28.8,0,0,0,9.56-1.57,8,8,0,0,0,2.29-1.24,8.12,8.12,0,0,0-2.31-1.19,28.77,28.77,0,0,0-9.6-1.36,30,30,0,0,0-9.72,1.58A9.47,9.47,0,0,0,366.5,280.05Z"></path></g><g style="opacity:0.5"><path d="M372.33,280.12a3,3,0,0,0-2.31-.41c-.42.24-.07.82.78,1.3a2.89,2.89,0,0,0,2.31.41C373.53,281.17,373.18,280.59,372.33,280.12Z"></path></g><path d="M394.77,317.43c0,1.52-1.49,3.06-4.52,4.26-6.07,2.39-16.13,2.5-22.46.25-3.16-1.13-4.75-2.63-4.77-4.15L361.88,303c0,1.62,1.71,3.21,5.07,4.41,6.72,2.39,17.39,2.27,23.83-.26,3.22-1.27,4.82-2.9,4.8-4.52Z" style="fill:#407BFF"></path><g style="opacity:0.35000000000000003"><path d="M394.77,317.43c0,1.52-1.49,3.06-4.52,4.26-6.07,2.39-16.13,2.5-22.46.25-3.16-1.13-4.75-2.63-4.77-4.15L361.88,303c0,1.62,1.71,3.21,5.07,4.41,6.72,2.39,17.39,2.27,23.83-.26,3.22-1.27,4.82-2.9,4.8-4.52Z" style="fill:#fff"></path></g><path d="M384.3,318.43a21.76,21.76,0,0,0,1.31-2.54,7.49,7.49,0,0,1,3.85-3.46.48.48,0,0,1,.6.21,5.81,5.81,0,0,1-7.16,7.41c-.1,0-.13-.23,0-.28A5,5,0,0,0,384.3,318.43Z" style="fill:#37474f"></path><path d="M388.52,312a8.07,8.07,0,0,0-2.43,1.53,7.48,7.48,0,0,0-1.75,2.45,7.2,7.2,0,0,1-2.19,3,.49.49,0,0,1-.67-.1c-1.16-1.72-.74-4.37,1.12-6.27s4.24-2.34,6-1.44A.47.47,0,0,1,388.52,312Z" style="fill:#37474f"></path></g></g></g></g><g id="freepik--Plant--inject-33"><g id="freepik--plant--inject-33"><g id="freepik--Pot--inject-33"><g style="opacity:0.2"><path d="M225.1,435.3c7.4,4.27,7.4,11.2,0,15.48s-19.41,4.27-26.81,0-7.41-11.21,0-15.48S217.69,431,225.1,435.3Z" style="fill:#407BFF"></path></g><path d="M199.9,444c-6.45-6.58-10.24-23-4-28.22h32C234.24,421,230.46,437.4,224,444l-.17.18-.22.22c-.19.17-.38.34-.59.51l-.15.12-.49.37a8.39,8.39,0,0,1-.83.54c-5.31,3.06-13.91,3.06-19.21,0h0a9.88,9.88,0,0,1-.84-.54c-.16-.11-.31-.23-.45-.34l-.19-.15c-.2-.17-.39-.33-.57-.5l-.25-.25Z" style="fill:#f0f0f0"></path><path d="M225.18,413.66c7.3,4.22,7.3,11,0,15.27s-19.14,4.22-26.45,0-7.3-11.05,0-15.27S217.87,409.45,225.18,413.66Z" style="fill:#fafafa"></path><path d="M220,416.65c4.44,2.57,4.44,6.73,0,9.29s-11.65,2.57-16.09,0-4.44-6.72,0-9.29S215.56,414.09,220,416.65Z" style="fill:#e0e0e0"></path><path d="M203.91,421.06c4.44-2.56,11.65-2.56,16.09,0a7.4,7.4,0,0,1,2.66,2.44,7.4,7.4,0,0,1-2.66,2.44c-4.44,2.57-11.65,2.57-16.09,0a7.4,7.4,0,0,1-2.66-2.44A7.4,7.4,0,0,1,203.91,421.06Z" style="fill:#455a64"></path><path d="M219,423.5a36.51,36.51,0,0,0,5.82-7.73c2.68-4.76,5-10.79,3.59-11.58s-8.84,5.24-8.84,5.24a34.43,34.43,0,0,0,.59-8.11c-.24-4.23-1.27-8.08-2.48-8.86s-3.92,4.57-5.08,8.44-1.63,6.27-1.63,6.27-1-4.45-2.32-8.13c-1.41-4-2.69-4.92-3.68-4.53s-1.64,2.27-1.94,7.62a53.5,53.5,0,0,0,.24,7.66s-2-2.19-4.2-4.32c-2.43-2.33-4.15-2.33-4.85-1.88s-.21,3.75,3.56,10.56a37.92,37.92,0,0,0,7.1,9.35S210.12,426.86,219,423.5Z" style="fill:#407BFF"></path><g style="opacity:0.2"><path d="M219,423.5a36.51,36.51,0,0,0,5.82-7.73c2.68-4.76,5-10.79,3.59-11.58s-8.84,5.24-8.84,5.24a34.43,34.43,0,0,0,.59-8.11c-.24-4.23-1.27-8.08-2.48-8.86s-3.92,4.57-5.08,8.44-1.63,6.27-1.63,6.27-1-4.45-2.32-8.13c-1.41-4-2.69-4.92-3.68-4.53s-1.64,2.27-1.94,7.62a53.5,53.5,0,0,0,.24,7.66s-2-2.19-4.2-4.32c-2.43-2.33-4.15-2.33-4.85-1.88s-.21,3.75,3.56,10.56a37.92,37.92,0,0,0,7.1,9.35S210.12,426.86,219,423.5Z"></path></g><path d="M212.62,400.9c-1.17,3.87-1.63,6.27-1.63,6.27h0l.7,3.33s.73-7.28,1.76-12C213.13,399.33,212.84,400.14,212.62,400.9Z" style="opacity:0.2"></path><path d="M204.57,406.73a47.81,47.81,0,0,1-1-9.28,37.93,37.93,0,0,0-.49,4.68,53.5,53.5,0,0,0,.24,7.66l5.14,5.39A45.81,45.81,0,0,1,204.57,406.73Z" style="opacity:0.2"></path><path d="M216.35,412.59l3.24-3.16h0a34.5,34.5,0,0,0,.59-8.11,29,29,0,0,0-.65-4.8,22.66,22.66,0,0,1-.38,7.78A73,73,0,0,1,216.35,412.59Z" style="opacity:0.2"></path></g></g></g><g id="freepik--speech-bubbles--inject-33"><g id="freepik--speech-bubble--inject-33"><path d="M247.89,57.64H199a4.46,4.46,0,0,0-4.46,4.46V82.53A4.46,4.46,0,0,0,199,87h9.73c.25,3.4-1,6.24-3.2,7.66,5.33-.15,9.8-3.3,10.85-7.66h31.55a4.46,4.46,0,0,0,4.47-4.46V62.1A4.47,4.47,0,0,0,247.89,57.64Z" style="fill:#f0f0f0"></path><path d="M204.62,72.15c-1.27,0-1.9.53-1.9.86,0,1.2.85,3.43,1.48,5.86a4.5,4.5,0,0,1,.14,1,6.85,6.85,0,0,1-.26,1.7l-.28,0c0-1.37-1-3.7-1.69-6.12a5.28,5.28,0,0,1-.22-1.33,4.09,4.09,0,0,1,.3-1.53,3,3,0,0,1,1-1.5,9.69,9.69,0,0,1-.17-1.51,2.16,2.16,0,0,1,.65-1.39,1.61,1.61,0,0,1,1.07-.47,2.25,2.25,0,0,1,1.46.5A7.23,7.23,0,0,1,208,70.48a1.85,1.85,0,0,1,.15.74,2.91,2.91,0,0,1-.39,1.23A20.86,20.86,0,0,0,204.62,72.15Zm2.32-1.32c-.66-.88-1.37-1.74-2.47-1.74a2.27,2.27,0,0,0-.71.13l0,.6a6,6,0,0,1-.29,1.11,5.45,5.45,0,0,1,1.57-.2,9.46,9.46,0,0,1,1.81.23Z" style="fill:#fff"></path><path d="M214.07,68.17l.82,1.56a4.37,4.37,0,0,1,.58,2.2V73.2A5.3,5.3,0,0,1,214,76.42a2.73,2.73,0,0,1-1.91,1.06,6.8,6.8,0,0,1-3-.89l.13-.4a3.94,3.94,0,0,0,1.28.21,5,5,0,0,0,4.07-3.13,1.27,1.27,0,0,0,.13-.51,2.4,2.4,0,0,0-.16-.61,19.81,19.81,0,0,0-1.39-2.55c.26-.5.53-1,.82-1.44Z" style="fill:#fff"></path><path d="M222.9,70.36a8.3,8.3,0,0,0-3.22-.65,1.85,1.85,0,0,0-1.47.58l.23,1-.32.91-.13,0-.67-1.83a2.29,2.29,0,0,1,2.51-2.09,11.13,11.13,0,0,1,3.8,1,5.17,5.17,0,0,0,2,.37h1v0l-.7,1.17a19.36,19.36,0,0,0-3.09.77c-2.53.95-4.28,2.31-4.28,3.85,0,2.41,2.55,3.8,5.78,3.8a18.88,18.88,0,0,0,3-.25l0,.11a13.6,13.6,0,0,1-1.89,1.38,11.46,11.46,0,0,1-2.19.21c-3,0-5.58-1.48-5.58-4.7,0-2.76,2.33-5,5.21-5.63Z" style="fill:#fff"></path><path d="M234.28,74.61c-3.21,0-5.68-1.18-5.68-4a5.83,5.83,0,0,1,.69-2.81l.46.2a5.71,5.71,0,0,0-.34,1.76c0,2.34,2.31,3.3,5.22,3.3a17.46,17.46,0,0,0,4-.5,8.15,8.15,0,0,0,1.52-.47c.1,0,.12-.09.12-.13a9.45,9.45,0,0,0-1.16-2.86,9.3,9.3,0,0,1,.87-1.31H240a8.24,8.24,0,0,1,1.16,3.53,3.42,3.42,0,0,1-.62,1.94A15.58,15.58,0,0,1,234.28,74.61Zm.4,2.07a9.9,9.9,0,0,1,1.39,1.24,4.28,4.28,0,0,1-1,1.13c-.45-.42-.9-.8-1.36-1.19C234.06,77.44,234.37,77,234.68,76.68Z" style="fill:#fff"></path><path d="M243.37,74.34A14.77,14.77,0,0,0,243.5,72V70.89c0-2.12-.23-5.2-.42-7.21a11.16,11.16,0,0,1,1.14-1.22l.1,0c.25,2.53.3,5.46.3,8.15a17.94,17.94,0,0,1-.08,1.92,2.94,2.94,0,0,1-1,1.86Z" style="fill:#fff"></path></g><g id="freepik--speech-bubble--inject-33"><path d="M307.27,116.19H258.34a4.47,4.47,0,0,0-4.46,4.47v20.42a4.46,4.46,0,0,0,4.46,4.46h9.73c.25,3.4-1,6.24-3.2,7.66,5.33-.15,9.79-3.3,10.85-7.66h31.55a4.45,4.45,0,0,0,4.46-4.46V120.66A4.46,4.46,0,0,0,307.27,116.19Z" style="fill:#f0f0f0"></path><path d="M273.25,124.8a.53.53,0,0,1,.39.16.56.56,0,0,1,.17.4v13.33a.58.58,0,0,1-.56.56h-1.67a.54.54,0,0,1-.4-.17.53.53,0,0,1-.16-.39v-5.45h-6.24v5.45a.53.53,0,0,1-.16.39.54.54,0,0,1-.39.17h-1.67a.54.54,0,0,1-.4-.16.51.51,0,0,1-.16-.4V125.36a.55.55,0,0,1,.16-.4.54.54,0,0,1,.4-.16h1.67a.53.53,0,0,1,.39.16.55.55,0,0,1,.16.4v5.3H271v-5.3a.55.55,0,0,1,.16-.4.54.54,0,0,1,.4-.16Z" style="fill:#fff"></path><path d="M281.57,128.31a5.8,5.8,0,0,1,2.05.35,4.92,4.92,0,0,1,1.59,1,4.59,4.59,0,0,1,1.07,1.44,4.7,4.7,0,0,1,.47,1.78c0,.12,0,.28,0,.47v1.15c0,.19,0,.34,0,.46a5.27,5.27,0,0,1-.48,1.78,4.41,4.41,0,0,1-1.06,1.43,4.9,4.9,0,0,1-1.59,1,6.21,6.21,0,0,1-4.11,0,4.9,4.9,0,0,1-1.59-1,4.56,4.56,0,0,1-1.06-1.43,5,5,0,0,1-.47-1.78,2.86,2.86,0,0,1,0-.46c0-.19,0-.38,0-.57s0-.38,0-.58a3,3,0,0,1,0-.47,4.69,4.69,0,0,1,.46-1.78,4.79,4.79,0,0,1,2.66-2.41A5.86,5.86,0,0,1,281.57,128.31Zm2.49,4.64a2.83,2.83,0,0,0-.29-1.06,2,2,0,0,0-1.36-1,3.86,3.86,0,0,0-.84-.09,4,4,0,0,0-.85.09,2,2,0,0,0-1.35,1,2.65,2.65,0,0,0-.3,1.06,4.1,4.1,0,0,0,0,.42c0,.16,0,.33,0,.51s0,.36,0,.53a3.47,3.47,0,0,0,0,.4,2.6,2.6,0,0,0,.3,1.06,1.85,1.85,0,0,0,.59.67,1.94,1.94,0,0,0,.76.34,3.47,3.47,0,0,0,.85.1,3.33,3.33,0,0,0,.84-.1,2,2,0,0,0,.77-.34,1.94,1.94,0,0,0,.59-.67,2.77,2.77,0,0,0,.29-1.06,2.1,2.1,0,0,0,0-.4v-1A2.42,2.42,0,0,0,284.06,133Z" style="fill:#fff"></path><path d="M291.8,138.69a.53.53,0,0,1-.16.39.54.54,0,0,1-.39.17h-1.57a.58.58,0,0,1-.56-.56V125.15a.58.58,0,0,1,.56-.56h1.57a.54.54,0,0,1,.39.17.53.53,0,0,1,.16.39Z" style="fill:#fff"></path><path d="M294.65,131.16a3.2,3.2,0,0,1,.38-.93,3.86,3.86,0,0,1,.85-.93,4.48,4.48,0,0,1,1.34-.71,5.49,5.49,0,0,1,1.85-.28,6,6,0,0,1,1.9.28,4.08,4.08,0,0,1,1.46.81,3.62,3.62,0,0,1,.93,1.35,5,5,0,0,1,.33,1.87v6.07a.53.53,0,0,1-.16.39.54.54,0,0,1-.39.17h-1.57a.58.58,0,0,1-.56-.56V138a3.41,3.41,0,0,1-1.25,1,4.48,4.48,0,0,1-2.07.42,4.92,4.92,0,0,1-1.59-.23,3.31,3.31,0,0,1-1.18-.67,3,3,0,0,1-.73-1,3.2,3.2,0,0,1-.26-1.29,2.69,2.69,0,0,1,1-2.22,5.84,5.84,0,0,1,2.71-1.1l3.36-.58a1.3,1.3,0,0,0-.56-1.19,2.48,2.48,0,0,0-1.38-.35,1.77,1.77,0,0,0-.8.14,2.57,2.57,0,0,0-.56.39,1.35,1.35,0,0,1-.34.23,1,1,0,0,1-.34.06h-1.92a.51.51,0,0,1-.35-.12A.34.34,0,0,1,294.65,131.16ZM298.1,137a3.68,3.68,0,0,0,1.25-.2,2.83,2.83,0,0,0,.92-.52,2.08,2.08,0,0,0,.55-.75,1.94,1.94,0,0,0,.19-.84v-.21l-2.81.49a2.83,2.83,0,0,0-1.21.43.88.88,0,0,0-.38.75.68.68,0,0,0,.45.64A2.38,2.38,0,0,0,298.1,137Z" style="fill:#fff"></path></g><g id="freepik--speech-bubble--inject-33"><path d="M341.9,33.18h48.93a4.46,4.46,0,0,1,4.46,4.46V53.27a4.46,4.46,0,0,1-4.46,4.46H381.1c-.25,3.4,1,6.23,3.2,7.66-5.33-.15-9.8-3.31-10.85-7.66H341.9a4.47,4.47,0,0,1-4.47-4.46V37.64A4.47,4.47,0,0,1,341.9,33.18Z" style="fill:#f0f0f0"></path><path d="M355.39,38.63a.51.51,0,0,1,.5.5v12a.47.47,0,0,1-.15.35.49.49,0,0,1-.35.15h-1.5a.49.49,0,0,1-.36-.15.46.46,0,0,1-.14-.35V46.22h-5.6v4.89a.47.47,0,0,1-.15.35.49.49,0,0,1-.35.15h-1.51a.47.47,0,0,1-.35-.14.46.46,0,0,1-.15-.36v-12a.51.51,0,0,1,.5-.5h1.51a.51.51,0,0,1,.5.5V43.9h5.6V39.13a.47.47,0,0,1,.14-.35.49.49,0,0,1,.36-.15Z" style="fill:#fff"></path><path d="M358.61,44.34a2.6,2.6,0,0,1,.35-.83,3,3,0,0,1,.76-.83,3.9,3.9,0,0,1,1.2-.64,5,5,0,0,1,1.66-.25,5.39,5.39,0,0,1,1.71.25,3.6,3.6,0,0,1,1.3.73,3.12,3.12,0,0,1,.85,1.21,4.42,4.42,0,0,1,.29,1.68v5.45a.5.5,0,0,1-.14.35.49.49,0,0,1-.36.15h-1.41a.49.49,0,0,1-.35-.15.47.47,0,0,1-.15-.35V50.5a3.17,3.17,0,0,1-1.12.92,4.08,4.08,0,0,1-1.86.38,4.25,4.25,0,0,1-1.43-.22,2.84,2.84,0,0,1-1.05-.6,2.52,2.52,0,0,1-.66-.92A2.74,2.74,0,0,1,358,48.9a2.43,2.43,0,0,1,.91-2,5.29,5.29,0,0,1,2.43-1l3-.52a1.14,1.14,0,0,0-.5-1.07,2.26,2.26,0,0,0-1.24-.32,1.57,1.57,0,0,0-.72.13,2.27,2.27,0,0,0-.5.35,1.21,1.21,0,0,1-.31.21.94.94,0,0,1-.3,0H359a.42.42,0,0,1-.31-.11A.29.29,0,0,1,358.61,44.34Zm3.1,5.23a3.51,3.51,0,0,0,1.12-.17,2.59,2.59,0,0,0,.83-.48,2,2,0,0,0,.5-.66,1.85,1.85,0,0,0,.16-.76v-.19l-2.52.45a2.63,2.63,0,0,0-1.09.37.83.83,0,0,0-.34.68.63.63,0,0,0,.4.58A2.28,2.28,0,0,0,361.71,49.57Z" style="fill:#fff"></path><path d="M371.61,51.11a.47.47,0,0,1-.15.35.49.49,0,0,1-.35.15H369.7a.51.51,0,0,1-.5-.5V39a.51.51,0,0,1,.5-.5h1.41a.49.49,0,0,1,.35.15.47.47,0,0,1,.15.35Z" style="fill:#fff"></path><path d="M376.58,51.11a.47.47,0,0,1-.15.35.49.49,0,0,1-.35.15h-1.41a.51.51,0,0,1-.5-.5V39a.51.51,0,0,1,.5-.5h1.41a.49.49,0,0,1,.35.15.47.47,0,0,1,.15.35Z" style="fill:#fff"></path><path d="M383.38,41.79a5.17,5.17,0,0,1,1.85.31,4.34,4.34,0,0,1,1.42.87,4.25,4.25,0,0,1,1,1.3,4.31,4.31,0,0,1,.42,1.59c0,.12,0,.26,0,.43v1c0,.17,0,.31,0,.42a4.68,4.68,0,0,1-.43,1.59,4,4,0,0,1-1,1.29,4.5,4.5,0,0,1-1.42.86,5.17,5.17,0,0,1-1.85.32,5.11,5.11,0,0,1-1.84-.32,4.55,4.55,0,0,1-1.43-.86,3.93,3.93,0,0,1-.95-1.29,4.46,4.46,0,0,1-.43-1.59q0-.16,0-.42c0-.17,0-.34,0-.51s0-.35,0-.52,0-.31,0-.43a4.31,4.31,0,0,1,.42-1.59,4.26,4.26,0,0,1,2.39-2.17A5.11,5.11,0,0,1,383.38,41.79ZM385.63,46a2.53,2.53,0,0,0-.27-1,1.82,1.82,0,0,0-.53-.6,2,2,0,0,0-.69-.31,3.77,3.77,0,0,0-.76-.08,3.84,3.84,0,0,0-.76.08,2,2,0,0,0-.68.31,1.82,1.82,0,0,0-.53.6,2.53,2.53,0,0,0-.27,1c0,.1,0,.22,0,.37s0,.3,0,.46,0,.32,0,.47,0,.28,0,.37a2.48,2.48,0,0,0,.27.95,1.82,1.82,0,0,0,.53.6,2,2,0,0,0,.68.31,3.84,3.84,0,0,0,.76.08,3.77,3.77,0,0,0,.76-.08,2,2,0,0,0,.69-.31,1.82,1.82,0,0,0,.53-.6,2.48,2.48,0,0,0,.27-.95c0-.09,0-.21,0-.37v-.93C385.64,46.18,385.64,46.06,385.63,46Z" style="fill:#fff"></path></g><g id="freepik--speech-bubble--inject-33"><path d="M328,103.49h92.2a4.46,4.46,0,0,1,4.47,4.46v20.43a4.47,4.47,0,0,1-4.47,4.46h-9.73c-.24,3.39,1,6.23,3.21,7.65-5.33-.15-9.8-3.3-10.86-7.65H328a4.47,4.47,0,0,1-4.47-4.46V108A4.46,4.46,0,0,1,328,103.49Z" style="fill:#f0f0f0"></path><path d="M339.69,115.9a4.12,4.12,0,0,1-1.28,3.1,4.57,4.57,0,0,1-3.36,1.25,4.69,4.69,0,0,1-3.4-1.22,4.28,4.28,0,0,1-1.25-3.18,4,4,0,0,1,1.31-3,5.09,5.09,0,0,1,6.69,0A4.12,4.12,0,0,1,339.69,115.9Zm-4.64-3a3.18,3.18,0,0,0-2.26.87,2.74,2.74,0,0,0,0,4.14,3.23,3.23,0,0,0,2.28.87,3.17,3.17,0,0,0,2.25-.87,2.71,2.71,0,0,0,.93-2.07,2.75,2.75,0,0,0-.94-2.07A3.24,3.24,0,0,0,335.05,112.94ZM343,126.87H332.05V121.2h1.45v4.2H343Zm2.94-9.52h-3V123h-1.41V110.38H343v5.54h3Z" style="fill:#fff"></path><path d="M350.61,111.84v6.35a67.53,67.53,0,0,0,7.66-.41v1.41a72.19,72.19,0,0,1-9.12.54v-7.89ZM364.07,124a2.67,2.67,0,0,1-1.75,2.44,12.35,12.35,0,0,1-9.13,0,2.68,2.68,0,0,1-1.73-2.45,2.76,2.76,0,0,1,1.86-2.44,11.5,11.5,0,0,1,9,0A2.75,2.75,0,0,1,364.07,124Zm-1.55,0c0-.53-.45-1-1.37-1.35a8.72,8.72,0,0,0-3.33-.56,10.13,10.13,0,0,0-3.37.5c-1,.34-1.45.8-1.45,1.39s.51,1,1.52,1.35a9.23,9.23,0,0,0,3.28.57,9,9,0,0,0,3.33-.56C362.06,125,362.52,124.51,362.52,124Zm1.47-3.74h-1.41v-3.53h-4.06v-1.43h4.06v-1.38h-4.06v-1.45h4.06v-2.08H364Z" style="fill:#fff"></path><path d="M377.75,116.67H367.47v-1.55h10.28Zm-1.23,4.7a3.44,3.44,0,0,1-1.06,2.57,4.32,4.32,0,0,1-5.59,0,3.36,3.36,0,0,1-1-2.51,3.54,3.54,0,0,1,1-2.58,3.64,3.64,0,0,1,2.74-1.06,3.91,3.91,0,0,1,2.86,1A3.43,3.43,0,0,1,376.52,121.37Zm-1.24-7.65H370.1V112.2h5.18Zm-.17,7.65a2,2,0,0,0-.7-1.54,2.43,2.43,0,0,0-1.7-.64,2.41,2.41,0,0,0-1.69.64,2,2,0,0,0-.71,1.52,2,2,0,0,0,.7,1.53,2.42,2.42,0,0,0,1.7.65,2.45,2.45,0,0,0,1.69-.64A2,2,0,0,0,375.11,121.37Zm8-1.79h-3v7.73h-1.41V110.38h1.41v7.77h3Z" style="fill:#fff"></path><path d="M394,124.36a13.88,13.88,0,0,1-3.69-5.73,16.66,16.66,0,0,1-4,6.29,3.75,3.75,0,0,0-1.14-1.34,10.44,10.44,0,0,0,3.16-4.25,12.53,12.53,0,0,0,1.25-5v-1.51a5.45,5.45,0,0,0-.07-1l2,.26a5.56,5.56,0,0,0-.47,2c0,.65-.06,1.34-.06,2a11.18,11.18,0,0,0,1.17,3,10.9,10.9,0,0,0,3,3.89A3.18,3.18,0,0,0,394,124.36Zm2.29,1.73v-8h-3.6v-1.44h3.6v-6h1.44v15.42Zm3.46,1.21V110.37h1.42V127.3Z" style="fill:#fff"></path><path d="M420.34,126H404.05v-1.47h4.71v-3.37h1.43v3.37h4.07v-3.37h1.41v3.37h4.67Zm-1.83-9.74a3.72,3.72,0,0,1-1.8,3.07,7.47,7.47,0,0,1-4.51,1.3,7.79,7.79,0,0,1-4.57-1.24,3.58,3.58,0,0,1,.09-6.21,8.37,8.37,0,0,1,9,0A3.74,3.74,0,0,1,418.51,116.22Zm-1.44,0a2.49,2.49,0,0,0-1.43-2.09,6.5,6.5,0,0,0-3.43-.87,6.43,6.43,0,0,0-3.41.87,2.24,2.24,0,0,0,0,4.17,6.43,6.43,0,0,0,3.41.87,6.5,6.5,0,0,0,3.43-.87A2.48,2.48,0,0,0,417.07,116.22Z" style="fill:#fff"></path></g><g id="freepik--speech-bubble--inject-33"><path d="M326.6,36.28h-73a5.43,5.43,0,0,0-5.43,5.43V66.58A5.43,5.43,0,0,0,253.65,72H265.5c.3,4.13-1.21,7.59-3.9,9.32,6.48-.18,11.92-4,13.21-9.32H326.6A5.43,5.43,0,0,0,332,66.58V41.71A5.43,5.43,0,0,0,326.6,36.28Z" style="fill:#fafafa"></path><path d="M261.6,81.83a.5.5,0,0,1-.48-.36.49.49,0,0,1,.21-.56c2.47-1.59,3.84-4.71,3.69-8.4H253.65a5.94,5.94,0,0,1-5.93-5.93V41.71a5.94,5.94,0,0,1,5.93-5.93h73a5.94,5.94,0,0,1,5.93,5.93V66.58a5.94,5.94,0,0,1-5.93,5.93H275.19c-1.5,5.33-7,9.14-13.58,9.32Zm-8-45a4.93,4.93,0,0,0-4.93,4.93V66.58a4.93,4.93,0,0,0,4.93,4.93H265.5A.49.49,0,0,1,266,72a11,11,0,0,1-2.82,8.74c5.55-.7,10-4.17,11.15-8.82a.51.51,0,0,1,.49-.38H326.6a4.93,4.93,0,0,0,4.93-4.93V41.71a4.93,4.93,0,0,0-4.93-4.93Z" style="fill:#455a64"></path><path d="M276.58,46.71a.6.6,0,0,1,.44.18.62.62,0,0,1,.18.44V62.07a.6.6,0,0,1-.18.43.6.6,0,0,1-.44.18h-1.84a.6.6,0,0,1-.44-.18.6.6,0,0,1-.18-.43V56h-6.89v6a.6.6,0,0,1-.18.43.6.6,0,0,1-.44.18h-1.84a.6.6,0,0,1-.44-.17.57.57,0,0,1-.18-.44V47.33a.62.62,0,0,1,.18-.44.6.6,0,0,1,.44-.18h1.84a.6.6,0,0,1,.44.18.62.62,0,0,1,.18.44v5.86h6.89V47.33a.62.62,0,0,1,.18-.44.6.6,0,0,1,.44-.18Z" style="fill:#407BFF"></path><path d="M280,56.75a7.38,7.38,0,0,1,.39-2.41,5.83,5.83,0,0,1,1.12-2,5.24,5.24,0,0,1,1.76-1.31,5.5,5.5,0,0,1,2.32-.48,5.58,5.58,0,0,1,2.31.47,5.3,5.3,0,0,1,1.77,1.25,5.45,5.45,0,0,1,1.13,1.85,6.19,6.19,0,0,1,.4,2.22v1a.58.58,0,0,1-.18.43.57.57,0,0,1-.43.19h-7.62a1.92,1.92,0,0,0,.21.92,2.23,2.23,0,0,0,.58.68,2.91,2.91,0,0,0,.85.41,3.56,3.56,0,0,0,1,.13,3.92,3.92,0,0,0,1.19-.15,2.39,2.39,0,0,0,.75-.37,2,2,0,0,1,.41-.25,1,1,0,0,1,.43-.07h1.83a.64.64,0,0,1,.44.18.49.49,0,0,1,.17.43,1.82,1.82,0,0,1-.35.83,4,4,0,0,1-1,1,6.53,6.53,0,0,1-1.63.82,6.74,6.74,0,0,1-2.25.34,6,6,0,0,1-2.32-.44,4.88,4.88,0,0,1-1.76-1.27,5.69,5.69,0,0,1-1.12-2A7.62,7.62,0,0,1,280,56.75Zm5.59-3.42a2.94,2.94,0,0,0-1.13.19,2.73,2.73,0,0,0-.79.5,2.49,2.49,0,0,0-.49.69,2.64,2.64,0,0,0-.21.72h5.15a4.14,4.14,0,0,0-.17-.72,1.89,1.89,0,0,0-.41-.69,2.19,2.19,0,0,0-.75-.5A3.14,3.14,0,0,0,285.55,53.33Z" style="fill:#407BFF"></path><path d="M296.61,62.07a.61.61,0,0,1-.61.61h-1.74a.61.61,0,0,1-.61-.61v-15a.58.58,0,0,1,.18-.43.61.61,0,0,1,.43-.19H296a.61.61,0,0,1,.43.19.58.58,0,0,1,.18.43Z" style="fill:#407BFF"></path><path d="M302.73,62.07a.6.6,0,0,1-.18.43.62.62,0,0,1-.44.18h-1.73a.62.62,0,0,1-.44-.18.6.6,0,0,1-.18-.43v-15a.58.58,0,0,1,.18-.43.63.63,0,0,1,.44-.19h1.73a.63.63,0,0,1,.44.19.58.58,0,0,1,.18.43Z" style="fill:#407BFF"></path><path d="M311.1,50.59a6.29,6.29,0,0,1,2.27.39,5.4,5.4,0,0,1,1.76,1.07,5.32,5.32,0,0,1,1.18,1.6,5.23,5.23,0,0,1,.52,2c0,.14,0,.31,0,.52V57.4c0,.21,0,.38,0,.51a5.7,5.7,0,0,1-.53,2,5.2,5.2,0,0,1-1.17,1.58,5.55,5.55,0,0,1-1.76,1.06,6.8,6.8,0,0,1-4.54,0,5.55,5.55,0,0,1-1.76-1.06,5.2,5.2,0,0,1-1.17-1.58,5.93,5.93,0,0,1-.53-2q0-.19,0-.51c0-.2,0-.41,0-.63s0-.42,0-.64,0-.38,0-.52a5.23,5.23,0,0,1,.52-2,5.32,5.32,0,0,1,1.18-1.6A5.4,5.4,0,0,1,308.83,51,6.29,6.29,0,0,1,311.1,50.59Zm2.76,5.13a2.94,2.94,0,0,0-.33-1.17,2.13,2.13,0,0,0-.65-.74,2.45,2.45,0,0,0-.84-.38,4.23,4.23,0,0,0-.94-.1,4.08,4.08,0,0,0-.93.1,2.41,2.41,0,0,0-.85.38,2.24,2.24,0,0,0-.65.74,3.11,3.11,0,0,0-.33,1.17,3,3,0,0,0,0,.46c0,.18,0,.37,0,.57s0,.39,0,.58a2.64,2.64,0,0,0,0,.45,3.11,3.11,0,0,0,.33,1.17,2.25,2.25,0,0,0,1.5,1.12,4.08,4.08,0,0,0,.93.1,4.23,4.23,0,0,0,.94-.1,2.28,2.28,0,0,0,.84-.38,2.13,2.13,0,0,0,.65-.74,2.94,2.94,0,0,0,.33-1.17,2.83,2.83,0,0,0,0-.45V56.18A3.17,3.17,0,0,0,313.86,55.72Z" style="fill:#407BFF"></path></g><g id="freepik--speech-bubble--inject-33"><path d="M260.44,93.52H193.08a4.36,4.36,0,0,0-4.35,4.36v32a4.36,4.36,0,0,0,4.35,4.36h9.5c.24,3.31-1,6.08-3.13,7.47,5.2-.15,9.56-3.22,10.59-7.47h50.4a4.36,4.36,0,0,0,4.36-4.36v-32A4.36,4.36,0,0,0,260.44,93.52Z" style="fill:#fafafa"></path><path d="M199.45,142.23a.5.5,0,0,1-.27-.92c1.94-1.24,3-3.67,2.92-6.55h-9a4.86,4.86,0,0,1-4.85-4.86v-32A4.86,4.86,0,0,1,193.08,93h67.36a4.87,4.87,0,0,1,4.86,4.86v32a4.87,4.87,0,0,1-4.86,4.86h-50c-1.25,4.27-5.69,7.32-11,7.47ZM193.08,94a3.86,3.86,0,0,0-3.85,3.86v32a3.86,3.86,0,0,0,3.85,3.86h9.5a.5.5,0,0,1,.5.46,9,9,0,0,1-2.1,6.87c4.28-.63,7.7-3.34,8.58-7a.49.49,0,0,1,.48-.38h50.4a3.86,3.86,0,0,0,3.86-3.86v-32A3.86,3.86,0,0,0,260.44,94Z" style="fill:#455a64"></path><path d="M208.1,101.75a39.87,39.87,0,0,1-1.4,4.23l-1,2.6v18h-2.26V111.89a11.48,11.48,0,0,1-2.32,2.87L199,113.67q4.47-3.78,7-12.71Zm16.54,4a28.87,28.87,0,0,1-2,6.35l-2-.78a32.54,32.54,0,0,0,1.21-3.42h-4.52v15.63a2.63,2.63,0,0,1-.49,1.47,2.86,2.86,0,0,1-1.06,1,4.28,4.28,0,0,1-1.88.29c-.43,0-1,0-1.82-.08l-.67-2.07h2.62a.94.94,0,0,0,1.07-1.06V107.85h-3.32a20.05,20.05,0,0,1-3.36,5.53l-2.23-.82a21.85,21.85,0,0,0,5-11.57l2.2.48a30,30,0,0,1-.9,4.23Zm-10.86,7.48q-1.92,5.68-5.57,8.27L206.46,120a14.7,14.7,0,0,0,5.35-7.75Zm11.6,7.6-2,1.18q-2-5.65-5-8.24l1.86-1.16A19.51,19.51,0,0,1,225.38,120.78Z" style="fill:#407BFF"></path><path d="M240.42,121.11,239,122.8c-1.61-1.26-2.66-2-3.17-2.37q-1.46,2.59-6.12,5.93l-1.5-1.78q4.65-3.17,5.79-5.36a17.63,17.63,0,0,0-4-1.92,49.4,49.4,0,0,0,2.47-8.55h-3.12v-2.06h3.53c.43-2.35.74-4.12.91-5.3l2.18.56a38,38,0,0,1-.91,4.74h4.66q-.65,7.47-2.8,11.72Q238.84,119.78,240.42,121.11Zm-3.08-12.36h-2.66c-.61,2.62-1.3,5.07-2.05,7.37a14.54,14.54,0,0,1,2.48,1.18A22.81,22.81,0,0,0,237.34,108.75Zm16.54,5.7h-6.8v9.18a2.47,2.47,0,0,1-.75,1.87,2.74,2.74,0,0,1-2,.72h-2.88l-.9-2.32c1.21.09,2.2.13,3,.13a2.07,2.07,0,0,0,1.05-.17.78.78,0,0,0,.23-.66v-8.75h-5.67v-2.07h5.67v-2.89a24.92,24.92,0,0,0,4.12-5.08h-9.34v-2.07h11.9v2a24,24,0,0,1-4.45,5.92v2.16h6.8Z" style="fill:#407BFF"></path></g><g id="freepik--speech-bubble--inject-33"><path d="M363,62.07h95.09a6.63,6.63,0,0,1,6.63,6.63V90.81a6.63,6.63,0,0,1-6.63,6.63H443.6c-.37,5,1.46,9.26,4.76,11.37-7.92-.22-14.56-4.9-16.12-11.37H363a6.63,6.63,0,0,1-6.63-6.63V68.7A6.63,6.63,0,0,1,363,62.07Z" style="fill:#fafafa"></path><path d="M448.36,109.31h0c-8-.22-14.7-4.87-16.49-11.37H363a7.14,7.14,0,0,1-7.13-7.13V68.7A7.14,7.14,0,0,1,363,61.57h95.09a7.14,7.14,0,0,1,7.13,7.13V90.81a7.14,7.14,0,0,1-7.13,7.13h-14c-.21,4.59,1.48,8.48,4.56,10.45a.51.51,0,0,1,.21.57A.5.5,0,0,1,448.36,109.31ZM363,62.57a6.14,6.14,0,0,0-6.13,6.13V90.81A6.14,6.14,0,0,0,363,96.94h69.28a.49.49,0,0,1,.48.38c1.41,5.82,7.07,10.13,14,10.88-2.64-2.42-4-6.33-3.66-10.79a.5.5,0,0,1,.5-.47h14.45a6.14,6.14,0,0,0,6.13-6.13V68.7a6.14,6.14,0,0,0-6.13-6.13Z" style="fill:#407BFF"></path><path d="M368.28,80a4.1,4.1,0,0,0-1.43,2.75c0,2.34,2.83,2.34,4.81,2.34a33.13,33.13,0,0,0,6-.54l.19,2.54a41.22,41.22,0,0,1-5.89.39,23.9,23.9,0,0,1-4.08-.27c-2.53-.57-3.61-2.24-3.61-4a6.15,6.15,0,0,1,1.84-4.12Zm8.6-5.13A14.87,14.87,0,0,0,370.46,78l-2.16-1.08a20.74,20.74,0,0,1,2.52-1.73v0a44.68,44.68,0,0,1-5.44.17c0-.58,0-1.84-.06-2.39.35,0,.82,0,1.35,0,2,0,4.85-.08,6.23-.16a27.2,27.2,0,0,0,3.79-.45Z" style="fill:#455a64"></path><path d="M390.79,71.85c-.1.29-.36.47-.85.49-.8,1.85-2.35,5.93-3.06,7.85a5.4,5.4,0,0,1,3.59-1.61c1.63,0,2.56,1.12,2.56,2.89,0,.35-.08,2.1-.08,2.5,0,1.13.45,1.62,1.27,1.62,1.48,0,2.62-1.74,3.48-4.92A14.24,14.24,0,0,0,400,82c-1.2,3.79-3,6.11-5.87,6.11-2.4,0-3.81-1.28-3.81-3.38,0-.35.08-2.1.08-2.49,0-.91-.26-1.32-.79-1.32-1.85,0-3.73,2.71-4.3,4.38-.26.79-.59,1.77-.88,2.73l-2.52-.79c1.2-3.55,3.69-10.76,4.34-12.58.41-1.12,1-3,1.18-3.66Z" style="fill:#455a64"></path><path d="M403.51,88.09a23.59,23.59,0,0,1-.9-7,68.06,68.06,0,0,1,.92-9.57l3.24.46c0,.21-.21.35-.6.37A47,47,0,0,0,405.12,81a17.76,17.76,0,0,0,.14,2.77c.24-.57,1-2.24,1.26-2.87l1.16,1.81a32.78,32.78,0,0,0-1.63,3.4,3.25,3.25,0,0,0-.16.94,2.68,2.68,0,0,0,.1.69Zm9.67-8.17a4,4,0,0,0-1.46,2.75c0,1.47,1.77,1.63,4.11,1.63a25.29,25.29,0,0,0,2.81-.14l-.08,2.48c-.73,0-1.52.06-2.26.06a26.43,26.43,0,0,1-3.34-.18c-2.73-.37-3.83-1.83-3.83-3.5a6.18,6.18,0,0,1,1.69-3.91Zm4.93-4.28a73.93,73.93,0,0,1-8.45.67l-.08-2.38a67,67,0,0,0,8.31-.73Z" style="fill:#455a64"></path><path d="M429.85,71c-.06.34-.3.44-.59.48,0,.84-.1,1.74-.16,2.51a37,37,0,0,0,7.11-1.14l.4,2.47a45,45,0,0,1-7.76,1,19,19,0,0,1-.73,3.77A9.37,9.37,0,0,1,433,78.51c2.71,0,4.71,1.37,4.71,4.37,0,4.05-3.75,5.5-10.46,5.64a12.25,12.25,0,0,0-.73-2.24c5.56-.13,8.66-1,8.66-3.34,0-1.41-.86-2.22-2.61-2.22a6.92,6.92,0,0,0-5.36,2.79l-2.4-1c.59-.65,1.32-3.08,1.57-6.09h-4.22V74c.9,0,3,0,4.42,0,.08-1,.1-2.22.08-3.32Z" style="fill:#455a64"></path><path d="M446.46,82.06a37.13,37.13,0,0,0-1.63,3.73,2.9,2.9,0,0,0-.19,1,3.37,3.37,0,0,0,.1.85l-2.36.13a28,28,0,0,1-.81-7.5,49.15,49.15,0,0,1,1-8.89l3.08.59c0,.19-.3.35-.55.39a32,32,0,0,0-1.2,9.54,11.63,11.63,0,0,0,.06,1.61c.27-.76.9-2.37,1.22-3.12Zm1.18-4.1,0-2.26c.42,0,.85,0,1.26,0,1,0,2,0,3.06-.08-.08-1.53-.13-2.87-.15-4.32l3.12.1a.56.56,0,0,1-.49.43l0,3.59a19.78,19.78,0,0,0,3.41-.67l.2,2.4a17.13,17.13,0,0,1-3.53.55c.05,1.77.15,3.58.23,4.85a14.37,14.37,0,0,1,3.65,2.26l-1.27,2.32a10.34,10.34,0,0,0-2.3-1.87c-.26,2.5-2.06,2.91-3.73,2.91-2.42,0-3.87-1.32-3.87-3.14,0-2.07,1.9-3.21,3.91-3.21a8.41,8.41,0,0,1,1.18.1c-.08-1-.16-2.61-.24-4-.57,0-1.26.06-1.69.06Zm4.85,6.12a4.66,4.66,0,0,0-1.35-.23c-1,0-1.89.31-1.89,1.16s.83,1.12,1.83,1.12a1.32,1.32,0,0,0,1.43-1.5C452.51,84.5,452.51,84.26,452.49,84.08Z" style="fill:#455a64"></path></g><g id="freepik--speech-bubble--inject-33"><path d="M437.12,138.14H364.17a5.43,5.43,0,0,0-5.43,5.43v24.87a5.43,5.43,0,0,0,5.43,5.43H376c.3,4.13-1.2,7.59-3.9,9.32,6.49-.18,11.93-4,13.21-9.32h51.79a5.43,5.43,0,0,0,5.43-5.43V143.57A5.43,5.43,0,0,0,437.12,138.14Z" style="fill:#fafafa"></path><path d="M372.12,183.69a.51.51,0,0,1-.27-.93c2.48-1.58,3.84-4.7,3.7-8.39H364.17a5.94,5.94,0,0,1-5.93-5.93V143.57a5.94,5.94,0,0,1,5.93-5.93h72.95a5.94,5.94,0,0,1,5.93,5.93v24.87a5.94,5.94,0,0,1-5.93,5.93h-51.4c-1.51,5.32-7,9.14-13.59,9.32Zm-7.95-45.05a4.93,4.93,0,0,0-4.93,4.93v24.87a4.93,4.93,0,0,0,4.93,4.93H376a.5.5,0,0,1,.5.46,11,11,0,0,1-2.83,8.74c5.55-.7,10-4.17,11.15-8.82a.51.51,0,0,1,.49-.38h51.79a4.93,4.93,0,0,0,4.93-4.93V143.57a4.93,4.93,0,0,0-4.93-4.93Z" style="fill:#407BFF"></path><path d="M376.92,148a.49.49,0,0,1,.36.15.5.5,0,0,1,.16.37V161a.49.49,0,0,1-.16.37.49.49,0,0,1-.36.15h-1.57a.5.5,0,0,1-.37-.15.52.52,0,0,1-.16-.37V150.42H369V161a.52.52,0,0,1-.16.37.5.5,0,0,1-.37.15h-1.57a.49.49,0,0,1-.36-.15.49.49,0,0,1-.16-.37V148.52a.5.5,0,0,1,.16-.37.49.49,0,0,1,.36-.15Z" style="fill:#455a64"></path><path d="M385.73,161.75a4.46,4.46,0,0,1-1.08-.12,4.24,4.24,0,0,1-.83-.29,3.19,3.19,0,0,1-.61-.38,4,4,0,0,1-.41-.37v4.12a.51.51,0,0,1-.52.52h-1.47a.51.51,0,0,1-.37-.15.54.54,0,0,1-.16-.37V152a.51.51,0,0,1,.16-.37.52.52,0,0,1,.37-.16h1.47a.54.54,0,0,1,.37.16.5.5,0,0,1,.15.37v.44a5.51,5.51,0,0,1,.41-.38,3.18,3.18,0,0,1,.61-.37,3.67,3.67,0,0,1,.83-.29,4.46,4.46,0,0,1,1.08-.12,4,4,0,0,1,1.75.38,4.32,4.32,0,0,1,1.34,1,5.19,5.19,0,0,1,.87,1.46,5.27,5.27,0,0,1,.35,1.71c0,.19,0,.42,0,.68s0,.48,0,.68a5.27,5.27,0,0,1-.35,1.71,5.13,5.13,0,0,1-.87,1.45,4.19,4.19,0,0,1-1.34,1A4,4,0,0,1,385.73,161.75Zm1.8-4.69a4.88,4.88,0,0,0,0-1.08,2.56,2.56,0,0,0-.78-1.81,2.4,2.4,0,0,0-1.6-.56,2.32,2.32,0,0,0-1.6.57,2.29,2.29,0,0,0-.75,1.6,7.15,7.15,0,0,0,0,.74,6.78,6.78,0,0,0,0,.73,2.33,2.33,0,0,0,.75,1.59,2.28,2.28,0,0,0,1.6.58,2.39,2.39,0,0,0,1.6-.55A2.58,2.58,0,0,0,387.53,157.06Z" style="fill:#455a64"></path><path d="M399.94,161.55a.53.53,0,0,1-.37-.15.51.51,0,0,1-.15-.37v-5.42l-4.71,5.73a.54.54,0,0,1-.44.21h-1.48a.49.49,0,0,1-.36-.15.49.49,0,0,1-.16-.37v-9a.47.47,0,0,1,.16-.37.5.5,0,0,1,.36-.16h1.48a.5.5,0,0,1,.36.16.47.47,0,0,1,.16.37v5.46l4.7-5.77a.55.55,0,0,1,.45-.22h1.47a.52.52,0,0,1,.37.16.5.5,0,0,1,.15.37v9a.51.51,0,0,1-.52.52Z" style="fill:#455a64"></path><path d="M405,161.55a.38.38,0,0,1-.38-.38v-9.3a.4.4,0,0,1,.11-.27.37.37,0,0,1,.27-.12h5.45a4.15,4.15,0,0,1,1.35.21,3.15,3.15,0,0,1,1.06.56,2.8,2.8,0,0,1,.64,3.3,2.26,2.26,0,0,1-.69.75,2.3,2.3,0,0,1,.91,1,3.34,3.34,0,0,1,.25,1.34,3.16,3.16,0,0,1-.24,1.27,2.7,2.7,0,0,1-.67.92,2.82,2.82,0,0,1-1,.55,4.3,4.3,0,0,1-1.28.18Zm6.26-7a.66.66,0,0,0-.27-.61,1.87,1.87,0,0,0-.91-.16h-2.95v1.55h2.95a1.85,1.85,0,0,0,.91-.17A.65.65,0,0,0,411.25,154.52Zm-4.13,4.77h3.06a1.8,1.8,0,0,0,.95-.19.7.7,0,0,0,.31-.67.72.72,0,0,0-.31-.67,1.79,1.79,0,0,0-.95-.2h-3.06Z" style="fill:#455a64"></path><path d="M415.74,156.52a6.29,6.29,0,0,1,.33-2.05,5,5,0,0,1,.95-1.66,4.38,4.38,0,0,1,1.5-1.11,5,5,0,0,1,3.93,0,4.53,4.53,0,0,1,1.5,1.06,4.74,4.74,0,0,1,1,1.57,5.23,5.23,0,0,1,.34,1.89v.87a.5.5,0,0,1-.16.37.49.49,0,0,1-.36.15h-6.47a1.67,1.67,0,0,0,.18.79,1.94,1.94,0,0,0,.5.57,2.24,2.24,0,0,0,.71.35,3.34,3.34,0,0,0,.84.11,3.46,3.46,0,0,0,1-.12,2.25,2.25,0,0,0,.64-.32,1.71,1.71,0,0,1,.35-.22,1.18,1.18,0,0,1,.37,0h1.55a.51.51,0,0,1,.37.15.46.46,0,0,1,.15.37,1.56,1.56,0,0,1-.3.7,3.48,3.48,0,0,1-.84.83,5.54,5.54,0,0,1-3.29,1,5,5,0,0,1-2-.38,4.07,4.07,0,0,1-1.5-1.08,4.79,4.79,0,0,1-.95-1.65A6.5,6.5,0,0,1,415.74,156.52Zm4.75-2.91a2.46,2.46,0,0,0-1,.17,2.13,2.13,0,0,0-.67.42,2,2,0,0,0-.42.59,2.14,2.14,0,0,0-.18.6h4.38a3.76,3.76,0,0,0-.15-.6,1.62,1.62,0,0,0-.35-.59,1.78,1.78,0,0,0-.64-.42A2.62,2.62,0,0,0,420.49,153.61Z" style="fill:#455a64"></path><path d="M435.61,151.48a.54.54,0,0,1,.37.16.5.5,0,0,1,.15.37v1.27a.53.53,0,0,1-.52.53h-3.18V161a.51.51,0,0,1-.52.52h-1.47a.51.51,0,0,1-.52-.52v-7.22h-3.18a.53.53,0,0,1-.52-.53V152a.5.5,0,0,1,.15-.37.54.54,0,0,1,.37-.16Z" style="fill:#455a64"></path></g><g id="freepik--speech-bubble--inject-33"><path d="M335.09,152.23H242.51a6.09,6.09,0,0,0-6.09,6.09v27.87a6.09,6.09,0,0,0,6.09,6.08h13.27c.34,4.64-1.34,8.51-4.37,10.45,7.27-.2,13.37-4.51,14.81-10.45h68.87a6.08,6.08,0,0,0,6.08-6.08V158.32A6.09,6.09,0,0,0,335.09,152.23Z" style="fill:#fafafa"></path><path d="M251.41,203.22a.49.49,0,0,1-.47-.36.48.48,0,0,1,.2-.56c2.81-1.8,4.35-5.34,4.17-9.53h-12.8a6.59,6.59,0,0,1-6.59-6.58V158.32a6.6,6.6,0,0,1,6.59-6.59h92.58a6.59,6.59,0,0,1,6.58,6.59v27.87a6.59,6.59,0,0,1-6.58,6.58H266.61c-1.66,6-7.84,10.24-15.18,10.45Zm-8.9-50.49a5.6,5.6,0,0,0-5.59,5.59v27.87a5.59,5.59,0,0,0,5.59,5.58h13.27a.5.5,0,0,1,.5.47c.3,4.06-.91,7.62-3.28,9.86,6.33-.72,11.45-4.65,12.73-9.94a.51.51,0,0,1,.49-.39h68.87a5.58,5.58,0,0,0,5.58-5.58V158.32a5.59,5.59,0,0,0-5.58-5.59Z" style="fill:#455a64"></path><path d="M248,180.37a.6.6,0,0,1-.43-.18.6.6,0,0,1-.18-.44V165a.6.6,0,0,1,.18-.44.6.6,0,0,1,.43-.18h6.73a6,6,0,0,1,2.44.44,4.62,4.62,0,0,1,1.58,1.12,4.26,4.26,0,0,1,.85,1.46,4.6,4.6,0,0,1,.27,1.47,3.51,3.51,0,0,1-.19,1.22,3.75,3.75,0,0,1-.44.92,3.79,3.79,0,0,1-.53.62,2.12,2.12,0,0,1-.42.35,5,5,0,0,1,1.3,1.35,3.88,3.88,0,0,1,.6,2.23,4.91,4.91,0,0,1-1.26,3.26,4.52,4.52,0,0,1-1.54,1.11,5.09,5.09,0,0,1-2.13.42ZM256.75,169a1.59,1.59,0,0,0-.55-1.31,2.71,2.71,0,0,0-1.73-.45h-4v3.51h4a2.72,2.72,0,0,0,1.73-.44A1.61,1.61,0,0,0,256.75,169Zm-6.32,8.51h4.22a2.62,2.62,0,0,0,1.83-.54,1.81,1.81,0,0,0,.59-1.4,1.85,1.85,0,0,0-.61-1.42,2.65,2.65,0,0,0-1.81-.54h-4.22Z" style="fill:#407BFF"></path><path d="M268,168.28a6.32,6.32,0,0,1,2.27.39,5.35,5.35,0,0,1,1.75,1.07,5.23,5.23,0,0,1,1.19,1.6,5,5,0,0,1,.51,2,3.64,3.64,0,0,1,0,.52v1.27a3.68,3.68,0,0,1,0,.51,5.57,5.57,0,0,1-.52,2,5,5,0,0,1-1.18,1.59,5.5,5.5,0,0,1-1.75,1.06,6.32,6.32,0,0,1-2.27.39,6.25,6.25,0,0,1-2.27-.39,5.44,5.44,0,0,1-1.76-1.06,5,5,0,0,1-1.17-1.59,5.58,5.58,0,0,1-.53-2,3.68,3.68,0,0,1,0-.51c0-.21,0-.42,0-.63s0-.42,0-.64a3.64,3.64,0,0,1,0-.52,5.25,5.25,0,0,1,1.7-3.56,5.29,5.29,0,0,1,1.76-1.07A6.25,6.25,0,0,1,268,168.28Zm2.76,5.13a3.11,3.11,0,0,0-.33-1.17,2.36,2.36,0,0,0-.65-.74,2.25,2.25,0,0,0-.85-.38,4.08,4.08,0,0,0-.93-.1,4.23,4.23,0,0,0-.94.1,2.28,2.28,0,0,0-.84.38,2.13,2.13,0,0,0-.65.74,2.78,2.78,0,0,0-.33,1.17,4.38,4.38,0,0,0,0,.46c0,.18,0,.37,0,.57s0,.39,0,.58a3.52,3.52,0,0,0,0,.44,2.79,2.79,0,0,0,.33,1.18,2.13,2.13,0,0,0,.65.74,2.45,2.45,0,0,0,.84.38,4.23,4.23,0,0,0,.94.1,4.08,4.08,0,0,0,.93-.1,2.41,2.41,0,0,0,.85-.38,2.36,2.36,0,0,0,.65-.74,3.11,3.11,0,0,0,.33-1.18c0-.1,0-.25,0-.44v-1.15C270.8,173.68,270.79,173.53,270.78,173.41Z" style="fill:#407BFF"></path><path d="M287.5,179.75a.6.6,0,0,1-.18.44.62.62,0,0,1-.44.18h-1.73a.63.63,0,0,1-.62-.62V174a3.52,3.52,0,0,0-.63-2.19,2.69,2.69,0,0,0-3.87,0,3.25,3.25,0,0,0-.7,2.19v5.79a.6.6,0,0,1-.18.44.6.6,0,0,1-.43.18H277a.6.6,0,0,1-.43-.18.6.6,0,0,1-.18-.44V169.12a.61.61,0,0,1,.61-.61h1.74a.61.61,0,0,1,.61.61v.53a5.13,5.13,0,0,1,1.39-1,4.33,4.33,0,0,1,1.9-.39,5.46,5.46,0,0,1,2.32.43,4,4,0,0,1,1.51,1.17,4.42,4.42,0,0,1,.81,1.69,8.53,8.53,0,0,1,.24,2.05Z" style="fill:#407BFF"></path><path d="M290.76,169.12a.6.6,0,0,1,.18-.43.62.62,0,0,1,.44-.18h1.73a.62.62,0,0,1,.44.18.6.6,0,0,1,.18.43V180.6a4,4,0,0,1-1.15,3.08,4.83,4.83,0,0,1-3.3,1h-.57a.62.62,0,0,1-.44-.18.58.58,0,0,1-.18-.43v-1.51a.58.58,0,0,1,.18-.43.62.62,0,0,1,.44-.18h.34a1.81,1.81,0,0,0,1.37-.39,1.61,1.61,0,0,0,.34-1.1Zm2.47-5a.6.6,0,0,1,.43.18.62.62,0,0,1,.18.44v1.78a.61.61,0,0,1-.61.61h-2a.61.61,0,0,1-.61-.61v-1.78a.62.62,0,0,1,.18-.44.6.6,0,0,1,.43-.18Z" style="fill:#407BFF"></path><path d="M302.1,168.28a6.29,6.29,0,0,1,2.27.39,5.4,5.4,0,0,1,1.76,1.07,5.37,5.37,0,0,1,1.7,3.56c0,.13,0,.31,0,.52v1.27c0,.2,0,.37,0,.51a5.58,5.58,0,0,1-.53,2,5.12,5.12,0,0,1-1.17,1.59,5.55,5.55,0,0,1-1.76,1.06,6.8,6.8,0,0,1-4.54,0,5.55,5.55,0,0,1-1.76-1.06,5.12,5.12,0,0,1-1.17-1.59,5.58,5.58,0,0,1-.53-2q0-.21,0-.51c0-.21,0-.42,0-.63s0-.42,0-.64,0-.39,0-.52a5.37,5.37,0,0,1,1.7-3.56,5.4,5.4,0,0,1,1.76-1.07A6.29,6.29,0,0,1,302.1,168.28Zm2.76,5.13a2.94,2.94,0,0,0-.33-1.17,2.25,2.25,0,0,0-1.5-1.12,4.08,4.08,0,0,0-.93-.1,4.23,4.23,0,0,0-.94.1,2.28,2.28,0,0,0-.84.38,2.24,2.24,0,0,0-.65.74,2.94,2.94,0,0,0-.33,1.17,2.86,2.86,0,0,0,0,.46c0,.18,0,.37,0,.57s0,.39,0,.58a2.44,2.44,0,0,0,0,.44,2.94,2.94,0,0,0,.33,1.18,2.24,2.24,0,0,0,.65.74,2.45,2.45,0,0,0,.84.38,4.23,4.23,0,0,0,.94.1,4.08,4.08,0,0,0,.93-.1,2.41,2.41,0,0,0,.85-.38,2.24,2.24,0,0,0,.65-.74,2.94,2.94,0,0,0,.33-1.18,2.63,2.63,0,0,0,0-.44v-1.15A3,3,0,0,0,304.86,173.41Z" style="fill:#407BFF"></path><path d="M310.34,169.12a.6.6,0,0,1,.18-.43.58.58,0,0,1,.43-.18h1.74a.61.61,0,0,1,.61.61v5.8a3.78,3.78,0,0,0,.58,2.19,2.2,2.2,0,0,0,1.91.82,2.24,2.24,0,0,0,1.85-.82,3.52,3.52,0,0,0,.63-2.19v-5.8a.61.61,0,0,1,.19-.43.58.58,0,0,1,.43-.18h1.73a.6.6,0,0,1,.44.18.6.6,0,0,1,.18.43v10.63a.61.61,0,0,1-.62.62h-1.73a.58.58,0,0,1-.43-.18.61.61,0,0,1-.19-.44v-.52a5.82,5.82,0,0,1-1.3,1,3.86,3.86,0,0,1-1.87.42,5.36,5.36,0,0,1-2.3-.44,3.68,3.68,0,0,1-1.46-1.16,4.57,4.57,0,0,1-.78-1.7,9,9,0,0,1-.22-2Z" style="fill:#407BFF"></path><path d="M329.93,171.24a2.21,2.21,0,0,0-2.58,2.58v5.93a.6.6,0,0,1-.18.44.6.6,0,0,1-.43.18H325a.6.6,0,0,1-.43-.18.6.6,0,0,1-.18-.44V169.12a.61.61,0,0,1,.61-.61h1.74a.61.61,0,0,1,.61.61v.53a3.92,3.92,0,0,1,3-1.14h1a.6.6,0,0,1,.44.18.6.6,0,0,1,.18.43v1.51a.58.58,0,0,1-.18.43.6.6,0,0,1-.44.18Z" style="fill:#407BFF"></path></g><g id="freepik--speech-bubble--inject-33"><path d="M290.65,84.9h49.48a4,4,0,0,1,4,4v24.64a4,4,0,0,1-4,4h-8.66c-.22,3,.88,5.55,2.85,6.81-4.74-.13-8.72-2.93-9.66-6.81h-34a4,4,0,0,1-4-4V88.87A4,4,0,0,1,290.65,84.9Z" style="fill:#fafafa"></path><path d="M334.32,124.79h0c-4.82-.13-8.88-2.91-10-6.81H290.65a4.47,4.47,0,0,1-4.47-4.47V88.87a4.47,4.47,0,0,1,4.47-4.47h49.48a4.47,4.47,0,0,1,4.47,4.47v24.64a4.47,4.47,0,0,1-4.47,4.47h-8.19a6.57,6.57,0,0,0,2.65,5.89.51.51,0,0,1,.21.57A.5.5,0,0,1,334.32,124.79ZM290.65,85.4a3.47,3.47,0,0,0-3.47,3.47v24.64a3.47,3.47,0,0,0,3.47,3.47h34a.5.5,0,0,1,.49.38c.79,3.24,3.83,5.69,7.66,6.29a8.28,8.28,0,0,1-1.84-6.2.5.5,0,0,1,.5-.47h8.66a3.47,3.47,0,0,0,3.47-3.47V88.87a3.47,3.47,0,0,0-3.47-3.47Z" style="fill:#407BFF"></path><path d="M304.55,103a.62.62,0,0,1,.21-.39.61.61,0,0,1,.36-.13h1.6a.55.55,0,0,1,.38.15.45.45,0,0,1,.15.38,5.09,5.09,0,0,1-.41,1.62,4.27,4.27,0,0,1-1,1.45,5.48,5.48,0,0,1-1.79,1.06,7.21,7.21,0,0,1-2.61.42,6.63,6.63,0,0,1-2.4-.41,5.19,5.19,0,0,1-1.77-1.12,5.1,5.1,0,0,1-1.13-1.72,6.94,6.94,0,0,1-.48-2.18c0-.5,0-1,0-1.65s0-1.15,0-1.65a7,7,0,0,1,.48-2.19,5.05,5.05,0,0,1,1.13-1.71A5.22,5.22,0,0,1,299,93.8a6.86,6.86,0,0,1,2.4-.4,7.45,7.45,0,0,1,2.61.41,5.5,5.5,0,0,1,1.79,1.07,4.21,4.21,0,0,1,1,1.46,5.11,5.11,0,0,1,.41,1.6.46.46,0,0,1-.15.39.59.59,0,0,1-.38.14h-1.6a.65.65,0,0,1-.37-.12.59.59,0,0,1-.22-.39,2.17,2.17,0,0,0-.27-.76,2.34,2.34,0,0,0-.59-.67,2.86,2.86,0,0,0-.94-.48,4.17,4.17,0,0,0-1.34-.19,3.65,3.65,0,0,0-1.34.23,2.82,2.82,0,0,0-.95.63,2.72,2.72,0,0,0-.59,1,4,4,0,0,0-.25,1.16c0,.5,0,1,0,1.65s0,1.15,0,1.65a4,4,0,0,0,.25,1.17,2.64,2.64,0,0,0,.59.93,2.55,2.55,0,0,0,.95.63,3.45,3.45,0,0,0,1.34.24,4.17,4.17,0,0,0,1.34-.19,3,3,0,0,0,.95-.48,2.36,2.36,0,0,0,.6-.67A2.24,2.24,0,0,0,304.55,103Z" style="fill:#455a64"></path><path d="M311.49,93.4a.51.51,0,0,1,.38.16.51.51,0,0,1,.15.37v1.54a.53.53,0,0,1-.15.37.55.55,0,0,1-.38.16H309.8a.52.52,0,0,1-.37-.16.5.5,0,0,1-.16-.37V93.93a.55.55,0,0,1,.53-.53Zm.44,13.43a.52.52,0,0,1-.16.37.5.5,0,0,1-.37.16h-1.5a.55.55,0,0,1-.53-.53V97.67a.51.51,0,0,1,.16-.38.51.51,0,0,1,.37-.15h1.5a.53.53,0,0,1,.37.15.55.55,0,0,1,.16.38Z" style="fill:#455a64"></path><path d="M314.64,99.65a2.64,2.64,0,0,1,.36-.88,3.34,3.34,0,0,1,.81-.89,4.29,4.29,0,0,1,1.28-.67,5.21,5.21,0,0,1,1.76-.27,5.58,5.58,0,0,1,1.8.27A3.84,3.84,0,0,1,322,98a3.34,3.34,0,0,1,.9,1.29,4.71,4.71,0,0,1,.31,1.78v5.78a.55.55,0,0,1-.53.53h-1.49a.51.51,0,0,1-.38-.16.52.52,0,0,1-.16-.37v-.65a3.31,3.31,0,0,1-1.18,1,4.28,4.28,0,0,1-2,.41,4.7,4.7,0,0,1-1.51-.23,3,3,0,0,1-1.12-.64,2.68,2.68,0,0,1-.7-1,3,3,0,0,1-.25-1.23,2.56,2.56,0,0,1,1-2.12,5.63,5.63,0,0,1,2.58-1.05l3.2-.55a1.24,1.24,0,0,0-.53-1.14,2.43,2.43,0,0,0-1.31-.33,1.63,1.63,0,0,0-.77.14,2.22,2.22,0,0,0-.53.37,1.11,1.11,0,0,1-.33.22.79.79,0,0,1-.32.06h-1.83a.48.48,0,0,1-.33-.12A.31.31,0,0,1,314.64,99.65Zm3.28,5.55a3.62,3.62,0,0,0,1.19-.19,2.6,2.6,0,0,0,.88-.5,2.24,2.24,0,0,0,.53-.71,1.89,1.89,0,0,0,.17-.8v-.2l-2.67.47a2.86,2.86,0,0,0-1.16.4.85.85,0,0,0-.35.72.64.64,0,0,0,.42.61A2.33,2.33,0,0,0,317.92,105.2Z" style="fill:#455a64"></path><path d="M330.37,96.94a5.46,5.46,0,0,1,1.95.33,4.67,4.67,0,0,1,1.52.93,4.76,4.76,0,0,1,1,1.37,4.64,4.64,0,0,1,.44,1.69c0,.12,0,.27,0,.46v1.09c0,.18,0,.32,0,.44a4.81,4.81,0,0,1-.45,1.69,4.43,4.43,0,0,1-1,1.37,4.81,4.81,0,0,1-1.52.91,5.46,5.46,0,0,1-1.95.34,5.52,5.52,0,0,1-2-.34,4.76,4.76,0,0,1-1.51-.91,4.31,4.31,0,0,1-1-1.37,5.28,5.28,0,0,1-.45-1.69c0-.12,0-.26,0-.44s0-.36,0-.54,0-.37,0-.55,0-.34,0-.46a4.61,4.61,0,0,1,3-4A5.52,5.52,0,0,1,330.37,96.94Zm2.38,4.42a2.61,2.61,0,0,0-.29-1,2,2,0,0,0-.56-.64,1.92,1.92,0,0,0-.73-.32,3.65,3.65,0,0,0-1.61,0,2.06,2.06,0,0,0-.73.32,2,2,0,0,0-.56.64,2.62,2.62,0,0,0-.28,1c0,.11,0,.24,0,.4s0,.32,0,.49,0,.34,0,.5,0,.29,0,.38a2.62,2.62,0,0,0,.28,1,1.91,1.91,0,0,0,.56.63,2.09,2.09,0,0,0,.73.33,3.65,3.65,0,0,0,1.61,0,1.94,1.94,0,0,0,.73-.33,1.91,1.91,0,0,0,.56-.63,2.61,2.61,0,0,0,.29-1,3.47,3.47,0,0,0,0-.38v-1C332.77,101.6,332.76,101.47,332.75,101.36Z" style="fill:#455a64"></path></g></g></svg>